M48
;Layer_Color=9474304
;FILE_FORMAT=2:5
INCH,TZ
;TYPE=PLATED
T1F00S00C0.01181
T2F00S00C0.01968
T3F00S00C0.02362
T4F00S00C0.03150
;TYPE=NON_PLATED
T5F00S00C0.03543
T6F00S00C0.05906
T7F00S00C0.11811
%
T01
X28327Y32520
X36279Y32087
X43996Y32283
X51654Y32283
X66929
X78740Y26575
X83661
X88583
X93804Y26576
X98425Y26575
X119213Y29055
X118169Y32205
X127953Y26575
X118110Y49213
Y54134
X113189
Y49213
X114252Y62717
X126969Y85630
X127953Y106299
X125984Y109646
X122933Y111299
X122047Y120079
X116142
Y125984
X110236
Y131890
X109803Y119528
X105758
X101713
X98327Y119685
X92126Y125591
X82677Y121063
X77559Y121063
Y114173
Y108169
X83563Y108366
X88386Y108465
X87598Y114173
X96850Y107086
X103445Y107087
X107264Y105551
X106595Y101673
X100394Y101772
X91683Y100415
X83759Y100170
X86594Y90925
X86910Y85413
X83484Y87657
X83602Y82284
X87402Y79783
X91535Y88583
X98135Y82342
X82165Y71476
X79646Y73444
X73819Y59055
Y54134
X68898
Y59055
X58563Y60276
X44291Y63976
Y68898
X39370
Y63976
X65158Y107283
X66535Y111811
X65354Y115354
X71260Y101575
X113721Y101654
X112500Y112205
X132874Y107283
X130905Y101378
X134842Y100393
X144685Y102362
X149606
Y107283
X144685
X143169Y112697
X145669Y116142
X143701Y121063
X144587Y127854
X148561Y128339
X148465Y124921
X155512Y123721
X158079Y125794
X160244Y123333
X162894Y125689
X167244Y122323
X167323Y118110
Y113189
Y108268
Y103347
X177165
Y108268
Y113189
Y118110
Y123031
X187008
Y118110
X191929
X187008Y113189
X185039Y110236
X188169Y106378
X190965Y108858
X195256Y108799
X203575Y110626
X204724Y103347
Y99410
Y95472
Y89016
X194705Y89252
X184882Y97992
X176181Y90551
X171653
X167323
X163583Y90394
X163386Y78583
X169291Y78149
X175694Y79705
X178057Y77283
X180492Y79685
X182782Y77520
X185216Y79685
X187508Y77342
X207087Y78875
X212539Y72618
X214902Y69823
X220453Y67795
X224646Y67283
X221457Y59055
Y54134
Y49213
Y44291
Y39370
X212461Y39094
X213228Y34902
X205365Y39713
X196850Y25591
X191929
X187008
X182087
X156693Y29338
X142717Y26575
X137795
X132874
X135709Y66181
X132618Y68799
X138760Y69016
X147638Y66929
X154528Y65945
X158465
X162402
X165335Y68405
X168307Y65945
X176063Y66280
X143701Y81693
X142852Y87069
X148622Y87598
X134902Y85039
X130905Y85630
X151890Y118484
X152106Y137835
X140748Y129921
X184606Y128819
X188839Y128209
X188976Y137894
X192598Y141260
X176422Y149191
X170118Y149094
X208780Y129232
X206437Y126870
X210728Y119744
X213774Y118317
X221457Y103347
Y98425
X226378
Y93504
Y88583
X221457
Y93504
X262283Y86476
X263451Y68898
X268701
X258202
X252953
Y61024
X258858Y59055
X260827Y49213
Y44291
X255906
Y49213
Y27559
X259842
X263779
X265748Y18701
X264764Y14764
X258858
X260827Y18701
X251969Y27559
X238189Y31496
X237205Y37402
X236221Y25591
X235138Y13563
X286417Y11811
Y6890
Y16732
X246850Y63696
X297244Y62008
X299213Y65945
X304134
X309055
X312008Y61024
X296260Y52165
X295276Y48228
X291339Y51181
X189409Y167205
X190000Y170905
X120354Y158031
T02
X41535Y19094
X65158
X93110Y36024
X91535Y69784
X61024Y88583
X55118
X49213
X43307
X39370Y115354
X49213Y114173
X55118
X61024
Y139764
X66929
Y145669
X61024
X88583Y147638
X98425
X129921Y151575
X39370Y156299
X39272Y134350
X139764Y151575
X151575Y153543
Y147638
X165571Y152992
X236221Y147638
Y137795
X246063
Y147638
X268898Y143799
X269783Y113484
X246063Y116142
Y106299
X236221
Y116142
X273228Y79724
X274016Y48425
X246752Y36279
X267717Y6890
X192913Y37402
X187008
X195846Y42520
X191957Y47960
X159449Y39370
X153543
X147638
X141732
X153484Y51673
Y57579
X304350Y45138
X306102Y118110
X289862Y113583
X289449Y108484
X289764Y137992
X289744Y143484
X248031Y165354
X242126
X236221
X185039Y167323
X175197Y159449
X169291
X151575
X139764Y161417
X129921
X98425Y157480
X88583
X79724Y165157
X73130Y165157
X66601
X60039
T03
X48346Y5531
X246850Y11378
X269783Y108366
X269587Y138287
T04
X9685Y64055
Y74055
Y84055
Y94055
X19685Y89055
Y79055
Y69055
Y59055
Y125984
Y135984
X9685Y140984
Y130984
X85472Y53150
X95472
X99331Y19842
X89331
X84331Y9843
X94331
X104331
X109331Y19842
X129764Y9843
X139764
X149764
X159764
X154764Y19842
X144764
X134764
X164764
X189882
X199882
X209882
X204882Y9843
X194882
X184882
X230315
X240315
X245315Y19842
X235315
X312835Y110984
Y120984
Y130984
X322835Y125984
Y115984
Y105984
Y157480
X312835
X289528Y186024
X279528
X269528
X259528
X264528Y176024
X274528
X284528
X254528
X230630Y176181
X220630
X210630
X200630
X205630Y186181
X215630
X225630
X235630
X181417Y186024
X171417
X161417
X151417
X156417Y176024
X166417
X176417
X146417
X122205Y176181
X112205
X102205
X92205
X97205Y186181
X107205
X117205
X127205
T05
X314961Y46457
Y63779
T06
X12598Y53543
Y120472
X78819Y16929
X124252
X179370
X224803
X315748Y100472
X295039Y178937
X241142Y179095
X186929Y178937
X132717Y179095
T07
X11811Y11811
X322835
Y185039
X11811
M30
