G04 Layer_Color=8388736*
%FSLAX25Y25*%
%MOIN*%
G70*
G01*
G75*
%ADD55R,0.18700X0.18700*%
%ADD56R,0.03740X0.01574*%
%ADD57R,0.01575X0.03740*%
%ADD58R,0.03091X0.05591*%
%ADD59R,0.02953X0.01575*%
%ADD60R,0.01575X0.02953*%
%ADD61R,0.18701X0.18701*%
%ADD62R,0.04134X0.03740*%
%ADD63O,0.05512X0.01575*%
%ADD64O,0.01575X0.05512*%
%ADD65R,0.03741X0.03741*%
%ADD66R,0.03347X0.04134*%
%ADD67R,0.04134X0.03347*%
%ADD68R,0.05591X0.03091*%
%ADD69R,0.04528X0.04134*%
G04:AMPARAMS|DCode=70|XSize=64.96mil|YSize=41.34mil|CornerRadius=11.81mil|HoleSize=0mil|Usage=FLASHONLY|Rotation=0.000|XOffset=0mil|YOffset=0mil|HoleType=Round|Shape=RoundedRectangle|*
%AMROUNDEDRECTD70*
21,1,0.06496,0.01772,0,0,0.0*
21,1,0.04134,0.04134,0,0,0.0*
1,1,0.02362,0.02067,-0.00886*
1,1,0.02362,-0.02067,-0.00886*
1,1,0.02362,-0.02067,0.00886*
1,1,0.02362,0.02067,0.00886*
%
%ADD70ROUNDEDRECTD70*%
%ADD71R,0.03741X0.03741*%
%ADD72R,0.08465X0.06890*%
%ADD73R,0.10433X0.08465*%
%ADD74R,0.09449X0.02559*%
%ADD75R,0.08071X0.04922*%
%ADD76O,0.07480X0.02953*%
%ADD77C,0.05709*%
%ADD78C,0.00591*%
%ADD79C,0.12402*%
%ADD80C,0.04134*%
%ADD81C,0.02953*%
%ADD82C,0.04528*%
%ADD83C,0.03740*%
D55*
X82677Y114173D02*
D03*
D56*
X94488Y123031D02*
D03*
Y121063D02*
D03*
Y119094D02*
D03*
Y117126D02*
D03*
Y115157D02*
D03*
Y113189D02*
D03*
Y111220D02*
D03*
Y109252D02*
D03*
Y107283D02*
D03*
Y105315D02*
D03*
X70866D02*
D03*
Y107283D02*
D03*
Y109252D02*
D03*
Y111220D02*
D03*
Y113189D02*
D03*
Y115157D02*
D03*
Y117126D02*
D03*
Y119094D02*
D03*
Y121063D02*
D03*
Y123031D02*
D03*
D57*
X91536Y102362D02*
D03*
X89567D02*
D03*
X87599D02*
D03*
X85630D02*
D03*
X83662D02*
D03*
X81693D02*
D03*
X79725D02*
D03*
X77756D02*
D03*
X75788D02*
D03*
X73819D02*
D03*
Y125984D02*
D03*
X75788D02*
D03*
X77756D02*
D03*
X79725D02*
D03*
X81693D02*
D03*
X83662D02*
D03*
X85630D02*
D03*
X87599D02*
D03*
X89567D02*
D03*
X91536D02*
D03*
D58*
X91535Y78998D02*
D03*
Y87598D02*
D03*
X98135D02*
D03*
Y78998D02*
D03*
D59*
X94094Y123031D02*
D03*
Y121063D02*
D03*
Y119094D02*
D03*
Y117126D02*
D03*
Y115157D02*
D03*
Y113189D02*
D03*
Y111220D02*
D03*
Y109252D02*
D03*
Y107283D02*
D03*
Y105315D02*
D03*
X71260D02*
D03*
Y107283D02*
D03*
Y109252D02*
D03*
Y111220D02*
D03*
Y113189D02*
D03*
Y115157D02*
D03*
Y117126D02*
D03*
Y119094D02*
D03*
Y121063D02*
D03*
Y123031D02*
D03*
D60*
X91535Y102756D02*
D03*
X89567D02*
D03*
X87598D02*
D03*
X85630D02*
D03*
X83661D02*
D03*
X81693D02*
D03*
X79724D02*
D03*
X77756D02*
D03*
X75787D02*
D03*
X73819D02*
D03*
Y125590D02*
D03*
X75787D02*
D03*
X77756D02*
D03*
X79724D02*
D03*
X81693D02*
D03*
X83661D02*
D03*
X85630D02*
D03*
X87598D02*
D03*
X89567D02*
D03*
X91535D02*
D03*
D61*
X82677Y114173D02*
D03*
D62*
X273228Y87205D02*
D03*
Y79724D02*
D03*
X281102Y83465D02*
D03*
D63*
X138878Y78740D02*
D03*
Y80709D02*
D03*
Y82677D02*
D03*
Y84646D02*
D03*
Y86614D02*
D03*
Y88583D02*
D03*
Y90551D02*
D03*
Y92520D02*
D03*
Y94488D02*
D03*
Y96457D02*
D03*
Y98425D02*
D03*
Y100394D02*
D03*
Y102362D02*
D03*
Y104331D02*
D03*
Y106299D02*
D03*
Y108268D02*
D03*
Y110236D02*
D03*
Y112205D02*
D03*
Y114173D02*
D03*
Y116142D02*
D03*
Y118110D02*
D03*
Y120079D02*
D03*
Y122047D02*
D03*
Y124016D02*
D03*
Y125984D02*
D03*
X199705D02*
D03*
Y124016D02*
D03*
Y122047D02*
D03*
Y120079D02*
D03*
Y118110D02*
D03*
Y116142D02*
D03*
Y114173D02*
D03*
Y112205D02*
D03*
Y110236D02*
D03*
Y108268D02*
D03*
Y106299D02*
D03*
Y104331D02*
D03*
Y102362D02*
D03*
Y100394D02*
D03*
Y98425D02*
D03*
Y96457D02*
D03*
Y94488D02*
D03*
Y92520D02*
D03*
Y90551D02*
D03*
Y88583D02*
D03*
Y86614D02*
D03*
Y84646D02*
D03*
Y82677D02*
D03*
Y80709D02*
D03*
Y78740D02*
D03*
D64*
X145669Y132776D02*
D03*
X147638D02*
D03*
X149606D02*
D03*
X151575D02*
D03*
X153543D02*
D03*
X155512D02*
D03*
X157480D02*
D03*
X159449D02*
D03*
X161417D02*
D03*
X163386D02*
D03*
X165354D02*
D03*
X167323D02*
D03*
X169291D02*
D03*
X171260D02*
D03*
X173228D02*
D03*
X175197D02*
D03*
X177165D02*
D03*
X179134D02*
D03*
X181102D02*
D03*
X183071D02*
D03*
X185039D02*
D03*
X187008D02*
D03*
X188976D02*
D03*
X190945D02*
D03*
X192913D02*
D03*
Y71949D02*
D03*
X190945D02*
D03*
X188976D02*
D03*
X187008D02*
D03*
X185039D02*
D03*
X183071D02*
D03*
X181102D02*
D03*
X179134D02*
D03*
X177165D02*
D03*
X175197D02*
D03*
X173228D02*
D03*
X171260D02*
D03*
X169291D02*
D03*
X167323D02*
D03*
X165354D02*
D03*
X163386D02*
D03*
X161417D02*
D03*
X159449D02*
D03*
X157480D02*
D03*
X155512D02*
D03*
X153543D02*
D03*
X151575D02*
D03*
X149606D02*
D03*
X147638D02*
D03*
X145669D02*
D03*
D65*
X77756Y179134D02*
D03*
Y185040D02*
D03*
X71522Y179134D02*
D03*
Y185040D02*
D03*
X65289Y179134D02*
D03*
Y185040D02*
D03*
X59055Y179134D02*
D03*
Y185040D02*
D03*
D66*
X184724Y42618D02*
D03*
X190236D02*
D03*
X97244Y72835D02*
D03*
X91732D02*
D03*
X241339Y56060D02*
D03*
X246850D02*
D03*
X241339Y63696D02*
D03*
X246850D02*
D03*
X241339Y71331D02*
D03*
X246850D02*
D03*
X241339Y48425D02*
D03*
X246850D02*
D03*
X274016Y32283D02*
D03*
X279528D02*
D03*
Y40394D02*
D03*
X274016D02*
D03*
X279528Y48504D02*
D03*
X274016D02*
D03*
Y56614D02*
D03*
X279528D02*
D03*
X274016Y64724D02*
D03*
X279528D02*
D03*
X274016Y72835D02*
D03*
X279528D02*
D03*
X158996Y51673D02*
D03*
X153484D02*
D03*
X158996Y57579D02*
D03*
X153484D02*
D03*
D67*
X198543Y53563D02*
D03*
Y48051D02*
D03*
X66929Y26772D02*
D03*
Y32283D02*
D03*
X59252Y26772D02*
D03*
Y32283D02*
D03*
X51575D02*
D03*
Y26772D02*
D03*
X43898D02*
D03*
Y32283D02*
D03*
X36220Y26772D02*
D03*
Y32283D02*
D03*
X28543Y32283D02*
D03*
Y26772D02*
D03*
X39370Y127165D02*
D03*
Y132677D02*
D03*
Y115354D02*
D03*
Y120866D02*
D03*
Y138976D02*
D03*
Y144488D02*
D03*
Y150787D02*
D03*
Y156299D02*
D03*
D68*
X191957Y47960D02*
D03*
X183358D02*
D03*
Y54560D02*
D03*
X191957D02*
D03*
D69*
X79724Y171457D02*
D03*
Y165157D02*
D03*
X73163Y171457D02*
D03*
Y165157D02*
D03*
X66601Y171457D02*
D03*
Y165157D02*
D03*
X60039Y171457D02*
D03*
Y165157D02*
D03*
D70*
X65158Y19094D02*
D03*
Y12402D02*
D03*
X52953Y19094D02*
D03*
Y12402D02*
D03*
X41535Y19094D02*
D03*
Y12402D02*
D03*
X29331Y19094D02*
D03*
Y12402D02*
D03*
D71*
X267914Y6299D02*
D03*
X262008D02*
D03*
D72*
X278740Y11811D02*
D03*
X300000D02*
D03*
D73*
X326378Y37598D02*
D03*
Y72638D02*
D03*
X304921D02*
D03*
Y37598D02*
D03*
D74*
X304429Y61417D02*
D03*
Y58268D02*
D03*
Y55118D02*
D03*
Y51968D02*
D03*
Y48819D02*
D03*
D75*
X166083Y59547D02*
D03*
Y49705D02*
D03*
D76*
X270177Y143484D02*
D03*
Y138484D02*
D03*
Y133484D02*
D03*
Y128484D02*
D03*
Y123484D02*
D03*
Y118484D02*
D03*
Y113484D02*
D03*
Y108484D02*
D03*
X288878Y143484D02*
D03*
Y138484D02*
D03*
Y133484D02*
D03*
Y128484D02*
D03*
Y123484D02*
D03*
Y118484D02*
D03*
Y113484D02*
D03*
Y108484D02*
D03*
D77*
X85472Y53150D02*
D03*
X95472D02*
D03*
X9685Y94055D02*
D03*
X19685Y89055D02*
D03*
X9685Y84055D02*
D03*
X19685Y79055D02*
D03*
X9685Y74055D02*
D03*
X19685Y69055D02*
D03*
X9685Y64055D02*
D03*
X19685Y59055D02*
D03*
Y125984D02*
D03*
X9685Y130984D02*
D03*
X19685Y135984D02*
D03*
X9685Y140984D02*
D03*
X230315Y9843D02*
D03*
X235315Y19842D02*
D03*
X240315Y9843D02*
D03*
X245315Y19842D02*
D03*
X209882D02*
D03*
X204882Y9843D02*
D03*
X199882Y19842D02*
D03*
X194882Y9843D02*
D03*
X189882Y19842D02*
D03*
X184882Y9843D02*
D03*
X164764Y19842D02*
D03*
X159764Y9843D02*
D03*
X154764Y19842D02*
D03*
X149764Y9843D02*
D03*
X144764Y19842D02*
D03*
X139764Y9843D02*
D03*
X134764Y19842D02*
D03*
X129764Y9843D02*
D03*
X109331Y19842D02*
D03*
X104331Y9843D02*
D03*
X99331Y19842D02*
D03*
X94331Y9843D02*
D03*
X89331Y19842D02*
D03*
X84331Y9843D02*
D03*
X146417Y176024D02*
D03*
X151417Y186024D02*
D03*
X156417Y176024D02*
D03*
X161417Y186024D02*
D03*
X166417Y176024D02*
D03*
X171417Y186024D02*
D03*
X176417Y176024D02*
D03*
X181417Y186024D02*
D03*
X92205Y176181D02*
D03*
X97205Y186181D02*
D03*
X102205Y176181D02*
D03*
X107205Y186181D02*
D03*
X112205Y176181D02*
D03*
X117205Y186181D02*
D03*
X122205Y176181D02*
D03*
X127205Y186181D02*
D03*
X200630Y176181D02*
D03*
X205630Y186181D02*
D03*
X210630Y176181D02*
D03*
X215630Y186181D02*
D03*
X220630Y176181D02*
D03*
X225630Y186181D02*
D03*
X230630Y176181D02*
D03*
X235630Y186181D02*
D03*
X254528Y176024D02*
D03*
X259528Y186024D02*
D03*
X264528Y176024D02*
D03*
X269528Y186024D02*
D03*
X274528Y176024D02*
D03*
X279528Y186024D02*
D03*
X284528Y176024D02*
D03*
X289528Y186024D02*
D03*
X312835Y157480D02*
D03*
X322835D02*
D03*
X312835Y130984D02*
D03*
X322835Y125984D02*
D03*
X312835Y120984D02*
D03*
X322835Y115984D02*
D03*
X312835Y110984D02*
D03*
X322835Y105984D02*
D03*
D78*
X12598Y53543D02*
D03*
Y120472D02*
D03*
X224803Y16929D02*
D03*
X179370D02*
D03*
X124252D02*
D03*
X78819D02*
D03*
X186929Y178937D02*
D03*
X132717Y179095D02*
D03*
X241142D02*
D03*
X295039Y178937D02*
D03*
X315748Y100472D02*
D03*
D79*
X11811Y11811D02*
D03*
X322835D02*
D03*
Y185039D02*
D03*
X11811D02*
D03*
D80*
X314961Y63779D02*
D03*
Y46457D02*
D03*
D81*
X226378Y88583D02*
D03*
X143701Y121063D02*
D03*
X132874Y107283D02*
D03*
X65354Y115354D02*
D03*
X66535Y111811D02*
D03*
X127953Y106299D02*
D03*
X134842Y100393D02*
D03*
X88386Y108465D02*
D03*
X83563Y108366D02*
D03*
X112500Y112205D02*
D03*
X96850Y107086D02*
D03*
X91683Y100415D02*
D03*
X77559Y121063D02*
D03*
Y114173D02*
D03*
Y108169D02*
D03*
X82677Y121063D02*
D03*
X87598Y114173D02*
D03*
X92126Y125591D02*
D03*
X65158Y107283D02*
D03*
X71260Y101575D02*
D03*
X106595Y101673D02*
D03*
X107264Y105551D02*
D03*
X101713Y119528D02*
D03*
X105758D02*
D03*
X109803D02*
D03*
X190000Y170905D02*
D03*
X189409Y167205D02*
D03*
X207087Y78875D02*
D03*
X192598Y141260D02*
D03*
X203575Y110626D02*
D03*
X188839Y128209D02*
D03*
X152106Y137835D02*
D03*
X120354Y158031D02*
D03*
X91535Y88583D02*
D03*
X184882Y97992D02*
D03*
X188169Y106378D02*
D03*
X190965Y108858D02*
D03*
X169291Y78149D02*
D03*
X163386Y78583D02*
D03*
X206437Y126870D02*
D03*
X212539Y72618D02*
D03*
X212461Y39094D02*
D03*
X214902Y69823D02*
D03*
X220453Y67795D02*
D03*
X224646Y67283D02*
D03*
X208780Y129232D02*
D03*
X210728Y119744D02*
D03*
X213774Y118317D02*
D03*
X114252Y62717D02*
D03*
X138760Y69016D02*
D03*
X82165Y71476D02*
D03*
X79646Y73444D02*
D03*
X122933Y111299D02*
D03*
X83759Y100170D02*
D03*
X87402Y79783D02*
D03*
X83602Y82284D02*
D03*
X86910Y85413D02*
D03*
X83484Y87657D02*
D03*
X86594Y90925D02*
D03*
X125984Y109646D02*
D03*
X36279Y32087D02*
D03*
X28327Y32520D02*
D03*
X155512Y123721D02*
D03*
X158079Y125794D02*
D03*
X160244Y123333D02*
D03*
X162894Y125689D02*
D03*
X163583Y90394D02*
D03*
X43996Y32283D02*
D03*
X185216Y79685D02*
D03*
X180492Y79685D02*
D03*
X175694Y79705D02*
D03*
X178057Y77283D02*
D03*
X187508Y77342D02*
D03*
X182782Y77520D02*
D03*
X176063Y66280D02*
D03*
X66929Y32283D02*
D03*
X51654D02*
D03*
X194705Y89252D02*
D03*
X142852Y87069D02*
D03*
X113721Y101654D02*
D03*
X130905Y101378D02*
D03*
X58563Y60276D02*
D03*
X98135Y82342D02*
D03*
X170118Y149094D02*
D03*
X188976Y137894D02*
D03*
X176422Y149191D02*
D03*
X262283Y86476D02*
D03*
X156693Y29338D02*
D03*
X205365Y39713D02*
D03*
X213228Y34902D02*
D03*
X235138Y13563D02*
D03*
X165335Y68405D02*
D03*
X143169Y112697D02*
D03*
X134902Y85039D02*
D03*
X204724Y89016D02*
D03*
X195256Y108799D02*
D03*
X184606Y128819D02*
D03*
X148465Y124921D02*
D03*
X148561Y128339D02*
D03*
X167244Y122323D02*
D03*
X151890Y118484D02*
D03*
X132618Y68799D02*
D03*
X135709Y66181D02*
D03*
X118169Y32205D02*
D03*
X119213Y29055D02*
D03*
X100394Y101772D02*
D03*
X103445Y107087D02*
D03*
X98327Y119685D02*
D03*
X110236Y131890D02*
D03*
Y125984D02*
D03*
X116142D02*
D03*
Y120079D02*
D03*
X122047D02*
D03*
X130905Y85630D02*
D03*
X126969D02*
D03*
X144685Y107283D02*
D03*
X149606D02*
D03*
Y102362D02*
D03*
X144685D02*
D03*
X145669Y116142D02*
D03*
X140748Y129921D02*
D03*
X143701Y81693D02*
D03*
X148622Y87598D02*
D03*
X167323Y118110D02*
D03*
Y113189D02*
D03*
Y108268D02*
D03*
Y103347D02*
D03*
X177165D02*
D03*
Y108268D02*
D03*
Y113189D02*
D03*
Y118110D02*
D03*
Y123031D02*
D03*
X187008D02*
D03*
Y118110D02*
D03*
Y113189D02*
D03*
X185039Y110236D02*
D03*
X191929Y118110D02*
D03*
X204724Y103347D02*
D03*
Y99410D02*
D03*
Y95472D02*
D03*
X167323Y90551D02*
D03*
X171653D02*
D03*
X176181D02*
D03*
X154528Y65945D02*
D03*
X158465D02*
D03*
X162402D02*
D03*
X168307D02*
D03*
X147638Y66929D02*
D03*
X39370Y68898D02*
D03*
Y63976D02*
D03*
X44291D02*
D03*
Y68898D02*
D03*
X68898Y59055D02*
D03*
Y54134D02*
D03*
X73819D02*
D03*
Y59055D02*
D03*
X113189Y54134D02*
D03*
Y49213D02*
D03*
X118110D02*
D03*
Y54134D02*
D03*
X78740Y26575D02*
D03*
X83661D02*
D03*
X127953D02*
D03*
X132874D02*
D03*
X137795D02*
D03*
X142717D02*
D03*
X182087Y25591D02*
D03*
X187008D02*
D03*
X191929D02*
D03*
X196850D02*
D03*
X246850Y63696D02*
D03*
X258858Y59055D02*
D03*
X255906Y44291D02*
D03*
Y49213D02*
D03*
X260827D02*
D03*
Y44291D02*
D03*
X252953Y61024D02*
D03*
X251969Y27559D02*
D03*
X255906D02*
D03*
X259842D02*
D03*
X263779D02*
D03*
X260827Y18701D02*
D03*
X265748D02*
D03*
X264764Y14764D02*
D03*
X258858D02*
D03*
X286417Y16732D02*
D03*
Y11811D02*
D03*
Y6890D02*
D03*
X309055Y65945D02*
D03*
X304134D02*
D03*
X299213D02*
D03*
X312008Y61024D02*
D03*
X221457Y103347D02*
D03*
Y98425D02*
D03*
Y93504D02*
D03*
Y88583D02*
D03*
X226378Y93504D02*
D03*
Y98425D02*
D03*
X291339Y51181D02*
D03*
X295276Y48228D02*
D03*
X296260Y52165D02*
D03*
X252953Y68898D02*
D03*
X258202D02*
D03*
X263451D02*
D03*
X268701D02*
D03*
X237205Y37402D02*
D03*
X238189Y31496D02*
D03*
X236221Y25591D02*
D03*
X221457Y59055D02*
D03*
Y54134D02*
D03*
Y49213D02*
D03*
Y44291D02*
D03*
Y39370D02*
D03*
X88583Y26575D02*
D03*
X93804Y26576D02*
D03*
X98425Y26575D02*
D03*
X297244Y62008D02*
D03*
X144587Y127854D02*
D03*
D82*
X267717Y6890D02*
D03*
X274016Y48425D02*
D03*
X273228Y79724D02*
D03*
X269783Y113484D02*
D03*
X268898Y143799D02*
D03*
X79724Y165157D02*
D03*
X73130Y165157D02*
D03*
X66601D02*
D03*
X60039D02*
D03*
X39370Y156299D02*
D03*
X39272Y134350D02*
D03*
X65158Y19094D02*
D03*
X41535D02*
D03*
X39370Y115354D02*
D03*
X246752Y36279D02*
D03*
X304350Y45138D02*
D03*
X165571Y152992D02*
D03*
X48346Y5531D02*
D03*
X246850Y11378D02*
D03*
X269587Y138287D02*
D03*
X269783Y108366D02*
D03*
D83*
X153484Y57579D02*
D03*
Y51673D02*
D03*
X191957Y47960D02*
D03*
X195846Y42520D02*
D03*
X147638Y39370D02*
D03*
X153543D02*
D03*
X159449D02*
D03*
X141732D02*
D03*
X187008Y37402D02*
D03*
X192913D02*
D03*
X236221Y165354D02*
D03*
X242126D02*
D03*
X248031D02*
D03*
X185039Y167323D02*
D03*
X169291Y159449D02*
D03*
X175197D02*
D03*
X246063Y147638D02*
D03*
X236221D02*
D03*
Y137795D02*
D03*
X246063D02*
D03*
X236221Y116142D02*
D03*
Y106299D02*
D03*
X246063D02*
D03*
Y116142D02*
D03*
X129921Y161417D02*
D03*
X139764D02*
D03*
Y151575D02*
D03*
X129921D02*
D03*
X151575Y159449D02*
D03*
Y153543D02*
D03*
Y147638D02*
D03*
X88583D02*
D03*
Y157480D02*
D03*
X98425D02*
D03*
Y147638D02*
D03*
X61024Y145669D02*
D03*
Y139764D02*
D03*
X66929D02*
D03*
Y145669D02*
D03*
X43307Y88583D02*
D03*
X49213D02*
D03*
X55118D02*
D03*
X61024D02*
D03*
Y114173D02*
D03*
X55118D02*
D03*
X49213D02*
D03*
X289862Y113583D02*
D03*
X289744Y143484D02*
D03*
X306102Y118110D02*
D03*
X289764Y137992D02*
D03*
X289449Y108484D02*
D03*
X91535Y69784D02*
D03*
X93110Y36024D02*
D03*
M02*
