G04 Layer_Physical_Order=2*
G04 Layer_Color=16711680*
%FSLAX25Y25*%
%MOIN*%
G70*
G01*
G75*
%ADD18R,0.02756X0.03543*%
%ADD19R,0.03543X0.02756*%
%ADD29C,0.00787*%
%ADD30C,0.01181*%
%ADD31C,0.03150*%
%ADD32C,0.02362*%
%ADD33C,0.01575*%
%ADD34C,0.05118*%
%ADD35C,0.11811*%
%ADD36C,0.03543*%
%ADD37C,0.02362*%
%ADD38C,0.03937*%
%ADD39C,0.03150*%
%ADD40R,0.02362X0.03150*%
%ADD41R,0.03937X0.07480*%
%ADD42R,0.07284X0.07480*%
%ADD43R,0.03937X0.04331*%
%ADD44R,0.07480X0.07284*%
%ADD45R,0.03937X0.09449*%
%ADD46R,0.12992X0.09449*%
%ADD47C,0.01969*%
G36*
X305118Y177165D02*
X295276Y167323D01*
X280512D01*
X270669Y157480D01*
Y148622D01*
Y146437D01*
X270460Y146264D01*
X270069Y146097D01*
X269569Y146304D01*
X268898Y146392D01*
X268227Y146304D01*
X267601Y146045D01*
X267567Y146019D01*
X266590D01*
Y154947D01*
X284484Y172841D01*
X284528Y172835D01*
X285353Y172944D01*
X286122Y173262D01*
X286782Y173769D01*
X286809Y173804D01*
X289517D01*
X291268Y172052D01*
X291988Y171571D01*
X292838Y171402D01*
X297241D01*
X298090Y171571D01*
X298811Y172052D01*
X301924Y175166D01*
X302405Y175886D01*
X302574Y176735D01*
Y185866D01*
X302405Y186716D01*
X301924Y187436D01*
X296688Y192672D01*
X295968Y193153D01*
X295118Y193322D01*
X123287D01*
X122944Y193254D01*
X122205Y193401D01*
X87441D01*
X86592Y193232D01*
X85871Y192751D01*
X80025Y186904D01*
X79544Y186184D01*
X79375Y185335D01*
Y167704D01*
X79053Y167662D01*
X78428Y167403D01*
X78394Y167377D01*
X74460D01*
X74426Y167403D01*
X73801Y167662D01*
X73130Y167751D01*
X72459Y167662D01*
X71833Y167403D01*
X71800Y167377D01*
X67931D01*
X67898Y167403D01*
X67272Y167662D01*
X66601Y167751D01*
X65930Y167662D01*
X65304Y167403D01*
X65271Y167377D01*
X61370D01*
X61336Y167403D01*
X60711Y167662D01*
X60039Y167751D01*
X59368Y167662D01*
X58743Y167403D01*
X58709Y167377D01*
X45866D01*
X45017Y167208D01*
X44297Y166727D01*
X36324Y158755D01*
X33470Y155900D01*
X32989Y155180D01*
X32820Y154331D01*
Y147638D01*
Y124016D01*
Y118799D01*
X32989Y117950D01*
X33470Y117230D01*
X37013Y113686D01*
X37733Y113205D01*
X38023Y113147D01*
X38074Y113109D01*
X38699Y112850D01*
X39370Y112761D01*
X40041Y112850D01*
X40667Y113109D01*
X41204Y113521D01*
X41616Y114058D01*
X41875Y114683D01*
X41963Y115354D01*
X41875Y116025D01*
X41616Y116651D01*
X41204Y117188D01*
X40667Y117600D01*
X40041Y117859D01*
X39370Y117947D01*
X39070Y117908D01*
X37259Y119719D01*
Y124016D01*
Y132131D01*
X37942D01*
X37975Y132105D01*
X38601Y131846D01*
X39272Y131757D01*
X39943Y131846D01*
X40568Y132105D01*
X41105Y132517D01*
X41517Y133054D01*
X41776Y133679D01*
X41865Y134350D01*
X41776Y135021D01*
X41517Y135647D01*
X41105Y136184D01*
X40568Y136596D01*
X39943Y136855D01*
X39272Y136943D01*
X38601Y136855D01*
X37975Y136596D01*
X37942Y136570D01*
X37259D01*
Y147638D01*
Y153411D01*
X37976Y154128D01*
X38074Y154054D01*
X38699Y153795D01*
X39370Y153706D01*
X40041Y153795D01*
X40667Y154054D01*
X41204Y154466D01*
X41616Y155003D01*
X41875Y155628D01*
X41963Y156299D01*
X41875Y156970D01*
X41616Y157596D01*
X41541Y157693D01*
X46786Y162938D01*
X58709D01*
X58743Y162912D01*
X59368Y162653D01*
X60039Y162564D01*
X60711Y162653D01*
X61336Y162912D01*
X61370Y162938D01*
X65271D01*
X65304Y162912D01*
X65930Y162653D01*
X66601Y162564D01*
X67272Y162653D01*
X67898Y162912D01*
X67931Y162938D01*
X71800D01*
X71833Y162912D01*
X72459Y162653D01*
X73130Y162564D01*
X73801Y162653D01*
X74426Y162912D01*
X74460Y162938D01*
X78394D01*
X78428Y162912D01*
X79053Y162653D01*
X79375Y162610D01*
Y147441D01*
X79544Y146591D01*
X80025Y145871D01*
X87390Y138506D01*
Y133059D01*
X90709D01*
Y126680D01*
X90446Y126286D01*
X90329Y125701D01*
X87094D01*
Y122875D01*
X86086Y121867D01*
X85532Y122097D01*
Y122933D01*
X83957D01*
Y120965D01*
X84400D01*
X84629Y120410D01*
X83152Y118933D01*
X76004D01*
X75539Y118840D01*
X75144Y118577D01*
X73943Y117376D01*
X73679Y116981D01*
X73593Y116547D01*
X70984D01*
X70866Y116571D01*
X66687D01*
X66640Y116640D01*
X66050Y117034D01*
X65354Y117173D01*
X64658Y117034D01*
X64069Y116640D01*
X63674Y116050D01*
X63536Y115354D01*
X63569Y115190D01*
X63116Y114738D01*
X62853Y114343D01*
X62760Y113878D01*
Y110445D01*
X59831D01*
Y103267D01*
X59807Y103150D01*
Y98142D01*
X59043D01*
Y93394D01*
X63004D01*
Y98142D01*
X62240D01*
Y101760D01*
X66697D01*
X67484Y100973D01*
Y99725D01*
X67577Y99259D01*
X67841Y98864D01*
X69954Y96751D01*
X70349Y96487D01*
X70814Y96395D01*
X84211D01*
X84460Y95795D01*
X33987Y45321D01*
X33766Y44992D01*
X33689Y44603D01*
X33689Y44603D01*
Y34968D01*
X32256Y33535D01*
X29793D01*
X29613Y33806D01*
X29023Y34200D01*
X28327Y34338D01*
X27631Y34200D01*
X27041Y33806D01*
X26647Y33216D01*
X26508Y32520D01*
X26647Y31824D01*
X27041Y31234D01*
X27631Y30840D01*
X28327Y30701D01*
X29023Y30840D01*
X29613Y31234D01*
X29793Y31504D01*
X32677D01*
X32677Y31504D01*
X33066Y31581D01*
X33395Y31802D01*
X33891Y32298D01*
X34265Y32159D01*
X34472Y32030D01*
X34600Y31391D01*
X34994Y30801D01*
X35584Y30407D01*
X36279Y30268D01*
X36975Y30407D01*
X37565Y30801D01*
X37960Y31391D01*
X38098Y32087D01*
X38017Y32493D01*
X38570Y32789D01*
X39794Y31565D01*
X39794Y31565D01*
X40123Y31345D01*
X40512Y31268D01*
X42530D01*
X42710Y30998D01*
X43300Y30604D01*
X43996Y30465D01*
X44692Y30604D01*
X45282Y30998D01*
X45676Y31588D01*
X45814Y32283D01*
X45676Y32979D01*
X45282Y33569D01*
X44692Y33963D01*
X43996Y34102D01*
X43300Y33963D01*
X42710Y33569D01*
X42530Y33299D01*
X40933D01*
X38870Y35362D01*
Y42878D01*
X56157Y60166D01*
X56806Y59966D01*
X56883Y59580D01*
X57277Y58990D01*
X57867Y58596D01*
X58563Y58457D01*
X59259Y58596D01*
X59849Y58990D01*
X60243Y59580D01*
X60381Y60276D01*
X60243Y60971D01*
X59849Y61561D01*
X59843Y61624D01*
X75432Y77213D01*
X82968D01*
X84300Y75881D01*
X84070Y75327D01*
X81659D01*
X81659Y75327D01*
X81271Y75249D01*
X80941Y75029D01*
X80389Y75093D01*
X80342Y75124D01*
X79646Y75262D01*
X78950Y75124D01*
X78360Y74730D01*
X77966Y74140D01*
X77828Y73444D01*
X77966Y72748D01*
X78360Y72158D01*
X78950Y71764D01*
X79646Y71625D01*
X79770Y71650D01*
X80347Y71476D01*
X80485Y70780D01*
X80879Y70191D01*
X81470Y69796D01*
X82165Y69658D01*
X82861Y69796D01*
X83451Y70191D01*
X83845Y70780D01*
X83984Y71476D01*
X84184Y71721D01*
X89518D01*
X89811Y71121D01*
X89485Y70633D01*
X89316Y69784D01*
X89485Y68934D01*
X89966Y68214D01*
X90107Y68120D01*
Y37610D01*
X90215Y37068D01*
X90522Y36608D01*
X90926Y36204D01*
X90890Y36024D01*
X91059Y35174D01*
X91541Y34454D01*
X91576Y34431D01*
X91394Y33830D01*
X70159D01*
X68626Y35364D01*
X68296Y35584D01*
X67908Y35661D01*
X67908Y35661D01*
X54016D01*
X54016Y35661D01*
X53627Y35584D01*
X53298Y35364D01*
X53298Y35364D01*
X51972Y34038D01*
X51654Y34102D01*
X50958Y33964D01*
X50368Y33569D01*
X49974Y32979D01*
X49835Y32283D01*
X49974Y31588D01*
X50368Y30998D01*
X50958Y30604D01*
X51654Y30465D01*
X52349Y30604D01*
X52939Y30998D01*
X53333Y31588D01*
X53472Y32283D01*
X53409Y32602D01*
X54436Y33630D01*
X64962D01*
X65283Y33030D01*
X65249Y32979D01*
X65111Y32283D01*
X65249Y31588D01*
X65643Y30998D01*
X66233Y30604D01*
X66571Y30536D01*
X66585Y30522D01*
X66585Y30522D01*
X66914Y30302D01*
X67303Y30225D01*
X67303Y30225D01*
X114678D01*
X116565Y28337D01*
X116565Y28337D01*
X116895Y28117D01*
X117283Y28040D01*
X117746D01*
X117927Y27769D01*
X118517Y27375D01*
X118577Y27363D01*
X118774Y26712D01*
X112920Y20858D01*
X112332D01*
X112092Y21437D01*
X111585Y22097D01*
X110925Y22604D01*
X110156Y22923D01*
X109331Y23031D01*
X108505Y22923D01*
X107736Y22604D01*
X107076Y22097D01*
X106569Y21437D01*
X106251Y20668D01*
X106142Y19842D01*
X106251Y19017D01*
X106569Y18248D01*
X107076Y17588D01*
X107736Y17081D01*
X108505Y16762D01*
X109331Y16654D01*
X110156Y16762D01*
X110236Y16796D01*
X110576Y16287D01*
X106473Y12184D01*
X105925Y12604D01*
X105156Y12923D01*
X104331Y13031D01*
X103505Y12923D01*
X102736Y12604D01*
X102076Y12097D01*
X101569Y11437D01*
X101251Y10668D01*
X101142Y9843D01*
X101251Y9017D01*
X101569Y8248D01*
X101958Y7741D01*
X101741Y7141D01*
X96920D01*
X96703Y7741D01*
X97092Y8248D01*
X97411Y9017D01*
X97519Y9843D01*
X97411Y10668D01*
X97092Y11437D01*
X96586Y12097D01*
X95925Y12604D01*
X95156Y12923D01*
X94331Y13031D01*
X93505Y12923D01*
X92736Y12604D01*
X92150Y12155D01*
X91854Y12224D01*
X91550Y12398D01*
Y17561D01*
X91585Y17588D01*
X92092Y18248D01*
X92411Y19017D01*
X92519Y19842D01*
X92411Y20668D01*
X92092Y21437D01*
X91585Y22097D01*
X90925Y22604D01*
X90156Y22923D01*
X89331Y23031D01*
X88505Y22923D01*
X87736Y22604D01*
X87076Y22097D01*
X86569Y21437D01*
X86251Y20668D01*
X86142Y19842D01*
X86251Y19017D01*
X86569Y18248D01*
X87076Y17588D01*
X87111Y17561D01*
Y12379D01*
X86781Y12200D01*
X86511Y12140D01*
X85919Y12594D01*
X85153Y12911D01*
X84724Y12968D01*
Y9843D01*
X84331D01*
Y9449D01*
X81206D01*
X81262Y9020D01*
X81580Y8254D01*
X81973Y7741D01*
X81764Y7141D01*
X79758D01*
X67742Y19157D01*
X67662Y19766D01*
X67403Y20391D01*
X66991Y20928D01*
X66454Y21340D01*
X65829Y21599D01*
X65158Y21688D01*
X64486Y21599D01*
X63861Y21340D01*
X63827Y21314D01*
X42866D01*
X42832Y21340D01*
X42207Y21599D01*
X41535Y21688D01*
X40864Y21599D01*
X40239Y21340D01*
X39702Y20928D01*
X39290Y20391D01*
X39031Y19766D01*
X38942Y19094D01*
X39031Y18423D01*
X39290Y17798D01*
X39702Y17261D01*
X40239Y16849D01*
X40864Y16590D01*
X41535Y16501D01*
X42207Y16590D01*
X42832Y16849D01*
X42866Y16875D01*
X63746D01*
X77269Y3352D01*
X77989Y2870D01*
X78839Y2701D01*
X88799D01*
X89331Y2807D01*
X89862Y2701D01*
X235394D01*
X236243Y2870D01*
X236963Y3352D01*
X239909Y6297D01*
X240721D01*
X241698Y5320D01*
X242418Y4839D01*
X243268Y4670D01*
X266386D01*
X266420Y4644D01*
X267045Y4385D01*
X267717Y4297D01*
X268388Y4385D01*
X269013Y4644D01*
X269550Y5056D01*
X269962Y5593D01*
X270221Y6219D01*
X270310Y6890D01*
X270221Y7561D01*
X269962Y8186D01*
X269550Y8723D01*
X269013Y9135D01*
X268388Y9394D01*
X267717Y9483D01*
X267045Y9394D01*
X266420Y9135D01*
X266386Y9110D01*
X249073D01*
X249015Y9175D01*
X248811Y9710D01*
X249096Y10081D01*
X249355Y10707D01*
X249361Y10749D01*
X259266Y20654D01*
X280807D01*
X281657Y20823D01*
X282377Y21304D01*
X288971Y27899D01*
X289452Y28619D01*
X289621Y29469D01*
Y34449D01*
X289452Y35298D01*
X289185Y35699D01*
Y36626D01*
X287616D01*
X287402Y36669D01*
X287187Y36626D01*
X285618D01*
Y35699D01*
X285351Y35298D01*
X285182Y34449D01*
Y30388D01*
X279888Y25094D01*
X258347D01*
X257497Y24925D01*
X256777Y24444D01*
X246221Y13888D01*
X246179Y13883D01*
X245554Y13624D01*
X245017Y13212D01*
X244605Y12675D01*
X244346Y12049D01*
X244257Y11378D01*
X244346Y10707D01*
X244605Y10081D01*
X244808Y9816D01*
X244587Y9244D01*
X244334Y9200D01*
X244078Y9218D01*
X243498Y9799D01*
X243503Y9843D01*
X243395Y10668D01*
X243076Y11437D01*
X242613Y12040D01*
Y17276D01*
X243213Y17485D01*
X243726Y17091D01*
X244493Y16774D01*
X244921Y16718D01*
Y19842D01*
X245315D01*
Y20236D01*
X248440D01*
X248383Y20665D01*
X248066Y21431D01*
X247561Y22089D01*
X246903Y22594D01*
X246137Y22911D01*
X245496Y22996D01*
X245219Y23568D01*
X247731Y26079D01*
X248212Y26799D01*
X248381Y27649D01*
Y31386D01*
X250504D01*
Y33607D01*
X260618D01*
Y30500D01*
X274815D01*
Y41153D01*
X269936D01*
Y46205D01*
X272686D01*
X272719Y46180D01*
X273345Y45921D01*
X274016Y45832D01*
X274687Y45921D01*
X275312Y46180D01*
X275849Y46592D01*
X276261Y47129D01*
X276520Y47754D01*
X276609Y48425D01*
X276520Y49096D01*
X276261Y49722D01*
X275849Y50259D01*
X275312Y50671D01*
X274687Y50930D01*
X274016Y51018D01*
X273345Y50930D01*
X272719Y50671D01*
X272686Y50645D01*
X269936D01*
Y53335D01*
X270287D01*
Y63988D01*
X265146D01*
Y53335D01*
X265497D01*
Y48524D01*
Y41153D01*
X260618D01*
Y38047D01*
X250504D01*
Y39874D01*
X245057D01*
X242867Y42064D01*
X243096Y42618D01*
X245768D01*
Y46457D01*
X241831D01*
Y43884D01*
X241276Y43654D01*
X238342Y46589D01*
Y62722D01*
X252927Y77308D01*
X272345D01*
X272557Y77220D01*
X273228Y77131D01*
X273900Y77220D01*
X274525Y77479D01*
X275062Y77891D01*
X275474Y78428D01*
X275733Y79053D01*
X275821Y79724D01*
X275733Y80396D01*
X275474Y81021D01*
X275062Y81558D01*
X274525Y81970D01*
X273900Y82229D01*
X273228Y82317D01*
X272557Y82229D01*
X271932Y81970D01*
X271642Y81747D01*
X269936D01*
Y101279D01*
X269767Y102129D01*
X269286Y102849D01*
X266903Y105233D01*
X266922Y106008D01*
X267028Y106102D01*
X268996D01*
Y108071D01*
X269783D01*
Y106102D01*
X270669D01*
Y103347D01*
X275590Y98425D01*
X290354Y83661D01*
X333630D01*
Y25591D01*
X316929D01*
X309055Y17717D01*
X309055Y1016D01*
X25591D01*
Y17717D01*
X17717Y25591D01*
X1016Y25591D01*
Y171260D01*
X17717D01*
X25591Y179134D01*
X25591Y195835D01*
X305118D01*
Y177165D01*
D02*
G37*
G36*
X139890Y88929D02*
Y84969D01*
X142949D01*
X143957Y83960D01*
X143728Y83406D01*
X142657D01*
Y81831D01*
X144626D01*
Y82536D01*
X145171Y82874D01*
X145226Y82876D01*
X145728Y82776D01*
X162661D01*
X163374Y82062D01*
X163145Y81508D01*
X159438D01*
Y75972D01*
X161583D01*
Y74028D01*
X160618D01*
Y69279D01*
X164579D01*
Y74028D01*
X163614D01*
Y75972D01*
X164579D01*
Y77235D01*
X164672Y77297D01*
X165066Y77887D01*
X165204Y78583D01*
X165066Y79279D01*
X164884Y79550D01*
X164915Y79673D01*
X165578Y79858D01*
X166130Y79307D01*
Y75972D01*
X169075D01*
X169291Y75929D01*
X169507Y75972D01*
X171271D01*
Y77193D01*
X171342Y77300D01*
X171511Y78149D01*
Y79396D01*
X173144Y81029D01*
X173712D01*
X174032Y80429D01*
X174014Y80401D01*
X173875Y79705D01*
X174014Y79009D01*
X174408Y78419D01*
X174678Y78239D01*
Y76305D01*
X174678Y76305D01*
X174756Y75917D01*
X174976Y75587D01*
X178591Y71972D01*
Y66513D01*
X177991Y66202D01*
X177901Y66265D01*
X177873Y66324D01*
X177743Y66975D01*
X177349Y67565D01*
X176759Y67959D01*
X176063Y68098D01*
X175367Y67959D01*
X174777Y67565D01*
X174383Y66975D01*
X174245Y66280D01*
X174308Y65961D01*
X172355Y64008D01*
X148655D01*
X148076Y64586D01*
X148274Y65237D01*
X148334Y65249D01*
X148924Y65643D01*
X149318Y66233D01*
X149456Y66929D01*
X149318Y67625D01*
X148924Y68215D01*
X148334Y68609D01*
X147638Y68748D01*
X147319Y68684D01*
X140974Y75029D01*
X140645Y75249D01*
X140256Y75327D01*
X140256Y75327D01*
X101067D01*
X100838Y75881D01*
X105752Y80796D01*
X119490D01*
X119490Y80795D01*
X119878Y80873D01*
X120208Y81093D01*
X128256Y89142D01*
X139378D01*
X139890Y88929D01*
D02*
G37*
G36*
X199398Y76302D02*
Y70854D01*
X204845D01*
X213627Y62072D01*
X214347Y61591D01*
X215197Y61422D01*
X233902D01*
Y45669D01*
X234071Y44820D01*
X234552Y44100D01*
X241819Y36833D01*
Y31386D01*
X243942D01*
Y28568D01*
X238824Y23451D01*
X238343Y22730D01*
X238239Y22210D01*
X237598Y22061D01*
X237570Y22097D01*
X236909Y22604D01*
X236140Y22923D01*
X235315Y23031D01*
X234490Y22923D01*
X233720Y22604D01*
X233190Y22197D01*
X232590Y22392D01*
Y23321D01*
X232590Y23321D01*
X232513Y23710D01*
X232293Y24039D01*
X214157Y42175D01*
X213828Y42395D01*
X213439Y42472D01*
X213439Y42472D01*
X211482D01*
X211093Y42395D01*
X210764Y42175D01*
X210764Y42175D01*
X209318Y40729D01*
X206832D01*
X206651Y40999D01*
X206061Y41393D01*
X205365Y41532D01*
X204670Y41393D01*
X204080Y40999D01*
X203685Y40409D01*
X203547Y39713D01*
X203685Y39017D01*
X204080Y38427D01*
X204670Y38033D01*
X205365Y37895D01*
X206061Y38033D01*
X206651Y38427D01*
X206832Y38698D01*
X209739D01*
X209739Y38698D01*
X209789Y38708D01*
X210085Y38155D01*
X199164Y27234D01*
X198944Y26904D01*
X198866Y26516D01*
X198866Y26516D01*
Y22844D01*
X198287Y22604D01*
X197627Y22097D01*
X197120Y21437D01*
X196802Y20668D01*
X196693Y19842D01*
X196802Y19017D01*
X197120Y18248D01*
X197627Y17588D01*
X198287Y17081D01*
X199056Y16762D01*
X199719Y16675D01*
X200006Y16113D01*
X196488Y12595D01*
X196476Y12604D01*
X195707Y12923D01*
X194882Y13031D01*
X194056Y12923D01*
X193288Y12604D01*
X192702Y12155D01*
X192405Y12224D01*
X192102Y12398D01*
Y17561D01*
X192137Y17588D01*
X192643Y18248D01*
X192962Y19017D01*
X193070Y19842D01*
X192962Y20668D01*
X192643Y21437D01*
X192137Y22097D01*
X191476Y22604D01*
X190707Y22923D01*
X189882Y23031D01*
X189057Y22923D01*
X188287Y22604D01*
X187627Y22097D01*
X187120Y21437D01*
X186802Y20668D01*
X186693Y19842D01*
X186802Y19017D01*
X187120Y18248D01*
X187627Y17588D01*
X187662Y17561D01*
Y12379D01*
X187332Y12200D01*
X187062Y12140D01*
X186470Y12594D01*
X185704Y12911D01*
X185276Y12968D01*
Y9843D01*
X184882D01*
Y9449D01*
X181757D01*
X181813Y9020D01*
X182131Y8254D01*
X182524Y7741D01*
X182315Y7141D01*
X162353D01*
X162136Y7741D01*
X162525Y8248D01*
X162844Y9017D01*
X162952Y9843D01*
X162844Y10668D01*
X162525Y11437D01*
X162019Y12097D01*
X161358Y12604D01*
X160779Y12844D01*
Y19423D01*
X161004Y19580D01*
X161647Y19296D01*
X161684Y19017D01*
X162002Y18248D01*
X162509Y17588D01*
X163169Y17081D01*
X163938Y16762D01*
X164764Y16654D01*
X165589Y16762D01*
X166358Y17081D01*
X167018Y17588D01*
X167525Y18248D01*
X167844Y19017D01*
X167952Y19842D01*
X167844Y20668D01*
X167604Y21247D01*
X188226Y41868D01*
X188226Y41868D01*
X188446Y42198D01*
X188523Y42587D01*
Y75876D01*
X188794Y76056D01*
X189188Y76647D01*
X189326Y77342D01*
X189188Y78038D01*
X188794Y78628D01*
X188204Y79022D01*
X187508Y79161D01*
X187436Y79146D01*
X187012Y79571D01*
X187035Y79685D01*
X186897Y80381D01*
X186865Y80429D01*
X187185Y81029D01*
X194671D01*
X199398Y76302D01*
D02*
G37*
G36*
X147516Y62274D02*
X147845Y62054D01*
X148234Y61977D01*
X172775D01*
X172776Y61976D01*
X173164Y62054D01*
X173494Y62274D01*
X175744Y64525D01*
X176063Y64461D01*
X176382Y64525D01*
X177016Y63890D01*
Y46894D01*
X162595Y32472D01*
X159953D01*
X159564Y32395D01*
X159235Y32175D01*
X159235Y32175D01*
X157802Y30742D01*
X157389Y31018D01*
X156693Y31157D01*
X155997Y31018D01*
X155407Y30624D01*
X155013Y30034D01*
X154875Y29338D01*
X155013Y28642D01*
X155210Y28348D01*
X154889Y27748D01*
X151910D01*
X151910Y27748D01*
X151521Y27670D01*
X151192Y27450D01*
X151192Y27450D01*
X148340Y24598D01*
X143215D01*
X143214Y24598D01*
X142826Y24521D01*
X142496Y24301D01*
X139046Y20850D01*
X138826Y20520D01*
X138748Y20132D01*
X138748Y20132D01*
Y12844D01*
X138169Y12604D01*
X137584Y12155D01*
X137287Y12224D01*
X136984Y12398D01*
Y17561D01*
X137019Y17588D01*
X137525Y18248D01*
X137844Y19017D01*
X137952Y19842D01*
X137844Y20668D01*
X137525Y21437D01*
X137019Y22097D01*
X136358Y22604D01*
X135589Y22923D01*
X134764Y23031D01*
X133939Y22923D01*
X133169Y22604D01*
X132509Y22097D01*
X132002Y21437D01*
X131684Y20668D01*
X131575Y19842D01*
X131684Y19017D01*
X132002Y18248D01*
X132509Y17588D01*
X132544Y17561D01*
Y12379D01*
X132214Y12200D01*
X131944Y12140D01*
X131352Y12594D01*
X130586Y12911D01*
X130157Y12968D01*
Y9843D01*
X129764D01*
Y9449D01*
X126639D01*
X126695Y9020D01*
X127013Y8254D01*
X127406Y7741D01*
X127197Y7141D01*
X106920D01*
X106703Y7741D01*
X107092Y8248D01*
X107411Y9017D01*
X107519Y9843D01*
X107459Y10298D01*
X123868Y26706D01*
X124088Y27036D01*
X124165Y27424D01*
Y41407D01*
X134970Y52212D01*
X134970Y52212D01*
X135190Y52542D01*
X135267Y52930D01*
Y63841D01*
X135709Y64363D01*
X136405Y64501D01*
X136995Y64895D01*
X137389Y65485D01*
X137527Y66181D01*
X137389Y66877D01*
X137161Y67217D01*
X137594Y67650D01*
X138064Y67336D01*
X138760Y67197D01*
X139456Y67336D01*
X140046Y67730D01*
X140440Y68320D01*
X140470Y68471D01*
X141121Y68669D01*
X147516Y62274D01*
D02*
G37*
G36*
X121265Y71166D02*
X114571Y64472D01*
X114252Y64535D01*
X113556Y64397D01*
X112966Y64002D01*
X112572Y63412D01*
X112434Y62717D01*
X112572Y62021D01*
X112966Y61431D01*
X113556Y61037D01*
X114252Y60898D01*
X114948Y61037D01*
X115538Y61431D01*
X115932Y62021D01*
X116070Y62717D01*
X116007Y63035D01*
X123117Y70146D01*
X130651D01*
X130972Y69546D01*
X130938Y69495D01*
X130800Y68799D01*
X130938Y68103D01*
X131332Y67513D01*
X131603Y67333D01*
Y53944D01*
X120857Y43198D01*
X120636Y42869D01*
X120559Y42480D01*
X120559Y42480D01*
Y32407D01*
X119959Y32348D01*
X119849Y32901D01*
X119455Y33490D01*
X118865Y33885D01*
X118169Y34023D01*
X117473Y33885D01*
X117392Y33830D01*
X94827D01*
X94645Y34431D01*
X94680Y34454D01*
X95161Y35174D01*
X95330Y36024D01*
X95161Y36873D01*
X94680Y37593D01*
X93960Y38074D01*
X93110Y38243D01*
X92941Y38383D01*
Y50351D01*
X93541Y50647D01*
X93878Y50388D01*
X94647Y50070D01*
X95472Y49961D01*
X96298Y50070D01*
X97067Y50388D01*
X97727Y50895D01*
X98234Y51555D01*
X98553Y52324D01*
X98661Y53150D01*
X98553Y53975D01*
X98234Y54744D01*
X97727Y55404D01*
X97067Y55911D01*
X96298Y56230D01*
X95472Y56338D01*
X94647Y56230D01*
X93878Y55911D01*
X93541Y55652D01*
X92941Y55948D01*
Y68104D01*
X93105Y68214D01*
X93586Y68934D01*
X93755Y69784D01*
X93586Y70633D01*
X93260Y71121D01*
X93553Y71721D01*
X121036D01*
X121265Y71166D01*
D02*
G37*
G36*
X269291Y136319D02*
X270669D01*
Y116505D01*
X270069Y116040D01*
X269783Y116077D01*
X269112Y115989D01*
X268662Y115803D01*
X266590D01*
Y136319D01*
X268504D01*
Y138287D01*
X269291D01*
Y136319D01*
D02*
G37*
G36*
X70067Y108528D02*
Y105795D01*
X74028D01*
Y108430D01*
X75036Y109438D01*
X75590Y109209D01*
Y108563D01*
X77559D01*
Y108169D01*
X77953D01*
Y105807D01*
X79239D01*
X79294Y105535D01*
X79557Y105140D01*
X81189Y103508D01*
Y100874D01*
X81469D01*
X81962Y100274D01*
X81941Y100170D01*
X82079Y99474D01*
X82111Y99427D01*
X81790Y98827D01*
X80009D01*
X79528Y99114D01*
X79527Y99427D01*
Y101083D01*
X77559D01*
X75590D01*
Y99427D01*
X75590Y99114D01*
X75109Y98827D01*
X74514D01*
X74028Y99102D01*
Y103850D01*
X70067D01*
Y102923D01*
X69974Y102861D01*
X69938Y102807D01*
X69166Y102731D01*
X68319Y103578D01*
Y109492D01*
X68873Y109721D01*
X70067Y108528D01*
D02*
G37*
G36*
X114823Y188658D02*
X114893Y188361D01*
X114443Y187775D01*
X114125Y187006D01*
X114016Y186181D01*
X114125Y185356D01*
X114443Y184587D01*
X114950Y183926D01*
X115610Y183420D01*
X116379Y183101D01*
X117205Y182992D01*
X118030Y183101D01*
X118799Y183420D01*
X119385Y183869D01*
X119681Y183799D01*
X119985Y183625D01*
Y178463D01*
X119950Y178436D01*
X119443Y177775D01*
X119125Y177006D01*
X119016Y176181D01*
X119125Y175356D01*
X119443Y174587D01*
X119950Y173926D01*
X120610Y173420D01*
X121379Y173101D01*
X122205Y172992D01*
X123030Y173101D01*
X123799Y173420D01*
X124460Y173926D01*
X124966Y174587D01*
X125285Y175356D01*
X125393Y176181D01*
X125285Y177006D01*
X124966Y177775D01*
X124460Y178436D01*
X124425Y178463D01*
Y183645D01*
X124755Y183824D01*
X125024Y183884D01*
X125616Y183430D01*
X126383Y183113D01*
X126811Y183056D01*
Y186181D01*
X127205D01*
Y186575D01*
X130330D01*
X130273Y187003D01*
X129956Y187769D01*
X129562Y188283D01*
X129771Y188883D01*
X148964D01*
X149168Y188283D01*
X149163Y188278D01*
X148656Y187618D01*
X148337Y186849D01*
X148229Y186024D01*
X148337Y185198D01*
X148656Y184429D01*
X149163Y183769D01*
X149823Y183262D01*
X150402Y183022D01*
Y176930D01*
X149817Y176645D01*
X149548Y176816D01*
X149487Y176874D01*
X149179Y177618D01*
X148672Y178278D01*
X148012Y178785D01*
X147243Y179104D01*
X146417Y179212D01*
X145592Y179104D01*
X144823Y178785D01*
X144163Y178278D01*
X143656Y177618D01*
X143337Y176849D01*
X143229Y176024D01*
X143337Y175198D01*
X143656Y174429D01*
X144163Y173769D01*
X144823Y173262D01*
X145592Y172944D01*
X146417Y172835D01*
X147243Y172944D01*
X148012Y173262D01*
X148672Y173769D01*
X148823Y173965D01*
X149422Y174004D01*
X153913Y169513D01*
Y140789D01*
X153358Y140681D01*
Y140681D01*
X149398D01*
Y135933D01*
X153358D01*
Y135933D01*
X153913Y135825D01*
Y130743D01*
X149527Y126357D01*
X149160Y126601D01*
X148465Y126740D01*
X147769Y126601D01*
X147179Y126207D01*
X146785Y125617D01*
X146646Y124921D01*
X146785Y124225D01*
X147179Y123635D01*
X147769Y123241D01*
X148465Y123103D01*
X149160Y123241D01*
X149750Y123635D01*
X150036Y124063D01*
X150246Y124203D01*
X154934Y128891D01*
X155488Y128662D01*
Y127980D01*
X154998Y127490D01*
X154778Y127161D01*
X154701Y126772D01*
X154701Y126772D01*
Y125323D01*
X154226Y125006D01*
X153832Y124416D01*
X153693Y123721D01*
X153832Y123025D01*
X154002Y122769D01*
X154041Y122149D01*
X153900Y121931D01*
X152208Y120239D01*
X151890Y120303D01*
X151194Y120164D01*
X150604Y119770D01*
X150210Y119180D01*
X150071Y118484D01*
X150210Y117788D01*
X150604Y117199D01*
X151194Y116804D01*
X151890Y116666D01*
X152586Y116804D01*
X153176Y117199D01*
X153570Y117788D01*
X153708Y118484D01*
X153645Y118803D01*
X155184Y120343D01*
X158457D01*
X158547Y120253D01*
X158547Y120253D01*
X158877Y120032D01*
X159266Y119955D01*
X161222D01*
X161223Y119955D01*
X161611Y120032D01*
X161941Y120253D01*
X162995Y121307D01*
X165778D01*
X165958Y121037D01*
X166548Y120643D01*
X167244Y120504D01*
X167940Y120643D01*
X168530Y121037D01*
X168924Y121627D01*
X169062Y122323D01*
X168924Y123019D01*
X168530Y123609D01*
X167940Y124003D01*
X167244Y124141D01*
X166548Y124003D01*
X165958Y123609D01*
X165778Y123338D01*
X163294D01*
X163235Y123938D01*
X163590Y124009D01*
X164180Y124403D01*
X164574Y124993D01*
X164712Y125689D01*
X164574Y126385D01*
X164180Y126975D01*
X163590Y127369D01*
X163020Y127482D01*
X162954Y127813D01*
X162734Y128142D01*
X162244Y128632D01*
Y168187D01*
X165325Y171268D01*
X167966D01*
X167966Y171268D01*
X168355Y171345D01*
X168685Y171565D01*
X172135Y175016D01*
X172356Y175346D01*
X172433Y175734D01*
X172433Y175734D01*
Y183022D01*
X173012Y183262D01*
X173617Y183727D01*
X173849Y183679D01*
X174217Y183494D01*
Y178320D01*
X174163Y178278D01*
X173656Y177618D01*
X173337Y176849D01*
X173229Y176024D01*
X173337Y175198D01*
X173656Y174429D01*
X174163Y173769D01*
X174823Y173262D01*
X175592Y172944D01*
X176417Y172835D01*
X177243Y172944D01*
X178012Y173262D01*
X178672Y173769D01*
X179179Y174429D01*
X179497Y175198D01*
X179606Y176024D01*
X179497Y176849D01*
X179179Y177618D01*
X178672Y178278D01*
X178657Y178290D01*
Y183462D01*
X178928Y183628D01*
X179257Y183711D01*
X179829Y183273D01*
X180595Y182955D01*
X181024Y182899D01*
Y186024D01*
X181417D01*
Y186417D01*
X184542D01*
X184486Y186846D01*
X184169Y187612D01*
X183664Y188270D01*
X183647Y188283D01*
X183851Y188883D01*
X203040D01*
X203258Y188283D01*
X202868Y187775D01*
X202550Y187006D01*
X202441Y186181D01*
X202550Y185356D01*
X202868Y184587D01*
X203375Y183926D01*
X204036Y183420D01*
X204805Y183101D01*
X205630Y182992D01*
X206455Y183101D01*
X207224Y183420D01*
X207885Y183926D01*
X208391Y184587D01*
X208710Y185356D01*
X208819Y186181D01*
X208710Y187006D01*
X208391Y187775D01*
X208002Y188283D01*
X208220Y188883D01*
X213040D01*
X213258Y188283D01*
X212868Y187775D01*
X212550Y187006D01*
X212441Y186181D01*
X212550Y185356D01*
X212868Y184587D01*
X213375Y183926D01*
X214036Y183420D01*
X214805Y183101D01*
X215630Y182992D01*
X216455Y183101D01*
X217224Y183420D01*
X217885Y183926D01*
X218391Y184587D01*
X218710Y185356D01*
X218819Y186181D01*
X218710Y187006D01*
X218391Y187775D01*
X218002Y188283D01*
X218220Y188883D01*
X223040D01*
X223258Y188283D01*
X222868Y187775D01*
X222550Y187006D01*
X222441Y186181D01*
X222550Y185356D01*
X222868Y184587D01*
X223375Y183926D01*
X224036Y183420D01*
X224805Y183101D01*
X225630Y182992D01*
X226455Y183101D01*
X227224Y183420D01*
X227810Y183869D01*
X228107Y183799D01*
X228410Y183625D01*
Y178463D01*
X228375Y178436D01*
X227868Y177775D01*
X227550Y177006D01*
X227441Y176181D01*
X227550Y175356D01*
X227868Y174587D01*
X228375Y173926D01*
X229036Y173420D01*
X229805Y173101D01*
X230630Y172992D01*
X231455Y173101D01*
X232224Y173420D01*
X232885Y173926D01*
X233391Y174587D01*
X233710Y175356D01*
X233819Y176181D01*
X233710Y177006D01*
X233391Y177775D01*
X232885Y178436D01*
X232850Y178463D01*
Y183645D01*
X233180Y183824D01*
X233450Y183884D01*
X234042Y183430D01*
X234808Y183113D01*
X235236Y183056D01*
Y186181D01*
X235630D01*
Y186575D01*
X238755D01*
X238699Y187003D01*
X238381Y187769D01*
X237987Y188283D01*
X238197Y188883D01*
X257075D01*
X257278Y188283D01*
X257273Y188278D01*
X256766Y187618D01*
X256448Y186849D01*
X256339Y186024D01*
X256448Y185198D01*
X256766Y184429D01*
X257273Y183769D01*
X257933Y183262D01*
X258702Y182944D01*
X259528Y182835D01*
X260353Y182944D01*
X261122Y183262D01*
X261782Y183769D01*
X262289Y184429D01*
X262608Y185198D01*
X262716Y186024D01*
X262608Y186849D01*
X262289Y187618D01*
X261782Y188278D01*
X261777Y188283D01*
X261981Y188883D01*
X267075D01*
X267278Y188283D01*
X267273Y188278D01*
X266766Y187618D01*
X266447Y186849D01*
X266339Y186024D01*
X266447Y185198D01*
X266766Y184429D01*
X267273Y183769D01*
X267933Y183262D01*
X268702Y182944D01*
X269528Y182835D01*
X270353Y182944D01*
X271122Y183262D01*
X271782Y183769D01*
X272289Y184429D01*
X272608Y185198D01*
X272716Y186024D01*
X272608Y186849D01*
X272289Y187618D01*
X271782Y188278D01*
X271777Y188283D01*
X271981Y188883D01*
X277075D01*
X277278Y188283D01*
X277273Y188278D01*
X276766Y187618D01*
X276448Y186849D01*
X276339Y186024D01*
X276448Y185198D01*
X276766Y184429D01*
X277273Y183769D01*
X277933Y183262D01*
X278702Y182944D01*
X279528Y182835D01*
X280353Y182944D01*
X281122Y183262D01*
X281782Y183769D01*
X282289Y184429D01*
X282608Y185198D01*
X282716Y186024D01*
X282608Y186849D01*
X282289Y187618D01*
X281782Y188278D01*
X281777Y188283D01*
X281980Y188883D01*
X287094D01*
X287298Y188283D01*
X287281Y188270D01*
X286776Y187612D01*
X286459Y186846D01*
X286403Y186417D01*
X292653D01*
X292596Y186846D01*
X292279Y187612D01*
X291774Y188270D01*
X291757Y188283D01*
X291961Y188883D01*
X294199D01*
X298134Y184947D01*
Y181662D01*
X297816Y181554D01*
X297534Y181503D01*
X296832Y182042D01*
X295967Y182401D01*
X295039Y182523D01*
X294111Y182401D01*
X293247Y182042D01*
X292504Y181473D01*
X291934Y180730D01*
X291576Y179865D01*
X291454Y178937D01*
X291498Y178599D01*
X290953Y178141D01*
X290436Y178243D01*
X286809D01*
X286782Y178278D01*
X286122Y178785D01*
X285353Y179104D01*
X284528Y179212D01*
X283702Y179104D01*
X282933Y178785D01*
X282273Y178278D01*
X281766Y177618D01*
X281448Y176849D01*
X281339Y176024D01*
X281345Y175980D01*
X262800Y157436D01*
X262319Y156716D01*
X262150Y155866D01*
Y143701D01*
Y113484D01*
Y104626D01*
X262319Y103777D01*
X262800Y103056D01*
X265497Y100360D01*
Y81747D01*
X252008D01*
X251158Y81578D01*
X250438Y81097D01*
X235203Y65861D01*
X226562D01*
X226241Y66461D01*
X226326Y66588D01*
X226464Y67283D01*
X226326Y67979D01*
X225932Y68569D01*
X225342Y68963D01*
X224646Y69102D01*
X224043Y68982D01*
X222149Y70876D01*
X221820Y71096D01*
X221431Y71173D01*
X221431Y71173D01*
X220738D01*
X219067Y72845D01*
Y74901D01*
X218989Y75290D01*
X218769Y75619D01*
X218161Y76227D01*
Y105886D01*
X218161Y105886D01*
Y106099D01*
X218084Y106488D01*
X217864Y106817D01*
X217864Y106817D01*
X212177Y112504D01*
Y113524D01*
X212177Y113524D01*
Y115284D01*
X213456Y116562D01*
X213774Y116499D01*
X214470Y116637D01*
X215060Y117031D01*
X215263Y117334D01*
X215987Y117458D01*
X247687Y85758D01*
X247687Y85758D01*
X248017Y85538D01*
X248406Y85461D01*
X248406Y85461D01*
X260817D01*
X260998Y85191D01*
X261588Y84796D01*
X262283Y84658D01*
X262979Y84796D01*
X263569Y85191D01*
X263963Y85781D01*
X264102Y86476D01*
X263963Y87172D01*
X263569Y87762D01*
X262979Y88156D01*
X262283Y88295D01*
X261588Y88156D01*
X260998Y87762D01*
X260817Y87492D01*
X248826D01*
X217197Y119122D01*
Y125171D01*
X217119Y125560D01*
X216899Y125890D01*
X198449Y144340D01*
X198119Y144560D01*
X197730Y144638D01*
X197730Y144638D01*
X177133D01*
X177080Y144691D01*
Y147504D01*
X177118Y147511D01*
X177708Y147905D01*
X178102Y148495D01*
X178241Y149191D01*
X178102Y149887D01*
X177708Y150477D01*
X177118Y150871D01*
X176422Y151010D01*
X175726Y150871D01*
X175137Y150477D01*
X174742Y149887D01*
X174604Y149191D01*
X174742Y148495D01*
X175049Y148036D01*
Y144685D01*
X174449Y144436D01*
X171375Y147511D01*
X171404Y147809D01*
X171798Y148399D01*
X171937Y149094D01*
X171798Y149790D01*
X171404Y150380D01*
X170814Y150775D01*
X170118Y150913D01*
X169422Y150775D01*
X168832Y150380D01*
X168438Y149790D01*
X168320Y149198D01*
X168006Y149023D01*
X167716Y148953D01*
X166988Y149681D01*
Y150839D01*
X167404Y151159D01*
X167816Y151696D01*
X168076Y152321D01*
X168164Y152992D01*
X168076Y153663D01*
X167816Y154289D01*
X167404Y154826D01*
X166867Y155238D01*
X166242Y155497D01*
X165571Y155585D01*
X164900Y155497D01*
X164274Y155238D01*
X163737Y154826D01*
X163325Y154289D01*
X163066Y153663D01*
X162978Y152992D01*
X163066Y152321D01*
X163325Y151696D01*
X163737Y151159D01*
X164154Y150839D01*
Y149094D01*
X164262Y148552D01*
X164569Y148092D01*
X175573Y137089D01*
X176032Y136781D01*
X176575Y136674D01*
X181287D01*
Y135717D01*
X181851D01*
Y135630D01*
X181959Y135088D01*
X182266Y134628D01*
X183859Y133035D01*
X183661Y132557D01*
Y130512D01*
X185236D01*
Y130874D01*
X185791Y131103D01*
X186799Y130095D01*
Y127744D01*
X187113D01*
X187159Y127513D01*
X187553Y126923D01*
X188143Y126529D01*
X188839Y126390D01*
X189534Y126529D01*
X190124Y126923D01*
X190519Y127513D01*
X190565Y127744D01*
X190760D01*
Y128701D01*
X194669D01*
X199370Y124000D01*
Y114972D01*
X198413D01*
Y111012D01*
X200764D01*
X201727Y110049D01*
X201478Y109449D01*
X201181D01*
Y107874D01*
X203227D01*
X203704Y108072D01*
X209036Y102740D01*
Y82398D01*
X208633Y81995D01*
X208071Y82282D01*
Y85925D01*
X203740D01*
X199409D01*
Y83352D01*
X198855Y83123D01*
X197160Y84818D01*
X196440Y85299D01*
X195590Y85468D01*
X172225D01*
X171375Y85299D01*
X170655Y84818D01*
X167722Y81885D01*
X167574Y81870D01*
X164250Y85195D01*
X163790Y85502D01*
X163248Y85610D01*
X146315D01*
X144638Y87287D01*
Y88929D01*
X145150Y89142D01*
X160259D01*
X160282Y89027D01*
X160502Y88697D01*
X161886Y87313D01*
X162216Y87093D01*
X162604Y87016D01*
X162604Y87016D01*
X193484D01*
X193484Y87016D01*
X193873Y87093D01*
X194202Y87313D01*
X194386Y87497D01*
X194705Y87434D01*
X195401Y87572D01*
X195991Y87966D01*
X196385Y88556D01*
X196523Y89252D01*
X196385Y89948D01*
X195991Y90538D01*
X195401Y90932D01*
X194705Y91070D01*
X194009Y90932D01*
X193419Y90538D01*
X193025Y89948D01*
X192886Y89252D01*
X192718Y89047D01*
X165550D01*
X165229Y89647D01*
X165263Y89698D01*
X165401Y90394D01*
X165263Y91090D01*
X164868Y91680D01*
X164851Y91691D01*
X165033Y92291D01*
X178276D01*
X178276Y92291D01*
X178664Y92369D01*
X178994Y92589D01*
X182969Y96564D01*
X183596Y96706D01*
X184186Y96312D01*
X184882Y96174D01*
X185578Y96312D01*
X186168Y96706D01*
X186562Y97296D01*
X186700Y97992D01*
X186562Y98688D01*
X186168Y99278D01*
X185578Y99672D01*
X184882Y99810D01*
X184826Y99799D01*
X184530Y100352D01*
X184995Y100817D01*
X186854Y102676D01*
X189662D01*
X189663Y102676D01*
X190051Y102754D01*
X190381Y102974D01*
X191683Y104276D01*
X191903Y104606D01*
X191980Y104994D01*
Y107392D01*
X192250Y107572D01*
X192645Y108162D01*
X192783Y108858D01*
X192645Y109554D01*
X192250Y110144D01*
X191660Y110538D01*
X191185Y110633D01*
X190898Y111146D01*
X190881Y111258D01*
X190899Y111285D01*
X190976Y111673D01*
Y115721D01*
X191610Y116355D01*
X191929Y116292D01*
X192625Y116430D01*
X193215Y116824D01*
X193609Y117414D01*
X193747Y118110D01*
X193609Y118806D01*
X193215Y119396D01*
X192625Y119790D01*
X191929Y119929D01*
X191233Y119790D01*
X190643Y119396D01*
X190249Y118806D01*
X190111Y118110D01*
X190174Y117791D01*
X189242Y116860D01*
X189022Y116530D01*
X188945Y116142D01*
X188945Y116142D01*
Y112094D01*
X175898Y99047D01*
X136809D01*
X136488Y99647D01*
X136522Y99698D01*
X136661Y100393D01*
X136645Y100471D01*
Y108425D01*
X136568Y108813D01*
X136348Y109143D01*
X136348Y109143D01*
X131111Y114380D01*
X130782Y114600D01*
X130393Y114677D01*
X130393Y114677D01*
X121955D01*
X121566Y114600D01*
X121237Y114380D01*
X120077Y113220D01*
X113966D01*
X113786Y113490D01*
X113196Y113885D01*
X112500Y114023D01*
X111804Y113885D01*
X111214Y113490D01*
X110820Y112901D01*
X110696Y112280D01*
X110442Y112128D01*
X110106Y112021D01*
X108403Y113725D01*
Y116651D01*
X109517Y117766D01*
X109803Y117709D01*
X110499Y117848D01*
X111089Y118242D01*
X111483Y118832D01*
X111621Y119528D01*
X111483Y120223D01*
X111089Y120813D01*
X110499Y121207D01*
X109803Y121346D01*
X109107Y121207D01*
X108517Y120813D01*
X108123Y120223D01*
X108086Y120039D01*
X107475D01*
X107438Y120223D01*
X107044Y120813D01*
X106454Y121207D01*
X105758Y121346D01*
X105062Y121207D01*
X104472Y120813D01*
X104078Y120223D01*
X104041Y120039D01*
X103429D01*
X103393Y120223D01*
X102998Y120813D01*
X102409Y121207D01*
X101713Y121346D01*
X101017Y121207D01*
X100427Y120813D01*
X100033Y120223D01*
X99894Y119528D01*
X100033Y118832D01*
X100427Y118242D01*
X101017Y117848D01*
X101713Y117709D01*
X102031Y117773D01*
X103222Y116582D01*
Y112000D01*
X103222Y112000D01*
X103299Y111611D01*
X103519Y111282D01*
X106248Y108553D01*
Y107018D01*
X105978Y106837D01*
X105584Y106247D01*
X105445Y105551D01*
X105584Y104855D01*
X105978Y104265D01*
X106306Y104046D01*
X106179Y103409D01*
X105899Y103353D01*
X105309Y102959D01*
X104914Y102369D01*
X104776Y101673D01*
X104914Y100977D01*
X105309Y100387D01*
X105899Y99993D01*
X106595Y99855D01*
X107290Y99993D01*
X107880Y100387D01*
X108274Y100977D01*
X108413Y101673D01*
X108350Y101992D01*
X108603Y102245D01*
X108631Y102251D01*
X108960Y102471D01*
X109738Y103248D01*
X110473Y103135D01*
X110483Y103121D01*
X111910Y101693D01*
X111902Y101654D01*
X112040Y100958D01*
X112435Y100368D01*
X113025Y99974D01*
X113084Y99962D01*
X113282Y99311D01*
X112625Y98653D01*
X93318D01*
X93200Y98813D01*
X93052Y99253D01*
X93363Y99719D01*
X93502Y100415D01*
X93878Y100874D01*
X97551D01*
Y104835D01*
X97551D01*
X97548Y105175D01*
X97574Y105425D01*
X98136Y105801D01*
X98530Y106391D01*
X98669Y107086D01*
X98530Y107782D01*
X98136Y108372D01*
X97551Y108763D01*
Y110346D01*
X92803D01*
Y106760D01*
X92520Y106527D01*
X92520Y106527D01*
X92463Y106527D01*
X91732D01*
Y107972D01*
X87008D01*
Y106527D01*
X86221D01*
X86221Y106527D01*
X85925Y106770D01*
Y107972D01*
X83563D01*
Y108366D01*
X83169D01*
Y110335D01*
X81634D01*
Y116500D01*
X83656D01*
X84121Y116593D01*
X84516Y116857D01*
X84909Y117250D01*
X84909Y117250D01*
X84909Y117250D01*
X88612Y120953D01*
X91055D01*
Y122800D01*
X92044Y123788D01*
X92126Y123772D01*
X92822Y123911D01*
X93412Y124305D01*
X93806Y124895D01*
X93944Y125591D01*
X93806Y126286D01*
X93543Y126680D01*
Y133059D01*
X95878D01*
Y141744D01*
X90431D01*
X83814Y148360D01*
Y165157D01*
Y184415D01*
X88360Y188961D01*
X94649D01*
X94823Y188658D01*
X94893Y188361D01*
X94443Y187775D01*
X94125Y187006D01*
X94016Y186181D01*
X94125Y185356D01*
X94443Y184587D01*
X94950Y183926D01*
X95610Y183420D01*
X96379Y183101D01*
X97205Y182992D01*
X98030Y183101D01*
X98799Y183420D01*
X99459Y183926D01*
X99966Y184587D01*
X100285Y185356D01*
X100393Y186181D01*
X100285Y187006D01*
X99966Y187775D01*
X99517Y188361D01*
X99586Y188658D01*
X99760Y188961D01*
X104649D01*
X104823Y188658D01*
X104893Y188361D01*
X104443Y187775D01*
X104125Y187006D01*
X104016Y186181D01*
X104125Y185356D01*
X104443Y184587D01*
X104950Y183926D01*
X105610Y183420D01*
X106379Y183101D01*
X107205Y182992D01*
X108030Y183101D01*
X108799Y183420D01*
X109459Y183926D01*
X109966Y184587D01*
X110285Y185356D01*
X110393Y186181D01*
X110285Y187006D01*
X109966Y187775D01*
X109517Y188361D01*
X109587Y188658D01*
X109760Y188961D01*
X114649D01*
X114823Y188658D01*
D02*
G37*
%LPC*%
G36*
X9685Y77244D02*
X8860Y77135D01*
X8091Y76817D01*
X7430Y76310D01*
X6924Y75649D01*
X6605Y74880D01*
X6496Y74055D01*
X6605Y73230D01*
X6924Y72461D01*
X7430Y71800D01*
X8091Y71294D01*
X8860Y70975D01*
X9685Y70866D01*
X10510Y70975D01*
X11279Y71294D01*
X11940Y71800D01*
X12447Y72461D01*
X12765Y73230D01*
X12874Y74055D01*
X12765Y74880D01*
X12447Y75649D01*
X11940Y76310D01*
X11279Y76817D01*
X10510Y77135D01*
X9685Y77244D01*
D02*
G37*
G36*
X55118Y98130D02*
X53543D01*
Y96161D01*
X55118D01*
Y98130D01*
D02*
G37*
G36*
X19685Y82244D02*
X18860Y82135D01*
X18091Y81817D01*
X17430Y81310D01*
X16924Y80650D01*
X16605Y79880D01*
X16496Y79055D01*
X16605Y78230D01*
X16924Y77461D01*
X17430Y76800D01*
X18091Y76294D01*
X18860Y75975D01*
X19685Y75866D01*
X20510Y75975D01*
X21279Y76294D01*
X21940Y76800D01*
X22446Y77461D01*
X22765Y78230D01*
X22874Y79055D01*
X22765Y79880D01*
X22446Y80650D01*
X21940Y81310D01*
X21279Y81817D01*
X20510Y82135D01*
X19685Y82244D01*
D02*
G37*
G36*
X314961Y66200D02*
X314034Y66016D01*
X313249Y65491D01*
X312724Y64706D01*
X312540Y63779D01*
X312724Y62853D01*
X313249Y62068D01*
X314034Y61543D01*
X314961Y61359D01*
X315887Y61543D01*
X316672Y62068D01*
X317197Y62853D01*
X317381Y63779D01*
X317197Y64706D01*
X316672Y65491D01*
X315887Y66016D01*
X314961Y66200D01*
D02*
G37*
G36*
X9685Y67244D02*
X8860Y67135D01*
X8091Y66817D01*
X7430Y66310D01*
X6924Y65649D01*
X6605Y64880D01*
X6496Y64055D01*
X6605Y63230D01*
X6924Y62461D01*
X7430Y61800D01*
X8091Y61294D01*
X8860Y60975D01*
X9685Y60866D01*
X10510Y60975D01*
X11279Y61294D01*
X11940Y61800D01*
X12447Y62461D01*
X12765Y63230D01*
X12874Y64055D01*
X12765Y64880D01*
X12447Y65649D01*
X11940Y66310D01*
X11279Y66817D01*
X10510Y67135D01*
X9685Y67244D01*
D02*
G37*
G36*
X261221Y63976D02*
X259055D01*
Y59055D01*
X261221D01*
Y63976D01*
D02*
G37*
G36*
X19685Y72244D02*
X18860Y72135D01*
X18091Y71817D01*
X17430Y71310D01*
X16924Y70649D01*
X16605Y69880D01*
X16496Y69055D01*
X16605Y68230D01*
X16924Y67461D01*
X17430Y66800D01*
X18091Y66294D01*
X18860Y65975D01*
X19685Y65866D01*
X20510Y65975D01*
X21279Y66294D01*
X21940Y66800D01*
X22446Y67461D01*
X22765Y68230D01*
X22874Y69055D01*
X22765Y69880D01*
X22446Y70649D01*
X21940Y71310D01*
X21279Y71817D01*
X20510Y72135D01*
X19685Y72244D01*
D02*
G37*
G36*
Y92244D02*
X18860Y92135D01*
X18091Y91817D01*
X17430Y91310D01*
X16924Y90649D01*
X16605Y89880D01*
X16496Y89055D01*
X16605Y88230D01*
X16924Y87461D01*
X17430Y86800D01*
X18091Y86294D01*
X18860Y85975D01*
X19685Y85866D01*
X20510Y85975D01*
X21279Y86294D01*
X21940Y86800D01*
X22446Y87461D01*
X22765Y88230D01*
X22874Y89055D01*
X22765Y89880D01*
X22446Y90649D01*
X21940Y91310D01*
X21279Y91817D01*
X20510Y92135D01*
X19685Y92244D01*
D02*
G37*
G36*
X55118Y95374D02*
X53543D01*
Y93405D01*
X55118D01*
Y95374D01*
D02*
G37*
G36*
X12810Y93661D02*
X10079D01*
Y90930D01*
X10507Y90987D01*
X11273Y91304D01*
X11931Y91809D01*
X12436Y92467D01*
X12754Y93233D01*
X12810Y93661D01*
D02*
G37*
G36*
X9291D02*
X6560D01*
X6617Y93233D01*
X6934Y92467D01*
X7439Y91809D01*
X8097Y91304D01*
X8863Y90987D01*
X9291Y90930D01*
Y93661D01*
D02*
G37*
G36*
Y97180D02*
X8863Y97124D01*
X8097Y96806D01*
X7439Y96301D01*
X6934Y95644D01*
X6617Y94877D01*
X6560Y94449D01*
X9291D01*
Y97180D01*
D02*
G37*
G36*
X10079D02*
Y94449D01*
X12810D01*
X12754Y94877D01*
X12436Y95644D01*
X11931Y96301D01*
X11273Y96806D01*
X10507Y97124D01*
X10079Y97180D01*
D02*
G37*
G36*
X57480Y95374D02*
X55905D01*
Y93405D01*
X57480D01*
Y95374D01*
D02*
G37*
G36*
X9685Y87244D02*
X8860Y87135D01*
X8091Y86817D01*
X7430Y86310D01*
X6924Y85650D01*
X6605Y84880D01*
X6496Y84055D01*
X6605Y83230D01*
X6924Y82461D01*
X7430Y81800D01*
X8091Y81294D01*
X8860Y80975D01*
X9685Y80866D01*
X10510Y80975D01*
X11279Y81294D01*
X11940Y81800D01*
X12447Y82461D01*
X12765Y83230D01*
X12874Y84055D01*
X12765Y84880D01*
X12447Y85650D01*
X11940Y86310D01*
X11279Y86817D01*
X10510Y87135D01*
X9685Y87244D01*
D02*
G37*
G36*
X297059Y36626D02*
X293492D01*
Y34624D01*
X293457Y34449D01*
Y28752D01*
X290736D01*
Y20067D01*
X295878D01*
Y24409D01*
X296561Y25092D01*
X296956Y25682D01*
X297094Y26378D01*
Y34449D01*
X297059Y34624D01*
Y36626D01*
D02*
G37*
G36*
X248440Y19449D02*
X245709D01*
Y16718D01*
X246137Y16774D01*
X246903Y17091D01*
X247561Y17596D01*
X248066Y18254D01*
X248383Y19020D01*
X248440Y19449D01*
D02*
G37*
G36*
X99331Y23031D02*
X98505Y22923D01*
X97736Y22604D01*
X97076Y22097D01*
X96569Y21437D01*
X96251Y20668D01*
X96142Y19842D01*
X96251Y19017D01*
X96569Y18248D01*
X97076Y17588D01*
X97736Y17081D01*
X98505Y16762D01*
X99331Y16654D01*
X100156Y16762D01*
X100925Y17081D01*
X101585Y17588D01*
X102092Y18248D01*
X102411Y19017D01*
X102519Y19842D01*
X102411Y20668D01*
X102092Y21437D01*
X101585Y22097D01*
X100925Y22604D01*
X100156Y22923D01*
X99331Y23031D01*
D02*
G37*
G36*
X304350Y47731D02*
X303679Y47642D01*
X303054Y47383D01*
X302517Y46971D01*
X302105Y46434D01*
X301846Y45809D01*
X301757Y45138D01*
X301846Y44467D01*
X302105Y43841D01*
X302517Y43304D01*
X302532Y43293D01*
Y25177D01*
X302547Y25100D01*
Y20067D01*
X307689D01*
Y28752D01*
X306169D01*
Y43293D01*
X306184Y43304D01*
X306596Y43841D01*
X306855Y44467D01*
X306943Y45138D01*
X306855Y45809D01*
X306596Y46434D01*
X306184Y46971D01*
X305647Y47383D01*
X305022Y47642D01*
X304350Y47731D01*
D02*
G37*
G36*
X314961Y48877D02*
X314034Y48693D01*
X313249Y48168D01*
X312724Y47383D01*
X312540Y46457D01*
X312724Y45530D01*
X313249Y44745D01*
X314034Y44220D01*
X314961Y44036D01*
X315887Y44220D01*
X316672Y44745D01*
X317197Y45530D01*
X317381Y46457D01*
X317197Y47383D01*
X316672Y48168D01*
X315887Y48693D01*
X314961Y48877D01*
D02*
G37*
G36*
X250492Y46457D02*
X246555D01*
Y42618D01*
X250492D01*
Y46457D01*
D02*
G37*
G36*
X279343Y63988D02*
X274201D01*
Y53335D01*
X279343D01*
Y56843D01*
X282711D01*
X284634Y54921D01*
Y53138D01*
X285583D01*
Y44291D01*
X285618Y44116D01*
Y42114D01*
X289185D01*
Y42473D01*
X293492D01*
Y42114D01*
X297059D01*
Y44116D01*
X297094Y44291D01*
X297059Y44467D01*
Y46468D01*
X293492D01*
Y46110D01*
X289220D01*
Y54724D01*
X289082Y55420D01*
X288687Y56010D01*
X288595Y56103D01*
Y57886D01*
X286812D01*
X284750Y59947D01*
X284160Y60341D01*
X283465Y60480D01*
X279343D01*
Y63988D01*
D02*
G37*
G36*
X83937Y12968D02*
X83508Y12911D01*
X82742Y12594D01*
X82084Y12089D01*
X81580Y11431D01*
X81262Y10665D01*
X81206Y10236D01*
X83937D01*
Y12968D01*
D02*
G37*
G36*
X19685Y62244D02*
X18860Y62135D01*
X18091Y61817D01*
X17430Y61310D01*
X16924Y60650D01*
X16605Y59880D01*
X16496Y59055D01*
X16605Y58230D01*
X16924Y57461D01*
X17430Y56800D01*
X17465Y56774D01*
Y30256D01*
X17634Y29406D01*
X18115Y28686D01*
X42840Y3962D01*
X43560Y3481D01*
X44409Y3312D01*
X47016D01*
X47050Y3286D01*
X47675Y3027D01*
X48346Y2939D01*
X49018Y3027D01*
X49643Y3286D01*
X50180Y3698D01*
X50592Y4235D01*
X50851Y4860D01*
X50940Y5531D01*
X50851Y6203D01*
X50592Y6828D01*
X50180Y7365D01*
X49643Y7777D01*
X49018Y8036D01*
X48346Y8124D01*
X47675Y8036D01*
X47050Y7777D01*
X47016Y7751D01*
X45329D01*
X21905Y31175D01*
Y56774D01*
X21940Y56800D01*
X22446Y57461D01*
X22765Y58230D01*
X22874Y59055D01*
X22765Y59880D01*
X22446Y60650D01*
X21940Y61310D01*
X21279Y61817D01*
X20510Y62135D01*
X19685Y62244D01*
D02*
G37*
G36*
X78819Y20515D02*
X77891Y20393D01*
X77026Y20034D01*
X76283Y19465D01*
X75713Y18722D01*
X75355Y17857D01*
X75233Y16929D01*
X75355Y16001D01*
X75713Y15136D01*
X76283Y14394D01*
X77026Y13824D01*
X77891Y13465D01*
X78819Y13343D01*
X79747Y13465D01*
X80612Y13824D01*
X81354Y14394D01*
X81924Y15136D01*
X82283Y16001D01*
X82405Y16929D01*
X82283Y17857D01*
X81924Y18722D01*
X81354Y19465D01*
X80612Y20034D01*
X79747Y20393D01*
X78819Y20515D01*
D02*
G37*
G36*
X85079Y56275D02*
X84650Y56218D01*
X83884Y55901D01*
X83226Y55396D01*
X82721Y54738D01*
X82404Y53972D01*
X82348Y53543D01*
X85079D01*
Y56275D01*
D02*
G37*
G36*
X261221Y58268D02*
X259055D01*
Y53347D01*
X261221D01*
Y58268D01*
D02*
G37*
G36*
X258268D02*
X256102D01*
Y53347D01*
X258268D01*
Y58268D01*
D02*
G37*
G36*
X85866Y56274D02*
Y53543D01*
X88597D01*
X88541Y53972D01*
X88224Y54738D01*
X87719Y55396D01*
X87061Y55901D01*
X86295Y56218D01*
X85866Y56274D01*
D02*
G37*
G36*
X258268Y63976D02*
X256102D01*
Y59055D01*
X258268D01*
Y63976D01*
D02*
G37*
G36*
X294094Y57874D02*
X292520D01*
Y55905D01*
X294094D01*
Y57874D01*
D02*
G37*
G36*
X291732D02*
X290158D01*
Y55905D01*
X291732D01*
Y57874D01*
D02*
G37*
G36*
X12598Y57129D02*
X11670Y57007D01*
X10806Y56649D01*
X10063Y56079D01*
X9493Y55336D01*
X9135Y54471D01*
X9013Y53543D01*
X9135Y52615D01*
X9493Y51750D01*
X10063Y51008D01*
X10806Y50438D01*
X11670Y50080D01*
X12598Y49957D01*
X13526Y50080D01*
X14391Y50438D01*
X15134Y51008D01*
X15704Y51750D01*
X16062Y52615D01*
X16184Y53543D01*
X16062Y54471D01*
X15704Y55336D01*
X15134Y56079D01*
X14391Y56649D01*
X13526Y57007D01*
X12598Y57129D01*
D02*
G37*
G36*
X250492Y51083D02*
X246555D01*
Y47244D01*
X250492D01*
Y51083D01*
D02*
G37*
G36*
X245768D02*
X241831D01*
Y47244D01*
X245768D01*
Y51083D01*
D02*
G37*
G36*
X85079Y52756D02*
X82348D01*
X82404Y52327D01*
X82721Y51561D01*
X83226Y50903D01*
X83884Y50398D01*
X84650Y50081D01*
X85079Y50025D01*
Y52756D01*
D02*
G37*
G36*
X294094Y55118D02*
X292520D01*
Y53150D01*
X294094D01*
Y55118D01*
D02*
G37*
G36*
X291732D02*
X290158D01*
Y53150D01*
X291732D01*
Y55118D01*
D02*
G37*
G36*
X88597Y52756D02*
X85866D01*
Y50025D01*
X86295Y50081D01*
X87061Y50398D01*
X87719Y50903D01*
X88224Y51561D01*
X88541Y52327D01*
X88597Y52756D01*
D02*
G37*
G36*
X57480Y98130D02*
X55905D01*
Y96161D01*
X57480D01*
Y98130D01*
D02*
G37*
G36*
X42520Y147244D02*
X40945D01*
Y145276D01*
X42520D01*
Y147244D01*
D02*
G37*
G36*
X40157D02*
X38583D01*
Y145276D01*
X40157D01*
Y147244D01*
D02*
G37*
G36*
Y150000D02*
X38583D01*
Y148031D01*
X40157D01*
Y150000D01*
D02*
G37*
G36*
X42520D02*
X40945D01*
Y148031D01*
X42520D01*
Y150000D01*
D02*
G37*
G36*
X9685Y144173D02*
X8860Y144064D01*
X8091Y143746D01*
X7430Y143239D01*
X6924Y142579D01*
X6605Y141809D01*
X6496Y140984D01*
X6605Y140159D01*
X6924Y139390D01*
X7430Y138730D01*
X8091Y138223D01*
X8860Y137904D01*
X9685Y137796D01*
X10510Y137904D01*
X11279Y138223D01*
X11940Y138730D01*
X12447Y139390D01*
X12765Y140159D01*
X12874Y140984D01*
X12765Y141809D01*
X12447Y142579D01*
X11940Y143239D01*
X11279Y143746D01*
X10510Y144064D01*
X9685Y144173D01*
D02*
G37*
G36*
X57087Y110433D02*
X53248D01*
Y106496D01*
X57087D01*
Y110433D01*
D02*
G37*
G36*
X52461D02*
X48622D01*
Y106496D01*
X52461D01*
Y110433D01*
D02*
G37*
G36*
X12598Y124058D02*
X11670Y123936D01*
X10806Y123578D01*
X10063Y123008D01*
X9493Y122265D01*
X9135Y121400D01*
X9013Y120472D01*
X9135Y119544D01*
X9493Y118679D01*
X10063Y117937D01*
X10806Y117367D01*
X11670Y117009D01*
X12598Y116887D01*
X13526Y117009D01*
X14391Y117367D01*
X15134Y117937D01*
X15704Y118679D01*
X16062Y119544D01*
X16184Y120472D01*
X16062Y121400D01*
X15704Y122265D01*
X15134Y123008D01*
X14391Y123578D01*
X13526Y123936D01*
X12598Y124058D01*
D02*
G37*
G36*
X57087Y105709D02*
X53248D01*
Y101772D01*
X57087D01*
Y105709D01*
D02*
G37*
G36*
X52461D02*
X48622D01*
Y101772D01*
X52461D01*
Y105709D01*
D02*
G37*
G36*
X42520Y126378D02*
X40945D01*
Y124409D01*
X42520D01*
Y126378D01*
D02*
G37*
G36*
X9685Y134173D02*
X8860Y134064D01*
X8091Y133746D01*
X7430Y133239D01*
X6924Y132579D01*
X6605Y131809D01*
X6496Y130984D01*
X6605Y130159D01*
X6924Y129390D01*
X7430Y128729D01*
X8091Y128223D01*
X8860Y127904D01*
X9685Y127796D01*
X10510Y127904D01*
X11279Y128223D01*
X11940Y128729D01*
X12447Y129390D01*
X12765Y130159D01*
X12874Y130984D01*
X12765Y131809D01*
X12447Y132579D01*
X11940Y133239D01*
X11279Y133746D01*
X10510Y134064D01*
X9685Y134173D01*
D02*
G37*
G36*
X19685Y139173D02*
X18860Y139064D01*
X18091Y138746D01*
X17430Y138239D01*
X16924Y137579D01*
X16605Y136810D01*
X16496Y135984D01*
X16605Y135159D01*
X16924Y134390D01*
X17430Y133730D01*
X18091Y133223D01*
X18860Y132904D01*
X19685Y132796D01*
X20510Y132904D01*
X21279Y133223D01*
X21940Y133730D01*
X22446Y134390D01*
X22765Y135159D01*
X22874Y135984D01*
X22765Y136810D01*
X22446Y137579D01*
X21940Y138239D01*
X21279Y138746D01*
X20510Y139064D01*
X19685Y139173D01*
D02*
G37*
G36*
X42520Y123622D02*
X40945D01*
Y121654D01*
X42520D01*
Y123622D01*
D02*
G37*
G36*
X40157D02*
X38583D01*
Y121654D01*
X40157D01*
Y123622D01*
D02*
G37*
G36*
X83169Y122933D02*
X81595D01*
Y120965D01*
X83169D01*
Y122933D01*
D02*
G37*
G36*
X19685Y129173D02*
X18860Y129064D01*
X18091Y128746D01*
X17430Y128239D01*
X16924Y127579D01*
X16605Y126810D01*
X16496Y125984D01*
X16605Y125159D01*
X16924Y124390D01*
X17430Y123730D01*
X18091Y123223D01*
X18860Y122904D01*
X19685Y122796D01*
X20510Y122904D01*
X21279Y123223D01*
X21940Y123730D01*
X22446Y124390D01*
X22765Y125159D01*
X22874Y125984D01*
X22765Y126810D01*
X22446Y127579D01*
X21940Y128239D01*
X21279Y128746D01*
X20510Y129064D01*
X19685Y129173D01*
D02*
G37*
G36*
X40157Y126378D02*
X38583D01*
Y124409D01*
X40157D01*
Y126378D01*
D02*
G37*
G36*
X85532Y125689D02*
X83957D01*
Y123721D01*
X85532D01*
Y125689D01*
D02*
G37*
G36*
X83169D02*
X81595D01*
Y123721D01*
X83169D01*
Y125689D01*
D02*
G37*
G36*
X167717Y74016D02*
X166142D01*
Y72047D01*
X167717D01*
Y74016D01*
D02*
G37*
G36*
X170079D02*
X168504D01*
Y72047D01*
X170079D01*
Y74016D01*
D02*
G37*
G36*
Y71260D02*
X168504D01*
Y69291D01*
X170079D01*
Y71260D01*
D02*
G37*
G36*
X167717D02*
X166142D01*
Y69291D01*
X167717D01*
Y71260D01*
D02*
G37*
G36*
X141870Y81043D02*
X139902D01*
Y79469D01*
X141870D01*
Y81043D01*
D02*
G37*
G36*
X144626D02*
X142657D01*
Y79469D01*
X144626D01*
Y81043D01*
D02*
G37*
G36*
X141870Y83406D02*
X139902D01*
Y81831D01*
X141870D01*
Y83406D01*
D02*
G37*
G36*
X184488Y12968D02*
X184060Y12911D01*
X183293Y12594D01*
X182635Y12089D01*
X182131Y11431D01*
X181813Y10665D01*
X181757Y10236D01*
X184488D01*
Y12968D01*
D02*
G37*
G36*
X179370Y20515D02*
X178442Y20393D01*
X177577Y20034D01*
X176834Y19465D01*
X176265Y18722D01*
X175906Y17857D01*
X175784Y16929D01*
X175906Y16001D01*
X176265Y15136D01*
X176834Y14394D01*
X177577Y13824D01*
X178442Y13465D01*
X179370Y13343D01*
X180298Y13465D01*
X181163Y13824D01*
X181905Y14394D01*
X182475Y15136D01*
X182834Y16001D01*
X182956Y16929D01*
X182834Y17857D01*
X182475Y18722D01*
X181905Y19465D01*
X181163Y20034D01*
X180298Y20393D01*
X179370Y20515D01*
D02*
G37*
G36*
X129370Y12968D02*
X128942Y12911D01*
X128175Y12594D01*
X127517Y12089D01*
X127013Y11431D01*
X126695Y10665D01*
X126639Y10236D01*
X129370D01*
Y12968D01*
D02*
G37*
G36*
X124252Y20515D02*
X123324Y20393D01*
X122459Y20034D01*
X121716Y19465D01*
X121147Y18722D01*
X120788Y17857D01*
X120666Y16929D01*
X120788Y16001D01*
X121147Y15136D01*
X121716Y14394D01*
X122459Y13824D01*
X123324Y13465D01*
X124252Y13343D01*
X125180Y13465D01*
X126045Y13824D01*
X126787Y14394D01*
X127357Y15136D01*
X127716Y16001D01*
X127838Y16929D01*
X127716Y17857D01*
X127357Y18722D01*
X126787Y19465D01*
X126045Y20034D01*
X125180Y20393D01*
X124252Y20515D01*
D02*
G37*
G36*
X77165Y103839D02*
X75590D01*
Y101870D01*
X77165D01*
Y103839D01*
D02*
G37*
G36*
X79527D02*
X77953D01*
Y101870D01*
X79527D01*
Y103839D01*
D02*
G37*
G36*
X77165Y107776D02*
X75590D01*
Y105807D01*
X77165D01*
Y107776D01*
D02*
G37*
G36*
X208071Y90551D02*
X204134D01*
Y86713D01*
X208071D01*
Y90551D01*
D02*
G37*
G36*
X203346D02*
X199409D01*
Y86713D01*
X203346D01*
Y90551D01*
D02*
G37*
G36*
X147835Y140669D02*
X146260D01*
Y138701D01*
X147835D01*
Y140669D01*
D02*
G37*
G36*
X254528Y179212D02*
X253702Y179104D01*
X252933Y178785D01*
X252273Y178278D01*
X251766Y177618D01*
X251448Y176849D01*
X251339Y176024D01*
X251448Y175198D01*
X251766Y174429D01*
X252273Y173769D01*
X252933Y173262D01*
X253702Y172944D01*
X254528Y172835D01*
X255353Y172944D01*
X256122Y173262D01*
X256782Y173769D01*
X257289Y174429D01*
X257608Y175198D01*
X257716Y176024D01*
X257608Y176849D01*
X257289Y177618D01*
X256782Y178278D01*
X256122Y178785D01*
X255353Y179104D01*
X254528Y179212D01*
D02*
G37*
G36*
X102205Y179370D02*
X101379Y179261D01*
X100610Y178943D01*
X99950Y178436D01*
X99443Y177775D01*
X99125Y177006D01*
X99016Y176181D01*
X99125Y175356D01*
X99443Y174587D01*
X99950Y173926D01*
X100610Y173420D01*
X101379Y173101D01*
X102205Y172992D01*
X103030Y173101D01*
X103609Y173341D01*
X118599Y158350D01*
X118536Y158031D01*
X118674Y157336D01*
X119069Y156746D01*
X119659Y156351D01*
X120354Y156213D01*
X121050Y156351D01*
X121640Y156746D01*
X122034Y157336D01*
X122173Y158031D01*
X122034Y158727D01*
X121640Y159317D01*
X121050Y159712D01*
X120354Y159850D01*
X120036Y159786D01*
X105045Y174777D01*
X105285Y175356D01*
X105393Y176181D01*
X105285Y177006D01*
X104966Y177775D01*
X104460Y178436D01*
X103799Y178943D01*
X103030Y179261D01*
X102205Y179370D01*
D02*
G37*
G36*
X147835Y137913D02*
X146260D01*
Y135945D01*
X147835D01*
Y137913D01*
D02*
G37*
G36*
X145473D02*
X143898D01*
Y135945D01*
X145473D01*
Y137913D01*
D02*
G37*
G36*
X107087Y137008D02*
X103248D01*
Y133071D01*
X107087D01*
Y137008D01*
D02*
G37*
G36*
X102461Y141732D02*
X98622D01*
Y137795D01*
X102461D01*
Y141732D01*
D02*
G37*
G36*
X145473Y140669D02*
X143898D01*
Y138701D01*
X145473D01*
Y140669D01*
D02*
G37*
G36*
X107087Y141732D02*
X103248D01*
Y137795D01*
X107087D01*
Y141732D01*
D02*
G37*
G36*
X184542Y185630D02*
X181811D01*
Y182899D01*
X182239Y182955D01*
X183006Y183273D01*
X183664Y183777D01*
X184169Y184435D01*
X184486Y185201D01*
X184542Y185630D01*
D02*
G37*
G36*
X241142Y182680D02*
X240214Y182558D01*
X239349Y182200D01*
X238606Y181630D01*
X238036Y180887D01*
X237678Y180023D01*
X237556Y179095D01*
X237678Y178166D01*
X238036Y177302D01*
X238606Y176559D01*
X239349Y175989D01*
X240214Y175631D01*
X241142Y175509D01*
X242070Y175631D01*
X242935Y175989D01*
X243677Y176559D01*
X244247Y177302D01*
X244605Y178166D01*
X244727Y179095D01*
X244605Y180023D01*
X244247Y180887D01*
X243677Y181630D01*
X242935Y182200D01*
X242070Y182558D01*
X241142Y182680D01*
D02*
G37*
G36*
X132717D02*
X131789Y182558D01*
X130924Y182200D01*
X130181Y181630D01*
X129611Y180887D01*
X129253Y180023D01*
X129131Y179095D01*
X129253Y178166D01*
X129611Y177302D01*
X130181Y176559D01*
X130924Y175989D01*
X131789Y175631D01*
X132717Y175509D01*
X133645Y175631D01*
X134509Y175989D01*
X135252Y176559D01*
X135822Y177302D01*
X136180Y178166D01*
X136302Y179095D01*
X136180Y180023D01*
X135822Y180887D01*
X135252Y181630D01*
X134509Y182200D01*
X133645Y182558D01*
X132717Y182680D01*
D02*
G37*
G36*
X289134Y185630D02*
X286403D01*
X286459Y185201D01*
X286776Y184435D01*
X287281Y183777D01*
X287939Y183273D01*
X288705Y182955D01*
X289134Y182899D01*
Y185630D01*
D02*
G37*
G36*
X238755Y185787D02*
X236024D01*
Y183056D01*
X236452Y183113D01*
X237218Y183430D01*
X237876Y183935D01*
X238381Y184593D01*
X238699Y185359D01*
X238755Y185787D01*
D02*
G37*
G36*
X130330D02*
X127598D01*
Y183056D01*
X128027Y183113D01*
X128793Y183430D01*
X129451Y183935D01*
X129956Y184593D01*
X130273Y185359D01*
X130330Y185787D01*
D02*
G37*
G36*
X292653Y185630D02*
X289921D01*
Y182899D01*
X290350Y182955D01*
X291116Y183273D01*
X291774Y183777D01*
X292279Y184435D01*
X292596Y185201D01*
X292653Y185630D01*
D02*
G37*
G36*
X92205Y179370D02*
X91379Y179261D01*
X90610Y178943D01*
X89950Y178436D01*
X89443Y177775D01*
X89125Y177006D01*
X89016Y176181D01*
X89125Y175356D01*
X89443Y174587D01*
X89950Y173926D01*
X90610Y173420D01*
X91379Y173101D01*
X92205Y172992D01*
X93030Y173101D01*
X93799Y173420D01*
X94459Y173926D01*
X94966Y174587D01*
X95285Y175356D01*
X95393Y176181D01*
X95285Y177006D01*
X94966Y177775D01*
X94459Y178436D01*
X93799Y178943D01*
X93030Y179261D01*
X92205Y179370D01*
D02*
G37*
G36*
X274528Y179212D02*
X273702Y179104D01*
X272933Y178785D01*
X272273Y178278D01*
X271766Y177618D01*
X271447Y176849D01*
X271339Y176024D01*
X271447Y175198D01*
X271766Y174429D01*
X272273Y173769D01*
X272933Y173262D01*
X273702Y172944D01*
X274528Y172835D01*
X275353Y172944D01*
X276122Y173262D01*
X276782Y173769D01*
X277289Y174429D01*
X277608Y175198D01*
X277716Y176024D01*
X277608Y176849D01*
X277289Y177618D01*
X276782Y178278D01*
X276122Y178785D01*
X275353Y179104D01*
X274528Y179212D01*
D02*
G37*
G36*
X210630Y179370D02*
X209805Y179261D01*
X209036Y178943D01*
X208375Y178436D01*
X207868Y177775D01*
X207550Y177006D01*
X207441Y176181D01*
X207550Y175356D01*
X207790Y174777D01*
X204934Y171921D01*
X191466D01*
X191286Y172191D01*
X190696Y172585D01*
X190000Y172724D01*
X189304Y172585D01*
X188714Y172191D01*
X188320Y171601D01*
X188182Y170905D01*
X188320Y170210D01*
X188714Y169620D01*
X188856Y169525D01*
X188730Y168888D01*
X188714Y168885D01*
X188124Y168491D01*
X187730Y167901D01*
X187591Y167205D01*
X187730Y166509D01*
X188124Y165919D01*
X188714Y165525D01*
X189409Y165386D01*
X190105Y165525D01*
X190695Y165919D01*
X191089Y166509D01*
X191228Y167205D01*
X191203Y167331D01*
X191714Y167843D01*
X205534D01*
X205534Y167843D01*
X205923Y167920D01*
X206252Y168140D01*
X207195Y169083D01*
X258602D01*
X258602Y169083D01*
X258991Y169160D01*
X259320Y169380D01*
X263123Y173183D01*
X263702Y172944D01*
X264528Y172835D01*
X265353Y172944D01*
X266122Y173262D01*
X266782Y173769D01*
X267289Y174429D01*
X267608Y175198D01*
X267716Y176024D01*
X267608Y176849D01*
X267289Y177618D01*
X266782Y178278D01*
X266122Y178785D01*
X265353Y179104D01*
X264528Y179212D01*
X263702Y179104D01*
X262933Y178785D01*
X262273Y178278D01*
X261766Y177618D01*
X261448Y176849D01*
X261339Y176024D01*
X261448Y175198D01*
X261687Y174620D01*
X258182Y171114D01*
X207783D01*
X207553Y171668D01*
X209226Y173341D01*
X209805Y173101D01*
X210630Y172992D01*
X211455Y173101D01*
X212224Y173420D01*
X212885Y173926D01*
X213391Y174587D01*
X213710Y175356D01*
X213819Y176181D01*
X213710Y177006D01*
X213391Y177775D01*
X212885Y178436D01*
X212224Y178943D01*
X211455Y179261D01*
X210630Y179370D01*
D02*
G37*
G36*
X112205D02*
X111379Y179261D01*
X110610Y178943D01*
X109950Y178436D01*
X109443Y177775D01*
X109125Y177006D01*
X109016Y176181D01*
X109125Y175356D01*
X109443Y174587D01*
X109950Y173926D01*
X110610Y173420D01*
X111379Y173101D01*
X112205Y172992D01*
X113030Y173101D01*
X113799Y173420D01*
X114460Y173926D01*
X114966Y174587D01*
X115285Y175356D01*
X115393Y176181D01*
X115285Y177006D01*
X114966Y177775D01*
X114460Y178436D01*
X113799Y178943D01*
X113030Y179261D01*
X112205Y179370D01*
D02*
G37*
G36*
X186929Y182523D02*
X186001Y182401D01*
X185136Y182042D01*
X184394Y181473D01*
X183824Y180730D01*
X183466Y179865D01*
X183343Y178937D01*
X183466Y178009D01*
X183824Y177144D01*
X184394Y176401D01*
X185136Y175832D01*
X186001Y175473D01*
X186929Y175351D01*
X187857Y175473D01*
X188722Y175832D01*
X189465Y176401D01*
X190034Y177144D01*
X190393Y178009D01*
X190515Y178937D01*
X190393Y179865D01*
X190034Y180730D01*
X189465Y181473D01*
X188722Y182042D01*
X187857Y182401D01*
X186929Y182523D01*
D02*
G37*
G36*
X220630Y179370D02*
X219805Y179261D01*
X219036Y178943D01*
X218375Y178436D01*
X217868Y177775D01*
X217550Y177006D01*
X217441Y176181D01*
X217550Y175356D01*
X217868Y174587D01*
X218375Y173926D01*
X219036Y173420D01*
X219805Y173101D01*
X220630Y172992D01*
X221455Y173101D01*
X222224Y173420D01*
X222885Y173926D01*
X223391Y174587D01*
X223710Y175356D01*
X223819Y176181D01*
X223710Y177006D01*
X223391Y177775D01*
X222885Y178436D01*
X222224Y178943D01*
X221455Y179261D01*
X220630Y179370D01*
D02*
G37*
G36*
X200630D02*
X199805Y179261D01*
X199036Y178943D01*
X198375Y178436D01*
X197868Y177775D01*
X197550Y177006D01*
X197441Y176181D01*
X197550Y175356D01*
X197868Y174587D01*
X198375Y173926D01*
X199036Y173420D01*
X199805Y173101D01*
X200630Y172992D01*
X201455Y173101D01*
X202224Y173420D01*
X202885Y173926D01*
X203391Y174587D01*
X203710Y175356D01*
X203819Y176181D01*
X203710Y177006D01*
X203391Y177775D01*
X202885Y178436D01*
X202224Y178943D01*
X201455Y179261D01*
X200630Y179370D01*
D02*
G37*
G36*
X200394Y109449D02*
X198425D01*
Y107874D01*
X200394D01*
Y109449D01*
D02*
G37*
G36*
X85925Y110335D02*
X83957D01*
Y108760D01*
X85925D01*
Y110335D01*
D02*
G37*
G36*
X91732D02*
X89764D01*
Y108760D01*
X91732D01*
Y110335D01*
D02*
G37*
G36*
X88976D02*
X87008D01*
Y108760D01*
X88976D01*
Y110335D01*
D02*
G37*
G36*
X203150Y107087D02*
X201181D01*
Y105512D01*
X203150D01*
Y107087D01*
D02*
G37*
G36*
X200394D02*
X198425D01*
Y105512D01*
X200394D01*
Y107087D01*
D02*
G37*
G36*
X185236Y129725D02*
X183661D01*
Y127756D01*
X185236D01*
Y129725D01*
D02*
G37*
G36*
X182874D02*
X181299D01*
Y127756D01*
X182874D01*
Y129725D01*
D02*
G37*
G36*
X102461Y137008D02*
X98622D01*
Y133071D01*
X102461D01*
Y137008D01*
D02*
G37*
G36*
X182874Y132480D02*
X181299D01*
Y130512D01*
X182874D01*
Y132480D01*
D02*
G37*
%LPD*%
D18*
X83563Y123327D02*
D03*
X89075D02*
D03*
X77559Y108169D02*
D03*
X72047D02*
D03*
Y101476D02*
D03*
X77559D02*
D03*
Y114173D02*
D03*
X72047D02*
D03*
X40551Y124016D02*
D03*
X35039D02*
D03*
Y147638D02*
D03*
X40551D02*
D03*
X151378Y138307D02*
D03*
X145866D02*
D03*
X168110Y71653D02*
D03*
X162598D02*
D03*
X188779Y138091D02*
D03*
X183268D02*
D03*
X188779Y130118D02*
D03*
X183268D02*
D03*
X61024Y95768D02*
D03*
X55512D02*
D03*
X292126Y55512D02*
D03*
X286614D02*
D03*
D19*
X268898Y138287D02*
D03*
Y143799D02*
D03*
X289764Y137992D02*
D03*
Y143504D02*
D03*
X289862Y113583D02*
D03*
Y108071D02*
D03*
X269390Y113583D02*
D03*
Y108071D02*
D03*
X95177Y102854D02*
D03*
Y108366D02*
D03*
X83563D02*
D03*
Y102854D02*
D03*
X89370D02*
D03*
Y108366D02*
D03*
X142264Y86949D02*
D03*
Y81437D02*
D03*
X200787Y112992D02*
D03*
Y107480D02*
D03*
D29*
X115654Y91338D02*
X125694Y101378D01*
X94291Y91338D02*
X115654D01*
X125694Y101378D02*
X130905D01*
X89370Y102756D02*
X91683Y100443D01*
X89075Y103051D02*
X89370Y102756D01*
X77559Y108169D02*
Y114173D01*
X132834Y107283D02*
X132874D01*
X134842Y100393D02*
X135038D01*
X96849Y107086D02*
X96850D01*
X96653Y107283D02*
X96849Y107086D01*
X135038Y100393D02*
X135038Y100394D01*
X134940Y100295D02*
X135236Y99999D01*
X91683Y100415D02*
Y100443D01*
X92520Y105512D02*
X95177Y102854D01*
X86221Y105512D02*
X92520D01*
X83563Y102854D02*
X86221Y105512D01*
X89370Y102756D02*
Y102854D01*
X89075Y123327D02*
X89862D01*
X95177Y108366D02*
X96457Y107086D01*
X171417Y175734D02*
Y186024D01*
X161417Y175734D02*
Y186024D01*
X159653Y169260D02*
X166417Y176024D01*
X161228Y168607D02*
X164904Y172283D01*
X167966D01*
X171417Y175734D01*
X156161Y124370D02*
Y124370D01*
X151417Y175734D02*
X154868Y172283D01*
X151417Y175734D02*
Y186024D01*
X160244Y124618D02*
X160441Y124815D01*
Y126772D01*
X162016Y126567D02*
Y127424D01*
X102205Y176043D02*
Y176181D01*
X107264Y105551D02*
Y108974D01*
X106595Y101673D02*
X108110Y103189D01*
X108242D01*
X111201Y103839D02*
X113386Y101654D01*
X104237Y112000D02*
Y117003D01*
X101713Y119528D02*
X104237Y117003D01*
X105812Y112652D02*
X109626Y108838D01*
X104237Y112000D02*
X107264Y108974D01*
X107387Y113304D02*
X111201Y109491D01*
X107387Y113304D02*
Y117072D01*
X259238Y186024D02*
X259528D01*
X158079Y172396D02*
X161417Y175734D01*
X146417Y176024D02*
X148839D01*
X154868Y172283D02*
X155079D01*
X269238Y186024D02*
X269528D01*
X279238D02*
X279528D01*
X258602Y170098D02*
X264528Y176024D01*
X206774Y170098D02*
X258602D01*
X205534Y168858D02*
X206774Y170098D01*
X207087Y78445D02*
Y78875D01*
X203480Y110531D02*
X203575Y110626D01*
X203366Y110531D02*
X203480D01*
X191293Y168858D02*
X205534D01*
X189409Y167205D02*
X189640D01*
X191293Y168858D01*
X205354Y170905D02*
X210630Y176181D01*
X190000Y170905D02*
X205354D01*
X120354Y158031D02*
Y158031D01*
X102205Y176181D02*
X120354Y158031D01*
X91535Y88583D02*
X94291Y91338D01*
X177623Y94882D02*
X183335Y100593D01*
X178276Y93307D02*
X182961Y97992D01*
X184882D01*
X186892Y106378D02*
X188169D01*
X176971Y96456D02*
X186892Y106378D01*
X190965Y104994D02*
Y108858D01*
X189663Y103692D02*
X190965Y104994D01*
X183335Y100593D02*
X184277Y101535D01*
X186434Y103692D01*
X189663D01*
X162598Y71653D02*
Y77795D01*
X199882Y26516D02*
X212461Y39094D01*
X199882Y19842D02*
Y26516D01*
X203622Y18293D02*
Y25295D01*
X195171Y9843D02*
X203622Y18293D01*
X194882Y9843D02*
X195171D01*
X214685Y70039D02*
X214902Y69823D01*
Y70256D02*
Y73597D01*
X216476Y71772D02*
X220453Y67795D01*
X216476Y71772D02*
Y74249D01*
X208799Y125892D02*
Y127848D01*
X208098Y128550D02*
Y128550D01*
X208780Y129232D01*
X208012Y125104D02*
X208799Y125892D01*
X206437Y110126D02*
Y126870D01*
X208012Y110779D02*
Y125104D01*
X215571Y104410D02*
Y105447D01*
X209587Y118602D02*
X210728Y119744D01*
X209587Y118602D02*
X209587Y118602D01*
X209587Y111431D02*
Y118602D01*
X211161Y115704D02*
X211161Y115704D01*
X213774Y118317D01*
X211161Y113524D02*
X211161Y113524D01*
X211161Y113524D02*
Y115704D01*
X206437Y110126D02*
X212421Y104142D01*
X208012Y110779D02*
X213996Y104794D01*
X209587Y111431D02*
X215571Y105447D01*
X211161Y112083D02*
Y113524D01*
Y112083D02*
X217146Y106099D01*
Y105886D02*
Y106099D01*
X217146Y75807D02*
X218051Y74901D01*
X215571Y75154D02*
X216476Y74249D01*
X213996Y74502D02*
X214902Y73597D01*
X212421Y72736D02*
X212539Y72618D01*
X218051Y72424D02*
Y74901D01*
Y72424D02*
X220318Y70157D01*
X221431D01*
X224305Y67283D02*
X224646D01*
X221431Y70157D02*
X224305Y67283D01*
X79646Y73031D02*
Y73444D01*
X108242Y103189D02*
X109626Y104573D01*
Y108838D01*
X111201Y103839D02*
Y109491D01*
X86910Y85413D02*
X87323Y85827D01*
X83484Y87657D02*
X83957Y88130D01*
X88963Y89350D02*
X90557Y90945D01*
X91671D01*
X93639Y92913D01*
X86594Y90925D02*
X88310D01*
X89905Y92520D01*
X91018D01*
X92987Y94488D01*
X83957Y88130D02*
X87140D01*
X88360Y89350D02*
X88963D01*
X87140Y88130D02*
X88360Y89350D01*
X83602Y82284D02*
X87244D01*
X89213Y84252D01*
X87402Y79783D02*
X90295Y82677D01*
X93898Y87604D02*
Y87618D01*
X96043Y89764D01*
X92120Y85827D02*
X93898Y87604D01*
X87323Y85827D02*
X92120D01*
X89213Y84252D02*
X92894D01*
X96830Y88189D01*
X90295Y82677D02*
X93546D01*
X97483Y86614D01*
X130393Y113661D02*
X135630Y108425D01*
X112500Y112205D02*
X120498D01*
X121955Y113661D01*
X130393D01*
X126161Y106299D02*
X127953D01*
X125984Y108350D02*
Y109646D01*
X122933Y107526D02*
Y111299D01*
X90536Y94265D02*
X92334Y96063D01*
X89884Y95839D02*
X91682Y97638D01*
X85941Y95839D02*
X89884D01*
X34705Y44603D02*
X85941Y95839D01*
X28327Y32520D02*
X32677D01*
X34705Y34547D01*
Y44603D01*
X155512Y123721D02*
X156161Y124370D01*
X161228Y128212D02*
Y168607D01*
Y128212D02*
X162016Y127424D01*
X159653Y127559D02*
X160441Y126772D01*
X159653Y127559D02*
Y169260D01*
X148839Y176024D02*
X154929Y169933D01*
X155716Y124815D02*
Y126772D01*
X156504Y127559D01*
Y170858D01*
X155079Y172283D02*
X156504Y170858D01*
X158079Y125794D02*
Y172396D01*
X160244Y123333D02*
Y124618D01*
X162016Y126567D02*
X162894Y125689D01*
X162244Y91732D02*
X163583Y90394D01*
X37854Y34941D02*
Y43299D01*
Y34941D02*
X40512Y32283D01*
X43996D01*
X37854Y43299D02*
X74359Y79803D01*
X84041D01*
X86423Y77421D01*
X183543Y75712D02*
Y76758D01*
Y75712D02*
X184331Y74924D01*
X154764Y19842D02*
X157247D01*
X144764D02*
X147247D01*
X185118Y79587D02*
X185216Y79685D01*
X180492Y79685D02*
X180571Y79764D01*
X175694Y76305D02*
Y79705D01*
X178057Y76677D02*
Y77283D01*
X185118Y76364D02*
X185906Y75577D01*
X185118Y76364D02*
Y76515D01*
X185144Y76541D01*
Y78498D01*
X185118Y78524D02*
X185144Y78498D01*
X185118Y78524D02*
Y79587D01*
X182782Y77520D02*
X183543Y76758D01*
X180420Y78498D02*
X180571Y78649D01*
X175694Y76305D02*
X179606Y72393D01*
X181871Y75157D02*
X182756Y74272D01*
X181804Y75157D02*
X181871D01*
X180420Y76541D02*
X181804Y75157D01*
X180420Y76541D02*
Y78498D01*
X178057Y76677D02*
X181181Y73553D01*
X143214Y23583D02*
X148760D01*
X139764Y20132D02*
X143214Y23583D01*
X139764Y9843D02*
Y20132D01*
X149764Y9843D02*
Y20132D01*
X153215Y23583D01*
X147247Y19842D02*
X152562Y25157D01*
X148760Y23583D02*
X151910Y26732D01*
X86593Y94265D02*
X90536D01*
X36279Y32087D02*
Y43951D01*
X86593Y94265D01*
X69738Y32815D02*
X117559D01*
X67303Y31240D02*
X115098D01*
X66929Y31614D02*
X67303Y31240D01*
X66929Y31614D02*
Y32283D01*
X67908Y34646D02*
X69738Y32815D01*
X54016Y34646D02*
X67908D01*
X51654Y32283D02*
X54016Y34646D01*
X217146Y105886D02*
X217146Y105886D01*
X215571Y104410D02*
X215571Y104410D01*
X217146Y75807D02*
Y105886D01*
X215571Y75154D02*
Y104410D01*
X213996Y74502D02*
Y104794D01*
X212421Y72736D02*
Y104142D01*
X161221Y89415D02*
X162604Y88032D01*
X161221Y89415D02*
Y89646D01*
X160709Y90157D02*
X161221Y89646D01*
X127184Y91732D02*
X162244D01*
X142852Y87360D02*
X143366Y87874D01*
X142852Y87069D02*
Y87360D01*
X127836Y90157D02*
X160709D01*
X113386Y101654D02*
X113721D01*
X91682Y97638D02*
X113045D01*
X122933Y107526D01*
X92334Y96063D02*
X113698D01*
X125984Y108350D01*
X92987Y94488D02*
X114350D01*
X126161Y106299D01*
X93639Y92913D02*
X115002D01*
X125632Y103543D01*
X129094D01*
X132834Y107283D01*
X118916Y83464D02*
X127184Y91732D01*
X96043Y89764D02*
X116307D01*
X124574Y98031D01*
X176319D01*
X96830Y88189D02*
X116959D01*
X125227Y96456D01*
X176971D01*
X97483Y86614D02*
X117611D01*
X125879Y94882D01*
X177623D01*
X102992Y85039D02*
X118264D01*
X126531Y93307D01*
X178276D01*
X119490Y81811D02*
X127836Y90157D01*
X105332Y81811D02*
X119490D01*
X99367Y75846D02*
X105332Y81811D01*
X83389Y78228D02*
X85771Y75846D01*
X75011Y78228D02*
X83389D01*
X58563Y61780D02*
X75011Y78228D01*
X58563Y60276D02*
Y61780D01*
X100295Y82342D02*
X102992Y85039D01*
X98135Y82342D02*
X100295D01*
X97677Y77421D02*
X103720Y83464D01*
X118916D01*
X176189Y141260D02*
X192598D01*
X170118Y147331D02*
X176189Y141260D01*
X170118Y147331D02*
Y149094D01*
X188779Y138091D02*
X188976Y137894D01*
X176065Y149191D02*
X176422D01*
X248406Y86476D02*
X262283D01*
X216181Y118701D02*
X248406Y86476D01*
X176713Y143622D02*
X197730D01*
X216181Y125171D01*
Y118701D02*
Y125171D01*
X176065Y144270D02*
X176713Y143622D01*
X176063Y66280D02*
X178032Y64311D01*
X187508Y42587D02*
Y77342D01*
X185906Y43211D02*
Y75577D01*
X184331Y43864D02*
Y74924D01*
X182756Y44516D02*
Y74272D01*
X181181Y45168D02*
Y73553D01*
X179606Y45821D02*
Y72393D01*
X160605Y29882D02*
X163668D01*
X164764Y19842D02*
X187508Y42587D01*
X166277Y23583D02*
X185906Y43211D01*
X165624Y25157D02*
X184331Y43864D01*
X164972Y26732D02*
X182756Y44516D01*
X164320Y28307D02*
X181181Y45168D01*
X163668Y29882D02*
X179606Y45821D01*
X178032Y46473D02*
Y64311D01*
X163015Y31457D02*
X178032Y46473D01*
X159953Y31457D02*
X163015D01*
X157834Y29338D02*
X159953Y31457D01*
X161258Y28307D02*
X164320D01*
X163215Y23583D02*
X166277D01*
X162562Y25157D02*
X165624D01*
X161910Y26732D02*
X164972D01*
X151910D02*
X157456D01*
X160605Y29882D01*
X158108Y25157D02*
X161258Y28307D01*
X152562Y25157D02*
X158108D01*
X158760Y23583D02*
X161910Y26732D01*
X153215Y23583D02*
X158760D01*
X157247Y19842D02*
X162562Y25157D01*
X159764Y9843D02*
Y20132D01*
X163215Y23583D01*
X156693Y29338D02*
X157834D01*
X203622Y25295D02*
X213228Y34902D01*
X205365Y39713D02*
X209739D01*
X211482Y41457D01*
X213439D01*
X231575Y23321D01*
Y17126D02*
Y23321D01*
Y17126D02*
X235138Y13563D01*
X148465Y124921D02*
X149528D01*
X154929Y130323D01*
Y169933D01*
X121575Y42480D02*
X132677Y53583D01*
X115098Y31240D02*
X117283Y29055D01*
X121575Y28077D02*
Y42480D01*
X113341Y19842D02*
X121575Y28077D01*
X109331Y19842D02*
X113341D01*
X162575Y122323D02*
X167244D01*
X161223Y120971D02*
X162575Y122323D01*
X159266Y120971D02*
X161223D01*
X158878Y121358D02*
X159266Y120971D01*
X154764Y121358D02*
X158878D01*
X151890Y118484D02*
X154764Y121358D01*
X132618Y53642D02*
X132677Y53583D01*
X132618Y53642D02*
Y68799D01*
X134252Y64724D02*
X135709Y66181D01*
X133597Y71161D02*
X135742Y69016D01*
X138760D01*
X134252Y52930D02*
Y64724D01*
X123150Y41828D02*
X134252Y52930D01*
X117559Y32815D02*
X118169Y32205D01*
X117283Y29055D02*
X119213D01*
X123150Y27424D02*
Y41828D01*
X105568Y9843D02*
X123150Y27424D01*
X104331Y9843D02*
X105568D01*
X268898Y138287D02*
X269587D01*
X269685Y108268D02*
X269783Y108366D01*
X176319Y98031D02*
X189961Y111673D01*
Y116142D01*
X191929Y118110D01*
X162604Y88032D02*
X193484D01*
X194705Y89252D01*
X172776Y62992D02*
X176063Y66280D01*
X138490Y72736D02*
X148234Y62992D01*
X172776D01*
X140256Y74311D02*
X147638Y66929D01*
X96457Y107086D02*
X96653Y107283D01*
X80379Y73031D02*
X81659Y74311D01*
X82165Y71476D02*
X83425Y72736D01*
X114252Y62717D02*
X122697Y71161D01*
X133597D01*
X86423Y77421D02*
X97677D01*
X85771Y75846D02*
X99367D01*
X81659Y74311D02*
X140256D01*
X83425Y72736D02*
X138490D01*
X105812Y112652D02*
Y119528D01*
X176065Y144270D02*
Y149191D01*
X134940Y100295D02*
X135038Y100393D01*
X135236Y99999D02*
X135630Y100393D01*
Y108425D01*
X79646Y73031D02*
X80379D01*
X214685Y70039D02*
X214902Y70256D01*
X208098Y128550D02*
X208799Y127848D01*
X162598Y77795D02*
X163386Y78583D01*
X155716Y124815D02*
X156161Y124370D01*
X107387Y117072D02*
X109843Y119528D01*
X180571Y78649D02*
Y79764D01*
D30*
X63976Y113878D02*
X65453Y115354D01*
X64026Y106152D02*
X65158Y107283D01*
X64026Y106152D02*
X64075Y106102D01*
X61024Y103150D02*
X64026Y106152D01*
X86614Y100591D02*
X89075Y103051D01*
X86614Y99406D02*
Y100591D01*
X65453Y115354D02*
X70866D01*
X63976Y108465D02*
Y113878D01*
X65354Y115354D02*
X65453D01*
X66535Y111811D02*
X68504D01*
X70866Y115354D02*
X72047Y114173D01*
X63976Y108465D02*
X65158Y107283D01*
X80413Y106417D02*
Y110315D01*
X80417Y110319D01*
X80413Y106417D02*
X80417Y106414D01*
Y106000D02*
Y106414D01*
Y106000D02*
X83563Y102854D01*
X79830Y117717D02*
X80417Y117129D01*
Y110319D02*
Y117129D01*
X76004Y117717D02*
X79830D01*
X83656D01*
X84049Y118110D02*
X89075Y123136D01*
X84049Y118110D02*
Y118110D01*
X89075Y123136D02*
Y123327D01*
X74803Y116516D02*
X76004Y117717D01*
X83656D02*
X84049Y118110D01*
X89862Y123327D02*
X92126Y125591D01*
X72047Y108169D02*
X74803Y110925D01*
Y116516D01*
X84049Y118110D02*
X84049D01*
X64075Y106102D02*
X68701Y101476D01*
Y99725D02*
Y101476D01*
X68504Y111811D02*
X72047Y108267D01*
Y108169D02*
Y108267D01*
X61024Y95768D02*
Y103150D01*
X83635Y100170D02*
X83759D01*
X70814Y97611D02*
X84819D01*
X68701Y99725D02*
X70814Y97611D01*
X84819D02*
X86614Y99406D01*
D31*
X235394Y4921D02*
X240315Y9843D01*
X189469Y4921D02*
X235394D01*
X240315Y9843D02*
X243268Y6890D01*
X267717Y48524D02*
Y58661D01*
Y35827D02*
Y48524D01*
X267815Y48425D01*
X274016D01*
X267717Y79528D02*
Y101279D01*
Y79528D02*
X273031D01*
X273228Y79724D01*
X81595Y185335D02*
X87441Y191181D01*
X73130Y165157D02*
X79724D01*
X66601D02*
X73130D01*
X60039D02*
X66601D01*
X45866D02*
X60039D01*
X35039Y154331D02*
X37894Y157185D01*
X38780Y156299D01*
X39370D01*
X35039Y118799D02*
X38583Y115256D01*
X35039Y118799D02*
Y124016D01*
X81595Y147441D02*
Y165157D01*
X35039Y147638D02*
Y154331D01*
X89862Y4921D02*
X135236D01*
X189469D01*
X243268Y6890D02*
X267717D01*
X81595Y147441D02*
X91634Y137402D01*
X122205Y176181D02*
Y190020D01*
X176417Y176024D02*
X176437Y176043D01*
Y191102D01*
X232244D01*
X230630Y176181D02*
Y189488D01*
X232244Y191102D01*
X264370Y104626D02*
Y113484D01*
Y143701D01*
Y113484D02*
X264469Y113583D01*
X269390D01*
X264370Y143701D02*
Y155866D01*
Y143701D02*
X264469Y143799D01*
X268898D01*
X264370Y104626D02*
X267717Y101279D01*
X246161Y35630D02*
X246358Y35827D01*
X89331Y5453D02*
Y19842D01*
Y5453D02*
X89862Y4921D01*
X134764Y5394D02*
Y19842D01*
Y5394D02*
X135236Y4921D01*
X189469D02*
X189882Y5335D01*
Y19842D01*
X88799Y4921D02*
X89331Y5453D01*
X78839Y4921D02*
X88799D01*
X35039Y124016D02*
Y147638D01*
X36516Y134350D02*
X39272D01*
X65158Y18602D02*
X78839Y4921D01*
X65158Y18602D02*
Y19094D01*
X41535D02*
X65158D01*
X38583Y115256D02*
X38681Y115354D01*
X39370D01*
X122205Y190020D02*
X123287Y191102D01*
X87441Y191181D02*
X122205D01*
Y190020D02*
Y191181D01*
X123287Y191102D02*
X176437D01*
X240394Y21881D02*
X246161Y27649D01*
X240394Y9921D02*
Y21881D01*
X240315Y9843D02*
X240394Y9921D01*
X236122Y45669D02*
Y63642D01*
X252008Y79528D01*
X267717D01*
X246161Y27649D02*
Y35630D01*
X203740Y75098D02*
X215197Y63642D01*
X236122D01*
X169291Y80315D02*
X172225Y83248D01*
X195590D02*
X203740Y75098D01*
X172225Y83248D02*
X195590D01*
X19685Y30256D02*
Y59055D01*
Y30256D02*
X44409Y5531D01*
X48346D01*
X287402Y29469D02*
Y34449D01*
X280807Y22874D02*
X287402Y29469D01*
X258347Y22874D02*
X280807D01*
X246850Y11378D02*
X258347Y22874D01*
X264370Y155866D02*
X284528Y176024D01*
X232244Y191102D02*
X295118D01*
X300354Y185866D01*
Y176735D02*
Y185866D01*
X297241Y173622D02*
X300354Y176735D01*
X292838Y173622D02*
X297241D01*
X290436Y176024D02*
X292838Y173622D01*
X284528Y176024D02*
X290436D01*
X37894Y157185D02*
X45866Y165157D01*
X81595Y165157D02*
Y185335D01*
X169291Y78149D02*
Y80315D01*
X236122Y45669D02*
X246161Y35630D01*
X246358Y35827D02*
X267717D01*
D32*
X304350Y25177D02*
Y45138D01*
Y25177D02*
X305118Y24409D01*
X293307D02*
X295276Y26378D01*
Y34449D01*
X287402Y44291D02*
X295276D01*
X287402D02*
Y54724D01*
X286614Y55512D02*
X287402Y54724D01*
X283465Y58661D02*
X286614Y55512D01*
X276772Y58661D02*
X283465D01*
D33*
X312835Y130984D02*
Y157480D01*
X92126Y125591D02*
Y136909D01*
X91634Y137402D02*
X92126Y136909D01*
X183268Y135630D02*
Y138091D01*
X203740Y75098D02*
X207087Y78445D01*
X183268Y135630D02*
X188779Y130118D01*
X195256D02*
X200787Y124587D01*
Y112992D02*
Y124587D01*
X168700Y78740D02*
X169291Y78149D01*
X163248Y84193D02*
X168700Y78740D01*
X176575Y138091D02*
X183268D01*
X145728Y84193D02*
X163248D01*
X210453Y81811D02*
Y103327D01*
X142852Y87069D02*
X145728Y84193D01*
X165571Y149094D02*
X176575Y138091D01*
X165571Y149094D02*
Y152992D01*
X314547Y116850D02*
X322835Y125138D01*
Y125984D01*
X289744Y143484D02*
X289764Y143504D01*
X286417Y117027D02*
X289862Y113583D01*
X306102Y118110D02*
X309115D01*
X310374Y116850D01*
X314547D01*
X288169Y143484D02*
X289744D01*
X286417Y141732D02*
X288169Y143484D01*
X286417Y117027D02*
Y141732D01*
X289764Y137992D02*
X289764D01*
X289449Y108484D02*
X289862Y108071D01*
X293209Y111552D02*
Y115613D01*
X289764Y119058D02*
X293209Y115613D01*
X290456Y108799D02*
X293209Y111552D01*
X289843Y130984D02*
X312835D01*
X289764Y130905D02*
X289843Y130984D01*
X289764Y119058D02*
Y130905D01*
Y137992D01*
X298777Y105984D02*
X322835D01*
X293209Y111552D02*
X298777Y105984D01*
X91524Y69772D02*
X91535Y69784D01*
X91524Y37610D02*
Y69772D01*
Y37610D02*
X93110Y36024D01*
X289449Y108484D02*
X289764Y108799D01*
X290456D01*
X207087Y78445D02*
X210453Y81811D01*
X200787Y112992D02*
X210453Y103327D01*
X188779Y130118D02*
X195256D01*
D34*
X85472Y53150D02*
D03*
X95472D02*
D03*
X9685Y94055D02*
D03*
X19685Y89055D02*
D03*
X9685Y84055D02*
D03*
X19685Y79055D02*
D03*
X9685Y74055D02*
D03*
X19685Y69055D02*
D03*
X9685Y64055D02*
D03*
X19685Y59055D02*
D03*
Y125984D02*
D03*
X9685Y130984D02*
D03*
X19685Y135984D02*
D03*
X9685Y140984D02*
D03*
X230315Y9843D02*
D03*
X235315Y19842D02*
D03*
X240315Y9843D02*
D03*
X245315Y19842D02*
D03*
X209882D02*
D03*
X204882Y9843D02*
D03*
X199882Y19842D02*
D03*
X194882Y9843D02*
D03*
X189882Y19842D02*
D03*
X184882Y9843D02*
D03*
X164764Y19842D02*
D03*
X159764Y9843D02*
D03*
X154764Y19842D02*
D03*
X149764Y9843D02*
D03*
X144764Y19842D02*
D03*
X139764Y9843D02*
D03*
X134764Y19842D02*
D03*
X129764Y9843D02*
D03*
X109331Y19842D02*
D03*
X104331Y9843D02*
D03*
X99331Y19842D02*
D03*
X94331Y9843D02*
D03*
X89331Y19842D02*
D03*
X84331Y9843D02*
D03*
X146417Y176024D02*
D03*
X151417Y186024D02*
D03*
X156417Y176024D02*
D03*
X161417Y186024D02*
D03*
X166417Y176024D02*
D03*
X171417Y186024D02*
D03*
X176417Y176024D02*
D03*
X181417Y186024D02*
D03*
X92205Y176181D02*
D03*
X97205Y186181D02*
D03*
X102205Y176181D02*
D03*
X107205Y186181D02*
D03*
X112205Y176181D02*
D03*
X117205Y186181D02*
D03*
X122205Y176181D02*
D03*
X127205Y186181D02*
D03*
X200630Y176181D02*
D03*
X205630Y186181D02*
D03*
X210630Y176181D02*
D03*
X215630Y186181D02*
D03*
X220630Y176181D02*
D03*
X225630Y186181D02*
D03*
X230630Y176181D02*
D03*
X235630Y186181D02*
D03*
X254528Y176024D02*
D03*
X259528Y186024D02*
D03*
X264528Y176024D02*
D03*
X269528Y186024D02*
D03*
X274528Y176024D02*
D03*
X279528Y186024D02*
D03*
X284528Y176024D02*
D03*
X289528Y186024D02*
D03*
X312835Y157480D02*
D03*
X322835D02*
D03*
X312835Y130984D02*
D03*
X322835Y125984D02*
D03*
X312835Y120984D02*
D03*
X322835Y115984D02*
D03*
X312835Y110984D02*
D03*
X322835Y105984D02*
D03*
D35*
X11811Y11811D02*
D03*
X322835D02*
D03*
Y185039D02*
D03*
X11811D02*
D03*
D36*
X314961Y63779D02*
D03*
Y46457D02*
D03*
D37*
X226378Y88583D02*
D03*
X143701Y121063D02*
D03*
X132874Y107283D02*
D03*
X65354Y115354D02*
D03*
X66535Y111811D02*
D03*
X127953Y106299D02*
D03*
X134842Y100393D02*
D03*
X88386Y108465D02*
D03*
X83563Y108366D02*
D03*
X112500Y112205D02*
D03*
X96850Y107086D02*
D03*
X91683Y100415D02*
D03*
X77559Y121063D02*
D03*
Y114173D02*
D03*
Y108169D02*
D03*
X82677Y121063D02*
D03*
X87598Y114173D02*
D03*
X92126Y125591D02*
D03*
X65158Y107283D02*
D03*
X71260Y101575D02*
D03*
X106595Y101673D02*
D03*
X107264Y105551D02*
D03*
X101713Y119528D02*
D03*
X105758D02*
D03*
X109803D02*
D03*
X190000Y170905D02*
D03*
X189409Y167205D02*
D03*
X207087Y78875D02*
D03*
X192598Y141260D02*
D03*
X203575Y110626D02*
D03*
X188839Y128209D02*
D03*
X152106Y137835D02*
D03*
X120354Y158031D02*
D03*
X91535Y88583D02*
D03*
X184882Y97992D02*
D03*
X188169Y106378D02*
D03*
X190965Y108858D02*
D03*
X169291Y78149D02*
D03*
X163386Y78583D02*
D03*
X206437Y126870D02*
D03*
X212539Y72618D02*
D03*
X212461Y39094D02*
D03*
X214902Y69823D02*
D03*
X220453Y67795D02*
D03*
X224646Y67283D02*
D03*
X208780Y129232D02*
D03*
X210728Y119744D02*
D03*
X213774Y118317D02*
D03*
X114252Y62717D02*
D03*
X138760Y69016D02*
D03*
X82165Y71476D02*
D03*
X79646Y73444D02*
D03*
X122933Y111299D02*
D03*
X83759Y100170D02*
D03*
X87402Y79783D02*
D03*
X83602Y82284D02*
D03*
X86910Y85413D02*
D03*
X83484Y87657D02*
D03*
X86594Y90925D02*
D03*
X125984Y109646D02*
D03*
X36279Y32087D02*
D03*
X28327Y32520D02*
D03*
X155512Y123721D02*
D03*
X158079Y125794D02*
D03*
X160244Y123333D02*
D03*
X162894Y125689D02*
D03*
X163583Y90394D02*
D03*
X43996Y32283D02*
D03*
X185216Y79685D02*
D03*
X180492Y79685D02*
D03*
X175694Y79705D02*
D03*
X178057Y77283D02*
D03*
X187508Y77342D02*
D03*
X182782Y77520D02*
D03*
X176063Y66280D02*
D03*
X66929Y32283D02*
D03*
X51654D02*
D03*
X194705Y89252D02*
D03*
X142852Y87069D02*
D03*
X113721Y101654D02*
D03*
X130905Y101378D02*
D03*
X58563Y60276D02*
D03*
X98135Y82342D02*
D03*
X170118Y149094D02*
D03*
X188976Y137894D02*
D03*
X176422Y149191D02*
D03*
X262283Y86476D02*
D03*
X156693Y29338D02*
D03*
X205365Y39713D02*
D03*
X213228Y34902D02*
D03*
X235138Y13563D02*
D03*
X165335Y68405D02*
D03*
X143169Y112697D02*
D03*
X134902Y85039D02*
D03*
X204724Y89016D02*
D03*
X195256Y108799D02*
D03*
X184606Y128819D02*
D03*
X148465Y124921D02*
D03*
X148561Y128339D02*
D03*
X167244Y122323D02*
D03*
X151890Y118484D02*
D03*
X132618Y68799D02*
D03*
X135709Y66181D02*
D03*
X118169Y32205D02*
D03*
X119213Y29055D02*
D03*
X100394Y101772D02*
D03*
X103445Y107087D02*
D03*
X98327Y119685D02*
D03*
X110236Y131890D02*
D03*
Y125984D02*
D03*
X116142D02*
D03*
Y120079D02*
D03*
X122047D02*
D03*
X130905Y85630D02*
D03*
X126969D02*
D03*
X144685Y107283D02*
D03*
X149606D02*
D03*
Y102362D02*
D03*
X144685D02*
D03*
X145669Y116142D02*
D03*
X140748Y129921D02*
D03*
X143701Y81693D02*
D03*
X148622Y87598D02*
D03*
X167323Y118110D02*
D03*
Y113189D02*
D03*
Y108268D02*
D03*
Y103347D02*
D03*
X177165D02*
D03*
Y108268D02*
D03*
Y113189D02*
D03*
Y118110D02*
D03*
Y123031D02*
D03*
X187008D02*
D03*
Y118110D02*
D03*
Y113189D02*
D03*
X185039Y110236D02*
D03*
X191929Y118110D02*
D03*
X204724Y103347D02*
D03*
Y99410D02*
D03*
Y95472D02*
D03*
X167323Y90551D02*
D03*
X171653D02*
D03*
X176181D02*
D03*
X154528Y65945D02*
D03*
X158465D02*
D03*
X162402D02*
D03*
X168307D02*
D03*
X147638Y66929D02*
D03*
X39370Y68898D02*
D03*
Y63976D02*
D03*
X44291D02*
D03*
Y68898D02*
D03*
X68898Y59055D02*
D03*
Y54134D02*
D03*
X73819D02*
D03*
Y59055D02*
D03*
X113189Y54134D02*
D03*
Y49213D02*
D03*
X118110D02*
D03*
Y54134D02*
D03*
X78740Y26575D02*
D03*
X83661D02*
D03*
X127953D02*
D03*
X132874D02*
D03*
X137795D02*
D03*
X142717D02*
D03*
X182087Y25591D02*
D03*
X187008D02*
D03*
X191929D02*
D03*
X196850D02*
D03*
X246850Y63696D02*
D03*
X258858Y59055D02*
D03*
X255906Y44291D02*
D03*
Y49213D02*
D03*
X260827D02*
D03*
Y44291D02*
D03*
X252953Y61024D02*
D03*
X251969Y27559D02*
D03*
X255906D02*
D03*
X259842D02*
D03*
X263779D02*
D03*
X260827Y18701D02*
D03*
X265748D02*
D03*
X264764Y14764D02*
D03*
X258858D02*
D03*
X286417Y16732D02*
D03*
Y11811D02*
D03*
Y6890D02*
D03*
X309055Y65945D02*
D03*
X304134D02*
D03*
X299213D02*
D03*
X312008Y61024D02*
D03*
X221457Y103347D02*
D03*
Y98425D02*
D03*
Y93504D02*
D03*
Y88583D02*
D03*
X226378Y93504D02*
D03*
Y98425D02*
D03*
X291339Y51181D02*
D03*
X295276Y48228D02*
D03*
X296260Y52165D02*
D03*
X252953Y68898D02*
D03*
X258202D02*
D03*
X263451D02*
D03*
X268701D02*
D03*
X237205Y37402D02*
D03*
X238189Y31496D02*
D03*
X236221Y25591D02*
D03*
X221457Y59055D02*
D03*
Y54134D02*
D03*
Y49213D02*
D03*
Y44291D02*
D03*
Y39370D02*
D03*
X88583Y26575D02*
D03*
X93804Y26576D02*
D03*
X98425Y26575D02*
D03*
X297244Y62008D02*
D03*
X144587Y127854D02*
D03*
D38*
X267717Y6890D02*
D03*
X274016Y48425D02*
D03*
X273228Y79724D02*
D03*
X269783Y113484D02*
D03*
X268898Y143799D02*
D03*
X79724Y165157D02*
D03*
X73130Y165157D02*
D03*
X66601D02*
D03*
X60039D02*
D03*
X39370Y156299D02*
D03*
X39272Y134350D02*
D03*
X65158Y19094D02*
D03*
X41535D02*
D03*
X39370Y115354D02*
D03*
X246752Y36279D02*
D03*
X304350Y45138D02*
D03*
X165571Y152992D02*
D03*
X48346Y5531D02*
D03*
X246850Y11378D02*
D03*
X269587Y138287D02*
D03*
X269783Y108366D02*
D03*
D39*
X153484Y57579D02*
D03*
Y51673D02*
D03*
X191957Y47960D02*
D03*
X195846Y42520D02*
D03*
X147638Y39370D02*
D03*
X153543D02*
D03*
X159449D02*
D03*
X141732D02*
D03*
X187008Y37402D02*
D03*
X192913D02*
D03*
X236221Y165354D02*
D03*
X242126D02*
D03*
X248031D02*
D03*
X185039Y167323D02*
D03*
X169291Y159449D02*
D03*
X175197D02*
D03*
X246063Y147638D02*
D03*
X236221D02*
D03*
Y137795D02*
D03*
X246063D02*
D03*
X236221Y116142D02*
D03*
Y106299D02*
D03*
X246063D02*
D03*
Y116142D02*
D03*
X129921Y161417D02*
D03*
X139764D02*
D03*
Y151575D02*
D03*
X129921D02*
D03*
X151575Y159449D02*
D03*
Y153543D02*
D03*
Y147638D02*
D03*
X88583D02*
D03*
Y157480D02*
D03*
X98425D02*
D03*
Y147638D02*
D03*
X61024Y145669D02*
D03*
Y139764D02*
D03*
X66929D02*
D03*
Y145669D02*
D03*
X43307Y88583D02*
D03*
X49213D02*
D03*
X55118D02*
D03*
X61024D02*
D03*
Y114173D02*
D03*
X55118D02*
D03*
X49213D02*
D03*
X289862Y113583D02*
D03*
X289744Y143484D02*
D03*
X306102Y118110D02*
D03*
X289764Y137992D02*
D03*
X289449Y108484D02*
D03*
X91535Y69784D02*
D03*
X93110Y36024D02*
D03*
D40*
X287402Y44291D02*
D03*
Y34449D02*
D03*
X295276Y44291D02*
D03*
Y34449D02*
D03*
D41*
X293307Y24409D02*
D03*
X305118D02*
D03*
D42*
X102854Y137402D02*
D03*
X91634D02*
D03*
X52854Y106102D02*
D03*
X64075D02*
D03*
D43*
X168700Y78740D02*
D03*
X162008D02*
D03*
D44*
X203740Y86319D02*
D03*
Y75098D02*
D03*
X246161Y46850D02*
D03*
Y35630D02*
D03*
D45*
X258661Y58661D02*
D03*
X267717D02*
D03*
X276772D02*
D03*
D46*
X267717Y35827D02*
D03*
D47*
X83759Y100170D02*
Y102658D01*
X83563Y102854D02*
X83759Y102658D01*
M02*
