G04 Layer_Physical_Order=1*
G04 Layer_Color=255*
%FSLAX25Y25*%
%MOIN*%
G70*
G01*
G75*
%ADD10R,0.02756X0.03543*%
%ADD11R,0.07480X0.04331*%
%ADD12R,0.08858X0.01969*%
%ADD13R,0.09843X0.07874*%
%ADD14O,0.09252X0.02756*%
%ADD15R,0.07874X0.06299*%
%ADD16R,0.03150X0.03150*%
%ADD17R,0.03543X0.02756*%
G04:AMPARAMS|DCode=18|XSize=59.06mil|YSize=35.43mil|CornerRadius=8.86mil|HoleSize=0mil|Usage=FLASHONLY|Rotation=0.000|XOffset=0mil|YOffset=0mil|HoleType=Round|Shape=RoundedRectangle|*
%AMROUNDEDRECTD18*
21,1,0.05906,0.01772,0,0,0.0*
21,1,0.04134,0.03543,0,0,0.0*
1,1,0.01772,0.02067,-0.00886*
1,1,0.01772,-0.02067,-0.00886*
1,1,0.01772,-0.02067,0.00886*
1,1,0.01772,0.02067,0.00886*
%
%ADD18ROUNDEDRECTD18*%
%ADD19R,0.03937X0.03543*%
%ADD20R,0.05000X0.02500*%
%ADD21R,0.03150X0.03150*%
%ADD22O,0.00984X0.04921*%
%ADD23O,0.04921X0.00984*%
%ADD24R,0.03543X0.03150*%
%ADD25R,0.18110X0.18110*%
%ADD26R,0.00984X0.02362*%
%ADD27R,0.02362X0.00984*%
%ADD28R,0.02500X0.05000*%
%ADD29C,0.00787*%
%ADD30C,0.03150*%
%ADD31C,0.01575*%
%ADD32C,0.02362*%
%ADD33C,0.01181*%
%ADD34C,0.05118*%
%ADD35C,0.03543*%
%ADD36C,0.11811*%
%ADD37C,0.02362*%
%ADD38C,0.03150*%
%ADD39C,0.03937*%
G36*
X67814Y195235D02*
X59796Y187217D01*
X56878D01*
Y182862D01*
X61233D01*
Y185781D01*
X62511Y187060D01*
X63111Y186811D01*
Y182862D01*
X67466D01*
Y185781D01*
X68745Y187060D01*
X69345Y186811D01*
Y182862D01*
X73700D01*
Y185781D01*
X74979Y187060D01*
X75578Y186811D01*
Y182862D01*
X79933D01*
Y185781D01*
X83058Y188906D01*
X94655D01*
X94850Y188306D01*
X94443Y187775D01*
X94125Y187006D01*
X94016Y186181D01*
X94125Y185356D01*
X94443Y184587D01*
X94950Y183926D01*
X95610Y183420D01*
X96379Y183101D01*
X97205Y182992D01*
X98030Y183101D01*
X98799Y183420D01*
X98811Y183428D01*
X102328Y179911D01*
X102042Y179348D01*
X101379Y179261D01*
X100610Y178943D01*
X99950Y178436D01*
X99443Y177775D01*
X99125Y177006D01*
X99037Y176344D01*
X98475Y176057D01*
X97633Y176899D01*
X97304Y177119D01*
X96915Y177197D01*
X96915Y177197D01*
X95206D01*
X94966Y177775D01*
X94459Y178436D01*
X93799Y178943D01*
X93030Y179261D01*
X92205Y179370D01*
X91379Y179261D01*
X90610Y178943D01*
X89950Y178436D01*
X89443Y177775D01*
X89125Y177006D01*
X89016Y176181D01*
X89125Y175356D01*
X89443Y174587D01*
X89950Y173926D01*
X90610Y173420D01*
X91379Y173101D01*
X92205Y172992D01*
X93030Y173101D01*
X93799Y173420D01*
X94459Y173926D01*
X94966Y174587D01*
X95206Y175165D01*
X96495D01*
X99937Y171723D01*
X99937Y171723D01*
X100267Y171503D01*
X100655Y171425D01*
X105583D01*
X109890Y167119D01*
Y140279D01*
X109890Y140279D01*
X109967Y139890D01*
X110187Y139561D01*
X134325Y115424D01*
X134654Y115203D01*
X134849Y114553D01*
X133319Y113023D01*
X125006D01*
X124617Y112946D01*
X124288Y112726D01*
X123756Y112894D01*
X123629Y112979D01*
X122933Y113118D01*
X122237Y112979D01*
X121647Y112585D01*
X121253Y111995D01*
X121244Y111951D01*
X120593Y111754D01*
X114503Y117844D01*
X114173Y118064D01*
X113785Y118142D01*
X113785Y118142D01*
X111744D01*
X111423Y118742D01*
X111483Y118832D01*
X111621Y119528D01*
X111483Y120223D01*
X111089Y120813D01*
X110499Y121207D01*
X110439Y121219D01*
X99838Y131820D01*
X99509Y132041D01*
X99120Y132118D01*
X99120Y132118D01*
X86589D01*
X86589Y132118D01*
X86200Y132041D01*
X85871Y131820D01*
X82943Y128893D01*
X82723Y128563D01*
X82646Y128174D01*
X82646Y128174D01*
Y127374D01*
X72725D01*
Y124126D01*
X70716D01*
X43336Y151505D01*
X43007Y151726D01*
X42618Y151803D01*
X42618Y151803D01*
X41744D01*
Y152768D01*
X36996D01*
Y152256D01*
X36676Y151803D01*
X36287Y151726D01*
X35958Y151505D01*
X35566Y151114D01*
X23327D01*
X22938Y151037D01*
X22609Y150817D01*
X22609Y150817D01*
X13792Y142000D01*
X12686D01*
X12447Y142579D01*
X11940Y143239D01*
X11279Y143746D01*
X10510Y144064D01*
X9685Y144173D01*
X8860Y144064D01*
X8091Y143746D01*
X7430Y143239D01*
X6924Y142579D01*
X6605Y141809D01*
X6496Y140984D01*
X6605Y140159D01*
X6924Y139390D01*
X7430Y138730D01*
X8091Y138223D01*
X8860Y137904D01*
X9685Y137796D01*
X10510Y137904D01*
X11279Y138223D01*
X11940Y138730D01*
X12447Y139390D01*
X12686Y139969D01*
X14212D01*
X14213Y139969D01*
X14601Y140046D01*
X14931Y140266D01*
X18115Y143450D01*
X18669Y143221D01*
Y138986D01*
X18091Y138746D01*
X17430Y138239D01*
X16924Y137579D01*
X16605Y136810D01*
X16496Y135984D01*
X16605Y135159D01*
X16924Y134390D01*
X17430Y133730D01*
X18091Y133223D01*
X18860Y132904D01*
X19685Y132796D01*
X20510Y132904D01*
X21279Y133223D01*
X21940Y133730D01*
X22446Y134390D01*
X22765Y135159D01*
X22874Y135984D01*
X22765Y136810D01*
X22446Y137579D01*
X21940Y138239D01*
X21279Y138746D01*
X20701Y138986D01*
Y143772D01*
X24436Y147508D01*
X34914D01*
X36996Y145426D01*
Y142508D01*
X41744D01*
Y145426D01*
X42055Y145736D01*
X43775D01*
X69167Y120345D01*
X69167Y120345D01*
X69247Y120292D01*
X69233Y120063D01*
X68619Y119829D01*
X68438Y120009D01*
X68108Y120230D01*
X67720Y120307D01*
X67720Y120307D01*
X63724D01*
X63724Y120307D01*
X63722Y120307D01*
X44023D01*
X43338Y120992D01*
Y124213D01*
X43261Y124601D01*
X43041Y124931D01*
X43041Y124931D01*
X41744Y126228D01*
Y129146D01*
X38826D01*
X37829Y130142D01*
X38059Y130697D01*
X41744D01*
Y133601D01*
X41776Y133679D01*
X41865Y134350D01*
X41776Y135021D01*
X41517Y135647D01*
X41491Y135681D01*
Y136996D01*
X41744D01*
Y140957D01*
X40325D01*
X40220Y141027D01*
X39370Y141196D01*
X38521Y141027D01*
X38415Y140957D01*
X36996D01*
Y136996D01*
X37052D01*
Y135681D01*
X37026Y135647D01*
X36767Y135021D01*
X36679Y134350D01*
X36767Y133679D01*
X36996Y133126D01*
Y131760D01*
X36442Y131530D01*
X36269Y131702D01*
X35940Y131922D01*
X35551Y132000D01*
X35551Y132000D01*
X12686D01*
X12447Y132579D01*
X11940Y133239D01*
X11279Y133746D01*
X10510Y134064D01*
X9685Y134173D01*
X8860Y134064D01*
X8091Y133746D01*
X7430Y133239D01*
X6924Y132579D01*
X6605Y131809D01*
X6496Y130984D01*
X6605Y130159D01*
X6924Y129390D01*
X7430Y128729D01*
X8091Y128223D01*
X8860Y127904D01*
X9685Y127796D01*
X10510Y127904D01*
X11279Y128223D01*
X11940Y128729D01*
X12447Y129390D01*
X12686Y129969D01*
X21449D01*
X21679Y129414D01*
X21089Y128824D01*
X20510Y129064D01*
X19685Y129173D01*
X18860Y129064D01*
X18091Y128746D01*
X17430Y128239D01*
X16924Y127579D01*
X16605Y126810D01*
X16496Y125984D01*
X16605Y125159D01*
X16924Y124390D01*
X17430Y123730D01*
X18091Y123223D01*
X18860Y122904D01*
X19685Y122796D01*
X20510Y122904D01*
X21279Y123223D01*
X21940Y123730D01*
X22446Y124390D01*
X22765Y125159D01*
X22874Y125984D01*
X22765Y126810D01*
X22525Y127388D01*
X23531Y128394D01*
X34478D01*
X35402Y127470D01*
Y125298D01*
X35402Y125298D01*
X35479Y124909D01*
X35699Y124580D01*
X36881Y123399D01*
X36996Y122846D01*
X36996Y122846D01*
X36996Y122846D01*
Y118886D01*
X39914D01*
X40468Y118332D01*
X40129Y117823D01*
X40041Y117859D01*
X39370Y117947D01*
X38699Y117859D01*
X38074Y117600D01*
X37728Y117335D01*
X36996D01*
Y116341D01*
X36865Y116025D01*
X36777Y115354D01*
X36865Y114683D01*
X36996Y114368D01*
Y113374D01*
X37728D01*
X38074Y113109D01*
X38699Y112850D01*
X39370Y112761D01*
X40041Y112850D01*
X40667Y113109D01*
X41012Y113374D01*
X41744D01*
Y114368D01*
X41875Y114683D01*
X41963Y115354D01*
X41875Y116025D01*
X41759Y116305D01*
X41805Y116407D01*
X42344Y116736D01*
X42520Y116701D01*
X63387D01*
X63708Y116101D01*
X63674Y116050D01*
X63536Y115354D01*
X63674Y114658D01*
X64069Y114068D01*
X64658Y113674D01*
X64948Y113617D01*
X65048Y113443D01*
X65160Y112963D01*
X64855Y112507D01*
X64717Y111811D01*
X64855Y111115D01*
X65250Y110525D01*
X65840Y110131D01*
X66535Y109993D01*
X66617Y110009D01*
X67572Y109054D01*
X67343Y108500D01*
X66490D01*
X66443Y108569D01*
X65853Y108963D01*
X65158Y109102D01*
X64462Y108963D01*
X63872Y108569D01*
X63477Y107979D01*
X63339Y107283D01*
X63477Y106588D01*
X63872Y105998D01*
X64462Y105604D01*
X65158Y105465D01*
X65853Y105604D01*
X66443Y105998D01*
X66490Y106067D01*
X69477D01*
Y104221D01*
X70244D01*
Y103041D01*
X69974Y102861D01*
X69580Y102271D01*
X69441Y101575D01*
X69580Y100879D01*
X69974Y100289D01*
X70564Y99895D01*
X71260Y99756D01*
X71956Y99895D01*
X72204Y100060D01*
X72804Y99740D01*
Y88209D01*
X72804Y88208D01*
X72881Y87820D01*
X73101Y87490D01*
X81526Y79065D01*
X81526Y79065D01*
X81855Y78845D01*
X82244Y78768D01*
X82244Y78768D01*
X85935D01*
X86116Y78498D01*
X86706Y78104D01*
X87402Y77965D01*
X88097Y78104D01*
X88687Y78498D01*
X89082Y79088D01*
X89083Y79095D01*
X89683Y79036D01*
Y75896D01*
X90118D01*
Y75209D01*
X89752D01*
Y71033D01*
X89485Y70633D01*
X89316Y69784D01*
X89485Y68934D01*
X89774Y68501D01*
X89453Y67901D01*
X79834D01*
X78754Y68981D01*
X78984Y69536D01*
X81240D01*
X81240Y69536D01*
X81629Y69613D01*
X81804Y69730D01*
X82165Y69658D01*
X82861Y69796D01*
X83451Y70191D01*
X83845Y70780D01*
X83984Y71476D01*
X83845Y72172D01*
X83451Y72762D01*
X82861Y73156D01*
X82165Y73295D01*
X82042Y73270D01*
X81464Y73444D01*
X81326Y74140D01*
X80932Y74730D01*
X80342Y75124D01*
X79646Y75262D01*
X78950Y75124D01*
X78360Y74730D01*
X78263Y74583D01*
X77665Y74524D01*
X69267Y82923D01*
X68937Y83143D01*
X68549Y83220D01*
X68549Y83220D01*
X26956D01*
X22525Y87651D01*
X22765Y88230D01*
X22874Y89055D01*
X22765Y89880D01*
X22446Y90649D01*
X21940Y91310D01*
X21279Y91817D01*
X20510Y92135D01*
X19685Y92244D01*
X18860Y92135D01*
X18091Y91817D01*
X17430Y91310D01*
X16924Y90649D01*
X16605Y89880D01*
X16496Y89055D01*
X16605Y88230D01*
X16924Y87461D01*
X17430Y86800D01*
X18091Y86294D01*
X18860Y85975D01*
X19685Y85866D01*
X20510Y85975D01*
X21089Y86215D01*
X21687Y85617D01*
X21391Y85064D01*
X21358Y85071D01*
X21358Y85071D01*
X12686D01*
X12447Y85650D01*
X11940Y86310D01*
X11279Y86817D01*
X10510Y87135D01*
X9685Y87244D01*
X8860Y87135D01*
X8091Y86817D01*
X7430Y86310D01*
X6924Y85650D01*
X6605Y84880D01*
X6496Y84055D01*
X6605Y83230D01*
X6924Y82461D01*
X7430Y81800D01*
X8091Y81294D01*
X8860Y80975D01*
X9685Y80866D01*
X10510Y80975D01*
X11279Y81294D01*
X11940Y81800D01*
X12447Y82461D01*
X12686Y83039D01*
X20938D01*
X21816Y82161D01*
X21420Y81709D01*
X21279Y81817D01*
X20510Y82135D01*
X19685Y82244D01*
X18860Y82135D01*
X18091Y81817D01*
X17430Y81310D01*
X16924Y80650D01*
X16605Y79880D01*
X16496Y79055D01*
X16605Y78230D01*
X16924Y77461D01*
X17430Y76800D01*
X18091Y76294D01*
X18860Y75975D01*
X19145Y75937D01*
X19430Y75295D01*
X19274Y75071D01*
X12686D01*
X12447Y75649D01*
X11940Y76310D01*
X11279Y76817D01*
X10510Y77135D01*
X9685Y77244D01*
X8860Y77135D01*
X8091Y76817D01*
X7430Y76310D01*
X6924Y75649D01*
X6605Y74880D01*
X6496Y74055D01*
X6605Y73230D01*
X6924Y72461D01*
X7430Y71800D01*
X8091Y71294D01*
X8860Y70975D01*
X9685Y70866D01*
X10510Y70975D01*
X11279Y71294D01*
X11940Y71800D01*
X12447Y72461D01*
X12686Y73040D01*
X19980D01*
X19980Y73040D01*
X20369Y73117D01*
X20698Y73337D01*
X23826Y76465D01*
X24874D01*
X25104Y75910D01*
X21089Y71895D01*
X20510Y72135D01*
X19685Y72244D01*
X18860Y72135D01*
X18091Y71817D01*
X17430Y71310D01*
X16924Y70649D01*
X16605Y69880D01*
X16496Y69055D01*
X16605Y68230D01*
X16924Y67461D01*
X17430Y66800D01*
X18091Y66294D01*
X18860Y65975D01*
X19138Y65938D01*
X19422Y65296D01*
X19265Y65071D01*
X12686D01*
X12447Y65649D01*
X11940Y66310D01*
X11279Y66817D01*
X10510Y67135D01*
X9685Y67244D01*
X8860Y67135D01*
X8091Y66817D01*
X7430Y66310D01*
X6924Y65649D01*
X6605Y64880D01*
X6496Y64055D01*
X6605Y63230D01*
X6924Y62461D01*
X7430Y61800D01*
X8091Y61294D01*
X8860Y60975D01*
X9685Y60866D01*
X10510Y60975D01*
X11279Y61294D01*
X11940Y61800D01*
X12447Y62461D01*
X12686Y63039D01*
X19974D01*
X19974Y63039D01*
X20363Y63117D01*
X20693Y63337D01*
X24143Y66788D01*
X24363Y67117D01*
X24441Y67506D01*
X24441Y67506D01*
Y70052D01*
X27704Y73315D01*
X64867D01*
X76183Y61998D01*
X76513Y61778D01*
X76901Y61701D01*
X112786D01*
X112966Y61431D01*
X113556Y61037D01*
X114252Y60898D01*
X114948Y61037D01*
X115538Y61431D01*
X115932Y62021D01*
X115944Y62081D01*
X116595Y62278D01*
X117386Y61487D01*
X117716Y61266D01*
X118104Y61189D01*
X118105Y61189D01*
X147323D01*
X147323Y61189D01*
X147712Y61266D01*
X148041Y61487D01*
X154261Y67707D01*
X154261Y67707D01*
X154482Y68037D01*
X154559Y68425D01*
Y68579D01*
X154991Y68884D01*
X155159Y68935D01*
X155512Y68864D01*
X155939Y68949D01*
X156301Y69191D01*
X156691D01*
X157053Y68949D01*
X157480Y68864D01*
X157907Y68949D01*
X158269Y69191D01*
X158660D01*
X159022Y68949D01*
X159449Y68864D01*
X159876Y68949D01*
X160238Y69191D01*
X160628D01*
X160990Y68949D01*
X161417Y68864D01*
X161844Y68949D01*
X162206Y69191D01*
X162597D01*
X162959Y68949D01*
X163386Y68864D01*
X163739Y68935D01*
X163906Y68884D01*
X164339Y68579D01*
Y68505D01*
X164319Y68405D01*
X164396Y68017D01*
X164617Y67687D01*
X164946Y67467D01*
X165335Y67390D01*
X165723Y67467D01*
X166053Y67687D01*
X166072Y67707D01*
X166293Y68037D01*
X166370Y68425D01*
Y68579D01*
X166802Y68884D01*
X166970Y68935D01*
X167323Y68864D01*
X167750Y68949D01*
X168112Y69191D01*
X168502D01*
X168864Y68949D01*
X169291Y68864D01*
X169718Y68949D01*
X170080Y69191D01*
X170471D01*
X170833Y68949D01*
X171260Y68864D01*
X171687Y68949D01*
X171830Y69045D01*
X172448Y69200D01*
X172806Y68960D01*
X173067Y68909D01*
X173283Y68454D01*
X173303Y68296D01*
X172983Y67976D01*
X172763Y67647D01*
X172685Y67258D01*
X172685Y67258D01*
Y66090D01*
X168910Y62315D01*
X161740D01*
Y60562D01*
X160964D01*
X160575Y60485D01*
X160246Y60265D01*
X160246Y60265D01*
X159934Y59953D01*
X157016D01*
Y55205D01*
X160976D01*
Y57705D01*
X161140Y57815D01*
X161740Y57494D01*
Y56779D01*
X170425D01*
Y60957D01*
X174218Y64750D01*
X174592Y64913D01*
X175048Y64813D01*
X175367Y64600D01*
X175481Y64577D01*
X175679Y63926D01*
X171526Y59773D01*
X171306Y59444D01*
X171229Y59055D01*
X171229Y59055D01*
Y52747D01*
X170718Y52351D01*
X170425Y52473D01*
Y52473D01*
X161740D01*
Y51758D01*
X161140Y51437D01*
X160976Y51547D01*
Y54047D01*
X157016D01*
Y49299D01*
X159934D01*
X160246Y48987D01*
X160246Y48987D01*
X160576Y48766D01*
X160965Y48689D01*
X160965Y48689D01*
X161740D01*
Y47374D01*
X102685D01*
X98313Y51745D01*
X98553Y52324D01*
X98661Y53150D01*
X98553Y53975D01*
X98234Y54744D01*
X97727Y55404D01*
X97067Y55911D01*
X96298Y56230D01*
X95472Y56338D01*
X94647Y56230D01*
X93878Y55911D01*
X93218Y55404D01*
X92711Y54744D01*
X92392Y53975D01*
X92284Y53150D01*
X92392Y52324D01*
X92711Y51555D01*
X93218Y50895D01*
X93878Y50388D01*
X94647Y50070D01*
X95472Y49961D01*
X96298Y50070D01*
X96877Y50309D01*
X101546Y45640D01*
X101546Y45640D01*
X101875Y45420D01*
X102264Y45342D01*
X102264Y45342D01*
X122611D01*
X122840Y44788D01*
X100735Y22683D01*
X100156Y22923D01*
X99331Y23031D01*
X98505Y22923D01*
X97736Y22604D01*
X97076Y22097D01*
X96569Y21437D01*
X96251Y20668D01*
X96142Y19842D01*
X96251Y19017D01*
X96569Y18248D01*
X97076Y17588D01*
X97736Y17081D01*
X98505Y16762D01*
X99168Y16675D01*
X99454Y16113D01*
X95937Y12595D01*
X95925Y12604D01*
X95156Y12923D01*
X94331Y13031D01*
X93505Y12923D01*
X92736Y12604D01*
X92076Y12097D01*
X91569Y11437D01*
X91251Y10668D01*
X91142Y9843D01*
X91251Y9017D01*
X91569Y8248D01*
X91958Y7741D01*
X91741Y7141D01*
X86897D01*
X86688Y7741D01*
X87082Y8254D01*
X87399Y9020D01*
X87456Y9449D01*
X84331D01*
X81206D01*
X81262Y9020D01*
X81580Y8254D01*
X81973Y7741D01*
X81764Y7141D01*
X50352D01*
X50180Y7365D01*
X49643Y7777D01*
X49018Y8036D01*
X48346Y8124D01*
X47675Y8036D01*
X47050Y7777D01*
X46513Y7365D01*
X46101Y6828D01*
X45842Y6203D01*
X45753Y5531D01*
X45842Y4860D01*
X46101Y4235D01*
X46513Y3698D01*
X47050Y3286D01*
X47675Y3027D01*
X47922Y2994D01*
X48107Y2870D01*
X48957Y2701D01*
X243189D01*
X244039Y2870D01*
X244759Y3352D01*
X248420Y7013D01*
X248901Y7733D01*
X249070Y8583D01*
Y10048D01*
X249096Y10081D01*
X249355Y10707D01*
X249407Y11103D01*
X250031Y11328D01*
X258533Y2825D01*
X258863Y2605D01*
X259251Y2527D01*
X259252Y2527D01*
X291732D01*
X291732Y2527D01*
X292121Y2605D01*
X292450Y2825D01*
X297685Y8059D01*
X304539D01*
Y15563D01*
X296641D01*
X283988Y28216D01*
Y36949D01*
X283988Y36949D01*
X283911Y37337D01*
X283691Y37667D01*
X283691Y37667D01*
X281508Y39850D01*
Y42768D01*
X280543D01*
Y46130D01*
X281508D01*
Y50878D01*
X277547D01*
Y46130D01*
X278512D01*
Y42768D01*
X277547D01*
Y38020D01*
X280465D01*
X281957Y36528D01*
Y34982D01*
X281496Y34646D01*
X281357Y34646D01*
X279921D01*
Y32283D01*
Y29921D01*
X281357D01*
X281496Y29921D01*
X281957Y29585D01*
Y27795D01*
X281957Y27795D01*
X282034Y27407D01*
X282254Y27077D01*
X295461Y13871D01*
Y8708D01*
X291312Y4559D01*
X270091D01*
Y5904D01*
X270221Y6219D01*
X270310Y6890D01*
X270221Y7561D01*
X270091Y7875D01*
Y8477D01*
X269739D01*
X269550Y8723D01*
X269013Y9135D01*
X268388Y9394D01*
X267717Y9483D01*
X267440Y9446D01*
X267159Y10015D01*
X274734Y17589D01*
X274734Y17589D01*
X274954Y17919D01*
X275031Y18307D01*
X275031Y18307D01*
Y29910D01*
X275996D01*
Y34657D01*
X272035D01*
Y29910D01*
X273000D01*
Y18728D01*
X262749Y8477D01*
X259830D01*
Y5249D01*
X259230Y5001D01*
X248985Y15246D01*
X248656Y15466D01*
X248267Y15543D01*
X248267Y15543D01*
X236102D01*
X236102Y15543D01*
X235714Y15466D01*
X235484Y15313D01*
X235138Y15381D01*
X234442Y15243D01*
X233852Y14849D01*
X233458Y14259D01*
X233319Y13563D01*
X233458Y12867D01*
X233852Y12277D01*
X234442Y11883D01*
X235138Y11745D01*
X235834Y11883D01*
X236424Y12277D01*
X236818Y12867D01*
X236946Y13512D01*
X239402D01*
X239490Y12923D01*
X238720Y12604D01*
X238060Y12097D01*
X237553Y11437D01*
X237235Y10668D01*
X237126Y9843D01*
X237235Y9017D01*
X237553Y8248D01*
X237943Y7741D01*
X237725Y7141D01*
X232905D01*
X232687Y7741D01*
X233076Y8248D01*
X233395Y9017D01*
X233504Y9843D01*
X233395Y10668D01*
X233076Y11437D01*
X232570Y12097D01*
X231909Y12604D01*
X231330Y12844D01*
Y21607D01*
X231885Y21836D01*
X232475Y21247D01*
X232235Y20668D01*
X232126Y19842D01*
X232235Y19017D01*
X232553Y18248D01*
X233060Y17588D01*
X233720Y17081D01*
X234490Y16762D01*
X235315Y16654D01*
X236140Y16762D01*
X236909Y17081D01*
X237570Y17588D01*
X238076Y18248D01*
X238395Y19017D01*
X238504Y19842D01*
X238395Y20668D01*
X238076Y21437D01*
X237570Y22097D01*
X236909Y22604D01*
X236140Y22923D01*
X235315Y23031D01*
X234490Y22923D01*
X233911Y22683D01*
X232905Y23688D01*
Y36329D01*
X240049Y43473D01*
X242913D01*
X242913Y43473D01*
X243302Y43550D01*
X243632Y43770D01*
X244031Y44169D01*
X244631Y43921D01*
Y37738D01*
X244506Y37576D01*
X244247Y36951D01*
X244159Y36279D01*
X244247Y35608D01*
X244506Y34983D01*
X244918Y34446D01*
X245456Y34034D01*
X246081Y33775D01*
X246752Y33687D01*
X247423Y33775D01*
X248048Y34034D01*
X248586Y34446D01*
X248998Y34983D01*
X249257Y35608D01*
X249345Y36279D01*
X249257Y36951D01*
X249070Y37401D01*
Y48425D01*
Y56060D01*
X248901Y56910D01*
X248831Y57015D01*
Y58434D01*
X244870D01*
Y57015D01*
X244800Y56910D01*
X244631Y56060D01*
Y52460D01*
X244031Y52212D01*
X243095Y53147D01*
X243319Y53686D01*
X243319D01*
Y58434D01*
X241270D01*
X231589Y68115D01*
X231818Y68669D01*
X235406D01*
X239358Y64717D01*
Y61322D01*
X243319D01*
Y64240D01*
X244282Y65203D01*
X244882Y64954D01*
Y64089D01*
X246850D01*
X248819D01*
Y64327D01*
X249373Y64556D01*
X249923Y64006D01*
X249923Y64006D01*
X250253Y63786D01*
X250641Y63709D01*
X272035D01*
Y62350D01*
X275559D01*
Y59594D01*
X274954Y58988D01*
X272035D01*
Y54240D01*
X275996D01*
Y57158D01*
X276947Y58109D01*
X277547Y57861D01*
Y54240D01*
X281508D01*
Y55599D01*
X295426D01*
X299398Y51627D01*
Y47232D01*
X301961D01*
X302257Y46632D01*
X302105Y46434D01*
X301846Y45809D01*
X301757Y45138D01*
X301846Y44467D01*
X302105Y43841D01*
X302517Y43304D01*
X303054Y42892D01*
X303455Y42726D01*
X303336Y42126D01*
X299410D01*
Y37992D01*
X304921D01*
X310433D01*
Y42126D01*
X305365D01*
X305246Y42726D01*
X305647Y42892D01*
X306184Y43304D01*
X306596Y43841D01*
X306855Y44467D01*
X306943Y45138D01*
X306855Y45809D01*
X306596Y46434D01*
X306444Y46632D01*
X306740Y47232D01*
X309461D01*
Y50382D01*
Y53531D01*
Y56681D01*
Y59854D01*
X309449D01*
Y61024D01*
X304429D01*
X299409D01*
Y59854D01*
X299398D01*
Y58138D01*
X298843Y57908D01*
X291309Y65443D01*
X290979Y65663D01*
X290591Y65740D01*
X290591Y65740D01*
X281508D01*
Y67098D01*
X277590D01*
Y70461D01*
X281508D01*
Y73379D01*
X281820Y73691D01*
X281821Y73691D01*
X282041Y74021D01*
X282118Y74410D01*
Y81287D01*
X283476D01*
Y85642D01*
X278728D01*
Y81287D01*
X280087D01*
Y75209D01*
X277568D01*
X277513Y75484D01*
X277293Y75814D01*
X277293Y75814D01*
X276601Y76506D01*
X276272Y76726D01*
X275883Y76803D01*
X275883Y76803D01*
X275030D01*
X274774Y77403D01*
X274912Y77547D01*
X275602D01*
Y78738D01*
X275733Y79053D01*
X275821Y79724D01*
X275733Y80396D01*
X275602Y80711D01*
Y81902D01*
X274614D01*
X274525Y81970D01*
X273900Y82229D01*
X273228Y82317D01*
X272557Y82229D01*
X271932Y81970D01*
X271843Y81902D01*
X270854D01*
Y80711D01*
X270724Y80396D01*
X270635Y79724D01*
X270724Y79053D01*
X270854Y78738D01*
Y77547D01*
X271544D01*
X271683Y77403D01*
X271426Y76803D01*
X245473D01*
X245084Y76726D01*
X244754Y76506D01*
X244754Y76506D01*
X241953Y73705D01*
X239358D01*
Y72275D01*
X222977D01*
X207920Y87332D01*
X207590Y87552D01*
X207202Y87630D01*
X207202Y87630D01*
X205623D01*
X205375Y88230D01*
X205443Y88298D01*
X205663Y88627D01*
X205740Y89016D01*
X205663Y89404D01*
X205443Y89734D01*
X205113Y89954D01*
X204724Y90031D01*
X204336Y89954D01*
X204006Y89734D01*
X203871Y89598D01*
X203074D01*
X202770Y90031D01*
X202719Y90198D01*
X202789Y90551D01*
X202704Y90978D01*
X202462Y91340D01*
Y91731D01*
X202704Y92093D01*
X202789Y92520D01*
X202704Y92947D01*
X202462Y93309D01*
Y93699D01*
X202704Y94061D01*
X202789Y94488D01*
X202704Y94915D01*
X202462Y95277D01*
Y95668D01*
X202704Y96030D01*
X202789Y96457D01*
X202704Y96884D01*
X202462Y97246D01*
Y97636D01*
X202704Y97998D01*
X202789Y98425D01*
X202704Y98852D01*
X202462Y99214D01*
Y99605D01*
X202704Y99967D01*
X202789Y100394D01*
X202704Y100821D01*
X202462Y101183D01*
Y101573D01*
X202704Y101935D01*
X202789Y102362D01*
X202704Y102789D01*
X202462Y103151D01*
Y103542D01*
X202704Y103904D01*
X202789Y104331D01*
X202704Y104758D01*
X202462Y105120D01*
Y105510D01*
X202704Y105872D01*
X202789Y106299D01*
X202704Y106726D01*
X202609Y106869D01*
X202454Y107487D01*
X202693Y107845D01*
X202699Y107874D01*
X199705D01*
X196692D01*
X196663Y107769D01*
X196349Y107315D01*
X194810D01*
X192663Y109462D01*
X192645Y109554D01*
X192250Y110144D01*
X191660Y110538D01*
X190965Y110677D01*
X190269Y110538D01*
X189679Y110144D01*
X189285Y109554D01*
X189146Y108858D01*
X189207Y108551D01*
X189104Y108402D01*
X188687Y108094D01*
X188169Y108196D01*
X187473Y108058D01*
X186883Y107664D01*
X186489Y107074D01*
X186351Y106378D01*
X186489Y105682D01*
X186883Y105092D01*
X187473Y104698D01*
X188169Y104560D01*
X188865Y104698D01*
X189455Y105092D01*
X189636Y105362D01*
X191663D01*
X193086Y103939D01*
X192958Y103338D01*
X192906Y103271D01*
X192621Y103080D01*
X192621Y103080D01*
X187257Y97717D01*
X186760Y97963D01*
X186698Y98006D01*
X186562Y98688D01*
X186168Y99278D01*
X185578Y99672D01*
X184882Y99810D01*
X184563Y99747D01*
X183102Y101208D01*
Y111188D01*
X186450Y114536D01*
X192867D01*
X195916Y111487D01*
X196245Y111267D01*
X196370Y111242D01*
X196679Y110708D01*
X196690Y110589D01*
X196620Y110236D01*
X196705Y109809D01*
X196801Y109666D01*
X196956Y109048D01*
X196716Y108690D01*
X196711Y108661D01*
X199705D01*
X203038D01*
X203236Y108875D01*
X203575Y108808D01*
X204271Y108947D01*
X204861Y109341D01*
X205255Y109931D01*
X205393Y110626D01*
X205255Y111322D01*
X204861Y111912D01*
X204271Y112306D01*
X203575Y112445D01*
X203362Y112402D01*
X202704Y112632D01*
X202462Y112994D01*
Y113384D01*
X202704Y113746D01*
X202789Y114173D01*
X202782Y114208D01*
X202801Y114285D01*
X203243Y114792D01*
X214605D01*
X214605Y114792D01*
X214994Y114869D01*
X215323Y115089D01*
X219612Y119378D01*
X260426D01*
X262038Y117766D01*
X262367Y117546D01*
X262756Y117469D01*
X264832D01*
X265108Y117057D01*
X265763Y116619D01*
X266535Y116465D01*
X268694D01*
X268813Y115865D01*
X268487Y115730D01*
X268192Y115503D01*
X266535D01*
X265763Y115350D01*
X265108Y114912D01*
X264670Y114257D01*
X264516Y113484D01*
X264670Y112712D01*
X265108Y112057D01*
X265763Y111619D01*
X266535Y111465D01*
X268192D01*
X268487Y111239D01*
X268843Y111091D01*
X268723Y110491D01*
X266535D01*
X265767Y110338D01*
X265116Y109904D01*
X264681Y109252D01*
X264607Y108878D01*
X269783D01*
Y108484D01*
X270177D01*
Y106477D01*
X270669D01*
Y103347D01*
X290354Y83661D01*
X333630D01*
Y25591D01*
X316929Y25591D01*
X309055Y17717D01*
Y1016D01*
X25591D01*
X25591Y10261D01*
X26191Y10443D01*
X26191Y10443D01*
X26683Y10114D01*
X27264Y9998D01*
X31398D01*
X31978Y10114D01*
X32471Y10443D01*
X32800Y10935D01*
X32915Y11516D01*
Y13287D01*
X32800Y13867D01*
X37222Y18289D01*
X37351Y18482D01*
X37951Y18300D01*
Y18209D01*
X38067Y17628D01*
X38396Y17136D01*
X38888Y16807D01*
X39469Y16691D01*
X40619D01*
X40864Y16590D01*
X41535Y16501D01*
X42207Y16590D01*
X42452Y16691D01*
X42973D01*
X43221Y16091D01*
X41935Y14805D01*
X39469D01*
X38888Y14689D01*
X38396Y14360D01*
X38067Y13868D01*
X37951Y13287D01*
Y11516D01*
X38067Y10935D01*
X38396Y10443D01*
X38888Y10114D01*
X39469Y9998D01*
X43602D01*
X44183Y10114D01*
X44675Y10443D01*
X45004Y10935D01*
X45120Y11516D01*
Y13287D01*
X45004Y13867D01*
X47065Y15927D01*
X47372Y16387D01*
X47480Y16929D01*
Y21000D01*
X47372Y21542D01*
X47065Y22002D01*
X45315Y23752D01*
Y24791D01*
X46272D01*
Y28752D01*
X41524D01*
Y24791D01*
X42481D01*
Y23165D01*
X42588Y22623D01*
X42896Y22163D01*
X43007Y22052D01*
X42777Y21498D01*
X42452D01*
X42207Y21599D01*
X41535Y21688D01*
X40864Y21599D01*
X40619Y21498D01*
X39469D01*
X38888Y21382D01*
X38396Y21053D01*
X38238Y20817D01*
X37637Y20999D01*
Y24791D01*
X38594D01*
Y28752D01*
X33846D01*
Y24791D01*
X34804D01*
Y19878D01*
X33515Y18590D01*
X32915Y18838D01*
Y19980D01*
X32800Y20561D01*
X32471Y21053D01*
X31978Y21382D01*
X31398Y21498D01*
X29960D01*
Y24791D01*
X30917D01*
Y28752D01*
X26169D01*
Y24791D01*
X27126D01*
Y21470D01*
X26683Y21382D01*
X26191Y21053D01*
X25862Y20561D01*
X25746Y19980D01*
Y18409D01*
X25218Y18146D01*
X25168Y18140D01*
X17717Y25591D01*
X1016D01*
Y171260D01*
X17717D01*
X25591Y179134D01*
X25591Y195835D01*
X67566D01*
X67814Y195235D01*
D02*
G37*
G36*
X220014Y70138D02*
X219817Y69487D01*
X219757Y69475D01*
X219167Y69081D01*
X218773Y68491D01*
X218634Y67795D01*
X218773Y67099D01*
X219167Y66509D01*
X219757Y66115D01*
X220453Y65977D01*
X221056Y66097D01*
X222949Y64203D01*
X223279Y63983D01*
X223667Y63906D01*
X223667Y63906D01*
X230699D01*
X237764Y56840D01*
Y53799D01*
X237764Y53799D01*
X237841Y53411D01*
X238061Y53081D01*
X239744Y51399D01*
X239495Y50799D01*
X239358D01*
Y47881D01*
X229597Y38120D01*
X229377Y37790D01*
X229299Y37402D01*
X229299Y37401D01*
Y12844D01*
X228720Y12604D01*
X228060Y12097D01*
X227553Y11437D01*
X227235Y10668D01*
X227126Y9843D01*
X227235Y9017D01*
X227553Y8248D01*
X227942Y7741D01*
X227725Y7141D01*
X207471D01*
X207254Y7741D01*
X207643Y8248D01*
X207962Y9017D01*
X208070Y9843D01*
X207962Y10668D01*
X207643Y11437D01*
X207157Y12070D01*
Y17293D01*
X207757Y17488D01*
X208288Y17081D01*
X209056Y16762D01*
X209882Y16654D01*
X210707Y16762D01*
X211476Y17081D01*
X212137Y17588D01*
X212643Y18248D01*
X212962Y19017D01*
X213071Y19842D01*
X212962Y20668D01*
X212643Y21437D01*
X212137Y22097D01*
X211476Y22604D01*
X210897Y22844D01*
Y34403D01*
X211497Y34462D01*
X211548Y34206D01*
X211943Y33616D01*
X212532Y33222D01*
X213228Y33083D01*
X213924Y33222D01*
X214514Y33616D01*
X214908Y34206D01*
X215047Y34902D01*
X214983Y35220D01*
X215620Y35857D01*
X215620Y35857D01*
X215840Y36186D01*
X215917Y36575D01*
Y68357D01*
X216187Y68537D01*
X216582Y69127D01*
X216720Y69823D01*
X216582Y70519D01*
X216187Y71109D01*
X215597Y71503D01*
X214902Y71641D01*
X214721Y71605D01*
X214600Y71682D01*
X214260Y72125D01*
X214358Y72618D01*
X214219Y73314D01*
X213825Y73904D01*
X213235Y74298D01*
X212539Y74436D01*
X211843Y74298D01*
X211254Y73904D01*
X211138Y73732D01*
X211043Y73683D01*
X210380Y73677D01*
X207525Y76532D01*
X207723Y77183D01*
X207783Y77195D01*
X208372Y77589D01*
X208767Y78179D01*
X208905Y78875D01*
X208767Y79571D01*
X208372Y80161D01*
X207783Y80555D01*
X207087Y80694D01*
X206768Y80630D01*
X204368Y83030D01*
X204617Y83630D01*
X206522D01*
X220014Y70138D01*
D02*
G37*
G36*
X151969Y129762D02*
X152074Y129734D01*
X152528Y129420D01*
Y127740D01*
X150857Y126069D01*
X150683Y125809D01*
X150634Y125792D01*
X150350Y125760D01*
X150033Y125783D01*
X149750Y126207D01*
X149160Y126601D01*
X148465Y126740D01*
X147769Y126601D01*
X147179Y126207D01*
X147103Y126094D01*
X142570D01*
X141962Y126702D01*
X141633Y126923D01*
X141319Y126985D01*
X141273Y127015D01*
X140847Y127100D01*
X136909D01*
X136482Y127015D01*
X136120Y126773D01*
X135914Y126464D01*
X135814Y126399D01*
X135242Y126287D01*
X130324Y131206D01*
X130553Y131760D01*
X144553D01*
Y130807D01*
X144638Y130380D01*
X144880Y130018D01*
X145242Y129776D01*
X145669Y129691D01*
X146096Y129776D01*
X146458Y130018D01*
X146849D01*
X147211Y129776D01*
X147638Y129691D01*
X148065Y129776D01*
X148427Y130018D01*
X148817D01*
X149179Y129776D01*
X149606Y129691D01*
X150033Y129776D01*
X150176Y129871D01*
X150794Y130026D01*
X151152Y129787D01*
X151181Y129781D01*
Y132776D01*
X151969D01*
Y129762D01*
D02*
G37*
G36*
X185433Y129762D02*
X185538Y129734D01*
X185992Y129420D01*
Y129291D01*
X185992Y129291D01*
X186070Y128903D01*
X186290Y128573D01*
X187111Y127752D01*
X187159Y127513D01*
X187192Y127462D01*
X186872Y126862D01*
X170768D01*
X170768Y126862D01*
X170379Y126785D01*
X170050Y126565D01*
X170050Y126565D01*
X167563Y124078D01*
X167244Y124141D01*
X166883Y124069D01*
X166366Y124548D01*
X166370Y124567D01*
Y129406D01*
X166802Y129710D01*
X166970Y129761D01*
X167323Y129691D01*
X167750Y129776D01*
X168112Y130018D01*
X168502D01*
X168864Y129776D01*
X169291Y129691D01*
X169718Y129776D01*
X170080Y130018D01*
X170471D01*
X170833Y129776D01*
X171260Y129691D01*
X171687Y129776D01*
X172049Y130018D01*
X172439D01*
X172801Y129776D01*
X173228Y129691D01*
X173655Y129776D01*
X174017Y130018D01*
X174408D01*
X174770Y129776D01*
X175197Y129691D01*
X175624Y129776D01*
X175986Y130018D01*
X176376D01*
X176738Y129776D01*
X177165Y129691D01*
X177592Y129776D01*
X177954Y130018D01*
X178345D01*
X178707Y129776D01*
X179134Y129691D01*
X179561Y129776D01*
X179923Y130018D01*
X180313D01*
X180675Y129776D01*
X181102Y129691D01*
X181529Y129776D01*
X181662Y129865D01*
X182087Y129970D01*
X182511Y129865D01*
X182644Y129776D01*
X183071Y129691D01*
X183498Y129776D01*
X183641Y129871D01*
X184259Y130026D01*
X184617Y129787D01*
X184646Y129781D01*
Y132776D01*
X185433D01*
Y129762D01*
D02*
G37*
G36*
X207291Y38306D02*
Y23978D01*
X205423Y22110D01*
X205203Y21780D01*
X205126Y21392D01*
X205126Y21392D01*
Y13245D01*
X204882Y13031D01*
X204057Y12923D01*
X203288Y12604D01*
X202627Y12097D01*
X202120Y11437D01*
X201802Y10668D01*
X201693Y9843D01*
X201802Y9017D01*
X202120Y8248D01*
X202509Y7741D01*
X202292Y7141D01*
X197471D01*
X197254Y7741D01*
X197643Y8248D01*
X197962Y9017D01*
X198071Y9843D01*
X197962Y10668D01*
X197643Y11437D01*
X197137Y12097D01*
X196476Y12604D01*
X195707Y12923D01*
X194882Y13031D01*
X194056Y12923D01*
X193288Y12604D01*
X192627Y12097D01*
X192120Y11437D01*
X191802Y10668D01*
X191693Y9843D01*
X191802Y9017D01*
X192120Y8248D01*
X192509Y7741D01*
X192292Y7141D01*
X187449D01*
X187239Y7741D01*
X187633Y8254D01*
X187950Y9020D01*
X188007Y9449D01*
X184882D01*
X181757D01*
X181813Y9020D01*
X182131Y8254D01*
X182524Y7741D01*
X182315Y7141D01*
X162353D01*
X162136Y7741D01*
X162525Y8248D01*
X162844Y9017D01*
X162952Y9843D01*
X162844Y10668D01*
X162525Y11437D01*
X162019Y12097D01*
X161358Y12604D01*
X160589Y12923D01*
X159764Y13031D01*
X158939Y12923D01*
X158169Y12604D01*
X157509Y12097D01*
X157002Y11437D01*
X156684Y10668D01*
X156575Y9843D01*
X156684Y9017D01*
X157002Y8248D01*
X157391Y7741D01*
X157174Y7141D01*
X152353D01*
X152136Y7741D01*
X152525Y8248D01*
X152844Y9017D01*
X152952Y9843D01*
X152844Y10668D01*
X152525Y11437D01*
X152018Y12097D01*
X151358Y12604D01*
X150589Y12923D01*
X149764Y13031D01*
X148939Y12923D01*
X148169Y12604D01*
X147509Y12097D01*
X147002Y11437D01*
X146684Y10668D01*
X146575Y9843D01*
X146684Y9017D01*
X147002Y8248D01*
X147391Y7741D01*
X147174Y7141D01*
X142353D01*
X142136Y7741D01*
X142525Y8248D01*
X142844Y9017D01*
X142952Y9843D01*
X142844Y10668D01*
X142525Y11437D01*
X142018Y12097D01*
X141358Y12604D01*
X140589Y12923D01*
X139764Y13031D01*
X138938Y12923D01*
X138169Y12604D01*
X137509Y12097D01*
X137002Y11437D01*
X136684Y10668D01*
X136575Y9843D01*
X136684Y9017D01*
X137002Y8248D01*
X137391Y7741D01*
X137174Y7141D01*
X132330D01*
X132121Y7741D01*
X132515Y8254D01*
X132832Y9020D01*
X132889Y9449D01*
X129764D01*
X126639D01*
X126695Y9020D01*
X127013Y8254D01*
X127406Y7741D01*
X127197Y7141D01*
X106920D01*
X106703Y7741D01*
X107092Y8248D01*
X107411Y9017D01*
X107519Y9843D01*
X107411Y10668D01*
X107092Y11437D01*
X106585Y12097D01*
X105925Y12604D01*
X105156Y12923D01*
X104331Y13031D01*
X103505Y12923D01*
X102736Y12604D01*
X102076Y12097D01*
X101569Y11437D01*
X101251Y10668D01*
X101142Y9843D01*
X101251Y9017D01*
X101569Y8248D01*
X101958Y7741D01*
X101741Y7141D01*
X96920D01*
X96703Y7741D01*
X97092Y8248D01*
X97411Y9017D01*
X97519Y9843D01*
X97411Y10668D01*
X97256Y11042D01*
X103789Y17575D01*
X103789Y17575D01*
X104009Y17905D01*
X104086Y18293D01*
X104086Y18293D01*
Y20935D01*
X115834Y32683D01*
X116387Y32387D01*
X116351Y32205D01*
X116489Y31509D01*
X116884Y30919D01*
X117473Y30525D01*
X117621Y29884D01*
X117533Y29751D01*
X117394Y29055D01*
X117533Y28359D01*
X117927Y27769D01*
X118517Y27375D01*
X119213Y27237D01*
X119908Y27375D01*
X120498Y27769D01*
X120893Y28359D01*
X121031Y29055D01*
X120968Y29374D01*
X122468Y30874D01*
X154853D01*
X155174Y30274D01*
X155013Y30034D01*
X154875Y29338D01*
X155013Y28642D01*
X155407Y28052D01*
X155997Y27658D01*
X156693Y27520D01*
X157389Y27658D01*
X157979Y28052D01*
X158373Y28642D01*
X158504Y29299D01*
X194215D01*
X194215Y29299D01*
X194604Y29377D01*
X194933Y29597D01*
X203792Y38456D01*
X204080Y38427D01*
X204670Y38033D01*
X205365Y37895D01*
X206061Y38033D01*
X206651Y38427D01*
X206691Y38487D01*
X207291Y38306D01*
D02*
G37*
G36*
X305118Y177165D02*
X295276Y167323D01*
X280512D01*
X270669Y157480D01*
Y146354D01*
X270069Y146097D01*
X269569Y146304D01*
X268898Y146392D01*
X268227Y146304D01*
X267601Y146045D01*
X267064Y145633D01*
X266965Y145503D01*
X266535D01*
X265763Y145350D01*
X265108Y144912D01*
X264670Y144257D01*
X264516Y143484D01*
X264670Y142712D01*
X265108Y142057D01*
X265763Y141619D01*
X266535Y141465D01*
X267815D01*
X268227Y141295D01*
X268898Y141206D01*
X269569Y141295D01*
X269981Y141465D01*
X270669D01*
Y140491D01*
X270177D01*
Y138484D01*
Y136477D01*
X270669D01*
Y135503D01*
X266535D01*
X265763Y135350D01*
X265108Y134912D01*
X264832Y134500D01*
X197192D01*
X193614Y138078D01*
Y139794D01*
X193884Y139974D01*
X194278Y140564D01*
X194417Y141260D01*
X194278Y141956D01*
X193884Y142546D01*
X193294Y142940D01*
X192598Y143078D01*
X192388Y143036D01*
X192093Y143589D01*
X199811Y151307D01*
X254193D01*
X254193Y151307D01*
X254582Y151385D01*
X254911Y151605D01*
X274574Y171268D01*
X276077D01*
X276077Y171268D01*
X276465Y171345D01*
X276795Y171565D01*
X280246Y175016D01*
X280466Y175346D01*
X280543Y175734D01*
X280543Y175734D01*
Y183022D01*
X281122Y183262D01*
X281782Y183769D01*
X282289Y184429D01*
X282608Y185198D01*
X282716Y186024D01*
X282608Y186849D01*
X282289Y187618D01*
X281782Y188278D01*
X281122Y188785D01*
X280353Y189104D01*
X279528Y189212D01*
X278702Y189104D01*
X278123Y188864D01*
X276348Y190639D01*
X276019Y190859D01*
X275630Y190937D01*
X275630Y190937D01*
X219827D01*
X218550Y192214D01*
X218220Y192434D01*
X217831Y192512D01*
X217831Y192512D01*
X171093D01*
X169579Y194026D01*
X169249Y194246D01*
X168861Y194323D01*
X168861Y194323D01*
X112470D01*
X111558Y195235D01*
X111806Y195835D01*
X305118D01*
Y177165D01*
D02*
G37*
G36*
X272035Y70461D02*
X273000D01*
Y67098D01*
X272035D01*
Y65740D01*
X251062D01*
X249436Y67366D01*
X249106Y67587D01*
X248718Y67664D01*
X248717Y67664D01*
X244291D01*
X243903Y67587D01*
X243573Y67366D01*
X243573Y67366D01*
X242276Y66070D01*
X240879D01*
X237258Y69690D01*
X237488Y70244D01*
X239358D01*
Y68957D01*
X243319D01*
Y72198D01*
X244282Y73161D01*
X244882Y72912D01*
Y71724D01*
X246457D01*
Y73693D01*
X245663D01*
X245414Y74293D01*
X245893Y74772D01*
X272035D01*
Y70461D01*
D02*
G37*
G36*
X188791Y169465D02*
X188687Y168867D01*
X188124Y168491D01*
X187730Y167901D01*
X187591Y167205D01*
X187730Y166509D01*
X188124Y165919D01*
X188394Y165738D01*
Y165034D01*
X179241Y155882D01*
X174302D01*
X174302Y155882D01*
X173914Y155804D01*
X173584Y155584D01*
X173584Y155584D01*
X170472Y152472D01*
X169140D01*
X169140Y152472D01*
X168751Y152395D01*
X168685Y152351D01*
X168125Y152699D01*
X168164Y152992D01*
X168076Y153663D01*
X167816Y154289D01*
X167404Y154826D01*
X166867Y155238D01*
X166242Y155497D01*
X165571Y155585D01*
X164900Y155497D01*
X164274Y155238D01*
X163737Y154826D01*
X163325Y154289D01*
X163066Y153663D01*
X162978Y152992D01*
X163066Y152321D01*
X163325Y151696D01*
X163602Y151335D01*
X151875Y139607D01*
X151410Y139515D01*
X150821Y139120D01*
X150426Y138531D01*
X150288Y137835D01*
X150426Y137139D01*
X150793Y136589D01*
X150721Y136313D01*
X150661Y136172D01*
X150324Y136119D01*
X148653Y137790D01*
Y164596D01*
X153947Y169890D01*
X188434D01*
X188791Y169465D01*
D02*
G37*
G36*
X187961Y62299D02*
Y57541D01*
X187961Y57541D01*
X188038Y57152D01*
X188258Y56823D01*
X188855Y56226D01*
Y52707D01*
X195060D01*
Y53544D01*
X196169D01*
Y51583D01*
X200917D01*
X201228Y51112D01*
Y50486D01*
X200905Y50020D01*
X200628Y50020D01*
X198937D01*
Y48051D01*
Y46083D01*
X200628D01*
X200905Y46083D01*
X201228Y45616D01*
Y43219D01*
X192490Y34480D01*
X119429D01*
X119429Y34480D01*
X119041Y34403D01*
X118711Y34183D01*
X118711Y34183D01*
X118541Y34013D01*
X118009Y34071D01*
X117755Y34603D01*
X125345Y42193D01*
X172342D01*
X172342Y42193D01*
X172731Y42270D01*
X173061Y42490D01*
X178820Y48250D01*
X179040Y48579D01*
X179117Y48968D01*
X179117Y48968D01*
Y49980D01*
X179672Y50210D01*
X180255Y49626D01*
Y46108D01*
X182342D01*
Y43985D01*
X182342Y43985D01*
X182419Y43596D01*
X182639Y43267D01*
X182744Y43162D01*
Y40244D01*
X186705D01*
Y44992D01*
X184373D01*
Y46108D01*
X186460D01*
Y49812D01*
X182941D01*
X180692Y52062D01*
Y52719D01*
X182964D01*
Y54560D01*
Y56400D01*
X181998D01*
X181768Y56955D01*
X187361Y62547D01*
X187961Y62299D01*
D02*
G37*
G36*
X198042Y128514D02*
X198042Y128514D01*
X198371Y128294D01*
X198760Y128217D01*
X204470D01*
X204791Y127617D01*
X204757Y127566D01*
X204644Y127000D01*
X202123D01*
X202100Y127015D01*
X201673Y127100D01*
X197736D01*
X197309Y127015D01*
X196947Y126773D01*
X196705Y126411D01*
X196620Y125984D01*
X196705Y125557D01*
X196947Y125195D01*
Y124805D01*
X196705Y124443D01*
X196620Y124016D01*
X196705Y123589D01*
X196947Y123227D01*
Y122836D01*
X196705Y122474D01*
X196620Y122047D01*
X196705Y121620D01*
X196947Y121258D01*
Y120868D01*
X196705Y120506D01*
X196620Y120079D01*
X196705Y119652D01*
X196947Y119290D01*
Y118899D01*
X196705Y118537D01*
X196620Y118110D01*
X196705Y117683D01*
X196849Y117469D01*
X196700Y116962D01*
X196107Y116841D01*
X194120Y118828D01*
X193790Y119049D01*
X193401Y119126D01*
X193401Y119126D01*
X193395D01*
X193215Y119396D01*
X192625Y119790D01*
X191929Y119929D01*
X191233Y119790D01*
X190643Y119396D01*
X190249Y118806D01*
X190111Y118110D01*
X190249Y117414D01*
X190415Y117167D01*
X190094Y116567D01*
X186030D01*
X186029Y116567D01*
X185641Y116489D01*
X185311Y116269D01*
X185311Y116269D01*
X181369Y112327D01*
X181148Y111997D01*
X181071Y111608D01*
X181071Y111608D01*
Y100787D01*
X181071Y100787D01*
X181148Y100399D01*
X181369Y100069D01*
X183127Y98311D01*
X183063Y97992D01*
X183202Y97296D01*
X183596Y96706D01*
X184186Y96312D01*
X184868Y96176D01*
X184911Y96114D01*
X185157Y95617D01*
X178888Y89348D01*
X178668Y89018D01*
X178591Y88630D01*
X178591Y88630D01*
Y84788D01*
X175235Y81432D01*
X174998Y81385D01*
X174408Y80991D01*
X174014Y80401D01*
X173875Y79705D01*
X174014Y79009D01*
X174408Y78419D01*
X174998Y78025D01*
X175694Y77887D01*
X175749Y77898D01*
X176259Y77387D01*
X176238Y77283D01*
X176377Y76587D01*
X176771Y75998D01*
X177361Y75603D01*
X177238Y75019D01*
X177165Y75033D01*
X176738Y74948D01*
X176376Y74706D01*
X175986D01*
X175624Y74948D01*
X175197Y75033D01*
X174770Y74948D01*
X174627Y74853D01*
X174009Y74698D01*
X173651Y74937D01*
X173622Y74943D01*
Y71949D01*
X172835D01*
Y74943D01*
X172806Y74937D01*
X172448Y74698D01*
X171830Y74853D01*
X171687Y74948D01*
X171260Y75033D01*
X170907Y74963D01*
X170739Y75014D01*
X170307Y75318D01*
Y76683D01*
X170577Y76863D01*
X170971Y77453D01*
X171110Y78149D01*
X170971Y78845D01*
X170577Y79435D01*
X169987Y79829D01*
X169291Y79968D01*
X168596Y79829D01*
X168006Y79435D01*
X167611Y78845D01*
X167473Y78149D01*
X167611Y77453D01*
X167913Y77001D01*
X167894Y76847D01*
X167305Y76536D01*
X167253Y76536D01*
X166902Y76606D01*
X166902Y76606D01*
X164678D01*
X164536Y77206D01*
X164672Y77297D01*
X165066Y77887D01*
X165204Y78583D01*
X165066Y79279D01*
X164672Y79869D01*
X164082Y80263D01*
X163386Y80401D01*
X162690Y80263D01*
X162246Y79966D01*
X161751Y80147D01*
X161645Y80231D01*
Y89003D01*
X162246Y89185D01*
X162297Y89108D01*
X162887Y88714D01*
X163583Y88575D01*
X164278Y88714D01*
X164868Y89108D01*
X165263Y89698D01*
X165401Y90394D01*
X165263Y91090D01*
X164868Y91680D01*
X164278Y92074D01*
X163583Y92212D01*
X163220Y92752D01*
Y118809D01*
X165187Y120775D01*
X165187Y120775D01*
X165299Y120944D01*
X165889Y121027D01*
X166000Y121009D01*
X166548Y120643D01*
X167244Y120504D01*
X167940Y120643D01*
X168530Y121037D01*
X168924Y121627D01*
X169062Y122323D01*
X168999Y122642D01*
X171188Y124831D01*
X189817D01*
X189817Y124831D01*
X190206Y124908D01*
X190535Y125128D01*
X191919Y126512D01*
X192139Y126842D01*
X192216Y127230D01*
X192216Y127230D01*
Y129187D01*
X192216Y129187D01*
X192200Y129268D01*
X192247Y129352D01*
X192700Y129734D01*
X192913Y129691D01*
X193340Y129776D01*
X193702Y130018D01*
X193944Y130380D01*
X194029Y130807D01*
Y131760D01*
X194796D01*
X198042Y128514D01*
D02*
G37*
G36*
X151662Y116596D02*
Y82038D01*
X151151Y81527D01*
X147877D01*
X147488Y81450D01*
X147159Y81230D01*
X147159Y81230D01*
X144110Y78181D01*
X143285D01*
X143285Y78181D01*
X142896Y78104D01*
X142567Y77883D01*
X142567Y77883D01*
X138651Y73968D01*
X137129D01*
X137129Y73968D01*
X136741Y73891D01*
X136411Y73671D01*
X136411Y73671D01*
X134917Y72177D01*
X131870D01*
X131870Y72177D01*
X131481Y72100D01*
X131152Y71880D01*
X131152Y71880D01*
X129538Y70265D01*
X129318Y69936D01*
X129240Y69547D01*
X129240Y69547D01*
Y67821D01*
X129240Y67821D01*
X129318Y67432D01*
X129538Y67103D01*
X130921Y65719D01*
X131251Y65499D01*
X131640Y65421D01*
X131640Y65421D01*
X134071D01*
X134423Y64895D01*
X135013Y64501D01*
X135709Y64363D01*
X136405Y64501D01*
X136995Y64895D01*
X137389Y65485D01*
X137527Y66181D01*
X137389Y66877D01*
X137161Y67217D01*
X137594Y67650D01*
X138064Y67336D01*
X138760Y67197D01*
X139456Y67336D01*
X140046Y67730D01*
X140226Y68000D01*
X145138D01*
X145138Y68000D01*
X145526Y68077D01*
X145548Y68092D01*
X145981Y67659D01*
X145958Y67625D01*
X145819Y66929D01*
X145958Y66233D01*
X146352Y65643D01*
X146942Y65249D01*
X147638Y65111D01*
X148020Y65187D01*
X148316Y64634D01*
X146902Y63220D01*
X118525D01*
X115948Y65797D01*
X115619Y66017D01*
X115230Y66094D01*
X115230Y66094D01*
X113535D01*
X113535Y66094D01*
X113147Y66017D01*
X112817Y65797D01*
X112817Y65797D01*
X112142Y65122D01*
X102443D01*
X102214Y65676D01*
X116230Y79693D01*
X135508D01*
X135813Y79261D01*
X135864Y79093D01*
X135793Y78740D01*
X135879Y78313D01*
X136120Y77951D01*
X136482Y77709D01*
X136909Y77624D01*
X140847D01*
X141273Y77709D01*
X141636Y77951D01*
X141877Y78313D01*
X141962Y78740D01*
X141877Y79167D01*
X141636Y79529D01*
Y79920D01*
X141877Y80282D01*
X141962Y80709D01*
X141877Y81136D01*
X141636Y81498D01*
Y81888D01*
X141877Y82250D01*
X141962Y82677D01*
X141877Y83104D01*
X141782Y83247D01*
X141627Y83865D01*
X141866Y84223D01*
X141872Y84252D01*
X138878D01*
X135865D01*
X135837Y84147D01*
X135522Y83693D01*
X115551D01*
X115551Y83693D01*
X115163Y83615D01*
X114833Y83395D01*
X114833Y83395D01*
X99339Y67901D01*
X93618D01*
X93297Y68501D01*
X93586Y68934D01*
X93755Y69784D01*
X93638Y70370D01*
X93713Y70461D01*
X93713D01*
Y75209D01*
X92952D01*
Y75896D01*
X93388D01*
Y82101D01*
X89683D01*
Y80531D01*
X89083Y80472D01*
X89082Y80479D01*
X88687Y81069D01*
X88097Y81463D01*
X87402Y81602D01*
X86706Y81463D01*
X86116Y81069D01*
X86021Y80928D01*
X85472Y80943D01*
X85198Y81462D01*
X85282Y81588D01*
X85421Y82284D01*
X85282Y82979D01*
X84888Y83569D01*
X84723Y83680D01*
X84905Y84280D01*
X85522D01*
X85624Y84128D01*
X86214Y83733D01*
X86910Y83595D01*
X87605Y83733D01*
X88195Y84128D01*
X88589Y84718D01*
X88728Y85413D01*
X88589Y86109D01*
X88195Y86699D01*
X87605Y87093D01*
X86910Y87232D01*
X86214Y87093D01*
X85685Y86740D01*
X85652Y86755D01*
X85364Y86922D01*
X85186Y87074D01*
X85303Y87657D01*
X85164Y88353D01*
X84770Y88943D01*
X84222Y89310D01*
X84216Y89353D01*
X84566Y89896D01*
X85136Y89898D01*
X85309Y89639D01*
X85899Y89245D01*
X86594Y89107D01*
X87290Y89245D01*
X87880Y89639D01*
X88275Y90229D01*
X88413Y90925D01*
X88275Y91621D01*
X87880Y92211D01*
X87290Y92605D01*
X86594Y92744D01*
X85899Y92605D01*
X85309Y92211D01*
X85128Y91941D01*
X82862D01*
X82413Y92390D01*
Y98203D01*
X83013Y98524D01*
X83064Y98490D01*
X83759Y98352D01*
X84455Y98490D01*
X85045Y98884D01*
X85439Y99474D01*
X85578Y100170D01*
X85537Y100373D01*
X85983Y100915D01*
X86583Y100885D01*
Y97401D01*
X86583Y97401D01*
X86660Y97013D01*
X86880Y96683D01*
X90520Y93043D01*
Y90701D01*
X89683D01*
Y84496D01*
X93388D01*
Y90701D01*
X92551D01*
Y93464D01*
X92551Y93464D01*
X92474Y93853D01*
X92254Y94182D01*
X92254Y94182D01*
X88614Y97822D01*
Y100973D01*
X88692D01*
Y100985D01*
X89505D01*
X89886Y100521D01*
X89865Y100415D01*
X90003Y99719D01*
X90397Y99129D01*
X90987Y98735D01*
X91683Y98597D01*
X92379Y98735D01*
X92969Y99129D01*
X93363Y99719D01*
X93502Y100415D01*
X93363Y101111D01*
X92969Y101701D01*
X92699Y101881D01*
Y102608D01*
X92629Y102956D01*
Y104221D01*
X95877D01*
Y104925D01*
X96478Y105342D01*
X96850Y105268D01*
X97546Y105406D01*
X98136Y105801D01*
X98530Y106391D01*
X98669Y107086D01*
X98530Y107782D01*
X98430Y107932D01*
X98751Y108532D01*
X116489D01*
X116665Y108356D01*
X116703Y108298D01*
X119932Y105069D01*
X119932Y105069D01*
X119990Y105031D01*
X121032Y103989D01*
Y102893D01*
X120477Y102663D01*
X119194Y103946D01*
X118865Y104167D01*
X118476Y104244D01*
X118476Y104244D01*
X115907D01*
X115417Y104734D01*
X115088Y104954D01*
X114699Y105031D01*
X114699Y105031D01*
X110972D01*
X109734Y106269D01*
X109404Y106489D01*
X109016Y106567D01*
X109016Y106567D01*
X108730D01*
X108550Y106837D01*
X107960Y107231D01*
X107264Y107370D01*
X106568Y107231D01*
X105978Y106837D01*
X105584Y106247D01*
X105445Y105551D01*
X105584Y104855D01*
X105978Y104265D01*
X106306Y104046D01*
X106179Y103409D01*
X105899Y103353D01*
X105309Y102959D01*
X104914Y102369D01*
X104776Y101673D01*
X104914Y100977D01*
X105309Y100387D01*
X105899Y99993D01*
X106595Y99855D01*
X107290Y99993D01*
X107880Y100387D01*
X108061Y100658D01*
X109914D01*
X112038Y98534D01*
X112367Y98314D01*
X112756Y98236D01*
X112756Y98236D01*
X117577D01*
X127949Y87865D01*
X128279Y87644D01*
X128667Y87567D01*
X128667Y87567D01*
X135508D01*
X135813Y87135D01*
X135864Y86967D01*
X135793Y86614D01*
X135879Y86187D01*
X135974Y86044D01*
X136129Y85426D01*
X135890Y85068D01*
X135884Y85039D01*
X138878D01*
X142042D01*
X142294Y85300D01*
X142376Y85345D01*
X142852Y85251D01*
X143548Y85389D01*
X144138Y85783D01*
X144532Y86373D01*
X144670Y87069D01*
X144532Y87765D01*
X144138Y88355D01*
X143548Y88749D01*
X142852Y88888D01*
X142526Y88823D01*
X141877Y89010D01*
X141636Y89372D01*
Y89762D01*
X141877Y90124D01*
X141962Y90551D01*
X141877Y90978D01*
X141636Y91340D01*
Y91731D01*
X141877Y92093D01*
X141962Y92520D01*
X141877Y92947D01*
X141636Y93309D01*
Y93699D01*
X141877Y94061D01*
X141962Y94488D01*
X141877Y94915D01*
X141636Y95277D01*
Y95668D01*
X141877Y96030D01*
X141962Y96457D01*
X141877Y96884D01*
X141636Y97246D01*
Y97636D01*
X141877Y97998D01*
X141962Y98425D01*
X141877Y98852D01*
X141636Y99214D01*
Y99605D01*
X141877Y99967D01*
X141962Y100394D01*
X141877Y100821D01*
X141636Y101183D01*
Y101573D01*
X141877Y101935D01*
X141962Y102362D01*
X141877Y102789D01*
X141636Y103151D01*
Y103542D01*
X141877Y103904D01*
X141962Y104331D01*
X141877Y104758D01*
X141636Y105120D01*
Y105510D01*
X141877Y105872D01*
X141962Y106299D01*
X141877Y106726D01*
X141636Y107088D01*
Y107479D01*
X141877Y107841D01*
X141962Y108268D01*
X141892Y108621D01*
X141943Y108788D01*
X142248Y109221D01*
X143788D01*
X143788Y109221D01*
X144176Y109298D01*
X144506Y109518D01*
X150233Y115245D01*
X150233Y115245D01*
X150453Y115575D01*
X150530Y115963D01*
Y116156D01*
X150543Y116220D01*
Y116517D01*
X151106Y116818D01*
X151662Y116596D01*
D02*
G37*
G36*
X203275Y188306D02*
X202868Y187775D01*
X202550Y187006D01*
X202441Y186181D01*
X202550Y185356D01*
X202868Y184587D01*
X203375Y183926D01*
X204036Y183420D01*
X204614Y183180D01*
Y170831D01*
X202200Y168417D01*
X201645Y168646D01*
Y173180D01*
X202224Y173420D01*
X202885Y173926D01*
X203391Y174587D01*
X203710Y175356D01*
X203819Y176181D01*
X203710Y177006D01*
X203391Y177775D01*
X202885Y178436D01*
X202224Y178943D01*
X201455Y179261D01*
X200630Y179370D01*
X199805Y179261D01*
X199036Y178943D01*
X198375Y178436D01*
X197868Y177775D01*
X197550Y177006D01*
X197441Y176181D01*
X197550Y175356D01*
X197868Y174587D01*
X198375Y173926D01*
X199036Y173420D01*
X199614Y173180D01*
Y168059D01*
X199067Y167512D01*
X193519D01*
X193519Y167512D01*
X193130Y167434D01*
X192801Y167214D01*
X192801Y167214D01*
X191238Y165651D01*
X190772Y166034D01*
X191089Y166509D01*
X191228Y167205D01*
X191089Y167901D01*
X190695Y168491D01*
X190553Y168585D01*
X190680Y169222D01*
X190696Y169226D01*
X191286Y169620D01*
X191680Y170210D01*
X191818Y170905D01*
X191680Y171601D01*
X191286Y172191D01*
X190696Y172585D01*
X190000Y172724D01*
X189304Y172585D01*
X188714Y172191D01*
X188534Y171921D01*
X154535D01*
X154305Y172475D01*
X155013Y173183D01*
X155592Y172944D01*
X156417Y172835D01*
X157243Y172944D01*
X158012Y173262D01*
X158672Y173769D01*
X159179Y174429D01*
X159497Y175198D01*
X159606Y176024D01*
X159497Y176849D01*
X159179Y177618D01*
X158672Y178278D01*
X158012Y178785D01*
X157243Y179104D01*
X156417Y179212D01*
X155592Y179104D01*
X154823Y178785D01*
X154163Y178278D01*
X153656Y177618D01*
X153337Y176849D01*
X153229Y176024D01*
X153337Y175198D01*
X153577Y174620D01*
X144951Y165994D01*
X144731Y165664D01*
X144654Y165276D01*
X144654Y165276D01*
Y137110D01*
X144654Y137110D01*
X144731Y136722D01*
X144951Y136392D01*
X145043Y136301D01*
X144929Y135566D01*
X144880Y135533D01*
X144638Y135171D01*
X144553Y134744D01*
Y133791D01*
X130165D01*
X119795Y144161D01*
Y155771D01*
X120319Y156220D01*
X120354Y156213D01*
X121050Y156351D01*
X121640Y156746D01*
X122034Y157336D01*
X122173Y158031D01*
X122034Y158727D01*
X121640Y159317D01*
X121050Y159712D01*
X120354Y159850D01*
X119659Y159712D01*
X119069Y159317D01*
X118820Y158946D01*
X118220Y159128D01*
Y183180D01*
X118799Y183420D01*
X119459Y183926D01*
X119966Y184587D01*
X120285Y185356D01*
X120393Y186181D01*
X120285Y187006D01*
X119966Y187775D01*
X119559Y188306D01*
X119754Y188906D01*
X124678D01*
X124865Y188306D01*
X124453Y187769D01*
X124136Y187003D01*
X124080Y186575D01*
X130330D01*
X130273Y187003D01*
X129956Y187769D01*
X129544Y188306D01*
X129731Y188906D01*
X148995D01*
X149198Y188306D01*
X149163Y188278D01*
X148656Y187618D01*
X148337Y186849D01*
X148229Y186024D01*
X148337Y185198D01*
X148656Y184429D01*
X149163Y183769D01*
X149823Y183262D01*
X150592Y182944D01*
X151417Y182835D01*
X152243Y182944D01*
X153012Y183262D01*
X153672Y183769D01*
X154179Y184429D01*
X154497Y185198D01*
X154606Y186024D01*
X154497Y186849D01*
X154179Y187618D01*
X153672Y188278D01*
X153636Y188306D01*
X153840Y188906D01*
X158994D01*
X159198Y188306D01*
X159163Y188278D01*
X158656Y187618D01*
X158337Y186849D01*
X158229Y186024D01*
X158337Y185198D01*
X158656Y184429D01*
X159163Y183769D01*
X159823Y183262D01*
X160592Y182944D01*
X161417Y182835D01*
X162243Y182944D01*
X163012Y183262D01*
X163672Y183769D01*
X164179Y184429D01*
X164497Y185198D01*
X164606Y186024D01*
X164497Y186849D01*
X164179Y187618D01*
X163672Y188278D01*
X163636Y188306D01*
X163840Y188906D01*
X167099D01*
X168577Y187428D01*
X168337Y186849D01*
X168229Y186024D01*
X168337Y185198D01*
X168656Y184429D01*
X169163Y183769D01*
X169823Y183262D01*
X170592Y182944D01*
X171417Y182835D01*
X172243Y182944D01*
X173012Y183262D01*
X173672Y183769D01*
X174179Y184429D01*
X174497Y185198D01*
X174606Y186024D01*
X174497Y186849D01*
X174179Y187618D01*
X173672Y188278D01*
X173636Y188306D01*
X173840Y188906D01*
X179014D01*
X179218Y188306D01*
X179171Y188270D01*
X178666Y187612D01*
X178349Y186846D01*
X178292Y186417D01*
X184542D01*
X184486Y186846D01*
X184169Y187612D01*
X183664Y188270D01*
X183617Y188306D01*
X183821Y188906D01*
X203080D01*
X203275Y188306D01*
D02*
G37*
G36*
X147179Y123635D02*
X147769Y123241D01*
X148031Y123189D01*
X148502Y122649D01*
X148512Y122528D01*
Y116397D01*
X144760Y112645D01*
X144656Y112654D01*
X144148Y112882D01*
X144107Y113085D01*
X143887Y113415D01*
X143558Y113635D01*
X143169Y113712D01*
X142781Y113635D01*
X142451Y113415D01*
X141919Y113732D01*
X141892Y113820D01*
X141962Y114173D01*
X141877Y114600D01*
X141636Y114962D01*
Y115353D01*
X141877Y115715D01*
X141962Y116142D01*
X141877Y116569D01*
X141636Y116931D01*
Y117321D01*
X141877Y117683D01*
X141962Y118110D01*
X141877Y118537D01*
X141636Y118899D01*
Y119290D01*
X141877Y119652D01*
X141962Y120079D01*
X141877Y120506D01*
X141636Y120868D01*
Y121258D01*
X141877Y121620D01*
X141962Y122047D01*
X141877Y122474D01*
X141636Y122836D01*
Y123227D01*
X141877Y123589D01*
X142130Y124030D01*
X142537Y124063D01*
X146893D01*
X147179Y123635D01*
D02*
G37*
G36*
X100697Y123592D02*
Y120994D01*
X100427Y120813D01*
X100033Y120223D01*
X99894Y119528D01*
X100033Y118832D01*
X100093Y118742D01*
X99772Y118142D01*
X95877D01*
Y122158D01*
X95866D01*
Y122637D01*
X94094D01*
Y123425D01*
X95866D01*
Y124114D01*
X94006D01*
X93685Y124714D01*
X93806Y124895D01*
X93944Y125591D01*
X93806Y126286D01*
X93772Y126337D01*
X94093Y126937D01*
X97352D01*
X100697Y123592D01*
D02*
G37*
G36*
X257308Y188306D02*
X257273Y188278D01*
X256766Y187618D01*
X256448Y186849D01*
X256339Y186024D01*
X256448Y185198D01*
X256766Y184429D01*
X257273Y183769D01*
X257933Y183262D01*
X258512Y183022D01*
Y174259D01*
X257958Y174030D01*
X257368Y174620D01*
X257608Y175198D01*
X257716Y176024D01*
X257608Y176849D01*
X257289Y177618D01*
X256782Y178278D01*
X256122Y178785D01*
X255353Y179104D01*
X254528Y179212D01*
X253702Y179104D01*
X252933Y178785D01*
X252273Y178278D01*
X251766Y177618D01*
X251448Y176849D01*
X251339Y176024D01*
X251448Y175198D01*
X251766Y174429D01*
X252273Y173769D01*
X252933Y173262D01*
X253702Y172944D01*
X254528Y172835D01*
X255353Y172944D01*
X255932Y173183D01*
X256937Y172178D01*
Y165412D01*
X251163Y159638D01*
X203758D01*
X203529Y160192D01*
X211613Y168276D01*
X213484D01*
X213484Y168276D01*
X213872Y168353D01*
X214202Y168573D01*
X217054Y171425D01*
X222179D01*
X222179Y171425D01*
X222568Y171503D01*
X222897Y171723D01*
X226348Y175174D01*
X226568Y175503D01*
X226645Y175892D01*
X226645Y175892D01*
Y183180D01*
X227224Y183420D01*
X227885Y183926D01*
X228391Y184587D01*
X228710Y185356D01*
X228819Y186181D01*
X228710Y187006D01*
X228391Y187775D01*
X227984Y188306D01*
X228180Y188906D01*
X233103D01*
X233290Y188306D01*
X232879Y187769D01*
X232561Y187003D01*
X232505Y186575D01*
X238755D01*
X238699Y187003D01*
X238381Y187769D01*
X237970Y188306D01*
X238157Y188906D01*
X257105D01*
X257308Y188306D01*
D02*
G37*
%LPC*%
G36*
X275984Y40000D02*
X274410D01*
Y38032D01*
X275984D01*
Y40000D01*
D02*
G37*
G36*
X304528Y37205D02*
X299410D01*
Y33071D01*
X304528D01*
Y37205D01*
D02*
G37*
G36*
X279134Y34646D02*
X277559D01*
Y32677D01*
X279134D01*
Y34646D01*
D02*
G37*
G36*
X273622Y40000D02*
X272047D01*
Y38032D01*
X273622D01*
Y40000D01*
D02*
G37*
G36*
X331890Y37205D02*
X326772D01*
Y33071D01*
X331890D01*
Y37205D01*
D02*
G37*
G36*
X325984D02*
X320866D01*
Y33071D01*
X325984D01*
Y37205D01*
D02*
G37*
G36*
X310433Y37205D02*
X305315D01*
Y33071D01*
X310433D01*
Y37205D01*
D02*
G37*
G36*
X331890Y42126D02*
X326772D01*
Y37992D01*
X331890D01*
Y42126D01*
D02*
G37*
G36*
X325984D02*
X320866D01*
Y37992D01*
X325984D01*
Y42126D01*
D02*
G37*
G36*
X155453Y51279D02*
X153878D01*
Y49311D01*
X155453D01*
Y51279D01*
D02*
G37*
G36*
X12598Y57129D02*
X11670Y57007D01*
X10806Y56649D01*
X10063Y56079D01*
X9493Y55336D01*
X9135Y54471D01*
X9013Y53543D01*
X9135Y52615D01*
X9493Y51750D01*
X10063Y51008D01*
X10806Y50438D01*
X11670Y50080D01*
X12598Y49957D01*
X13526Y50080D01*
X14391Y50438D01*
X15134Y51008D01*
X15704Y51750D01*
X16062Y52615D01*
X16184Y53543D01*
X16062Y54471D01*
X15704Y55336D01*
X15134Y56079D01*
X14391Y56649D01*
X13526Y57007D01*
X12598Y57129D01*
D02*
G37*
G36*
X153091Y51279D02*
X151516D01*
Y49311D01*
X153091D01*
Y51279D01*
D02*
G37*
G36*
X155453Y54035D02*
X153878D01*
Y52067D01*
X155453D01*
Y54035D01*
D02*
G37*
G36*
X153091D02*
X151516D01*
Y52067D01*
X153091D01*
Y54035D01*
D02*
G37*
G36*
X85079Y52756D02*
X82348D01*
X82404Y52327D01*
X82721Y51561D01*
X83226Y50903D01*
X83884Y50398D01*
X84650Y50081D01*
X85079Y50025D01*
Y52756D01*
D02*
G37*
G36*
X88597D02*
X85866D01*
Y50025D01*
X86295Y50081D01*
X87061Y50398D01*
X87719Y50903D01*
X88224Y51561D01*
X88541Y52327D01*
X88597Y52756D01*
D02*
G37*
G36*
X275984Y42756D02*
X274410D01*
Y40787D01*
X275984D01*
Y42756D01*
D02*
G37*
G36*
X273622D02*
X272047D01*
Y40787D01*
X273622D01*
Y42756D01*
D02*
G37*
G36*
X314961Y48877D02*
X314034Y48693D01*
X313249Y48168D01*
X312724Y47383D01*
X312540Y46457D01*
X312724Y45530D01*
X313249Y44745D01*
X314034Y44220D01*
X314961Y44036D01*
X315887Y44220D01*
X316672Y44745D01*
X317197Y45530D01*
X317381Y46457D01*
X317197Y47383D01*
X316672Y48168D01*
X315887Y48693D01*
X314961Y48877D01*
D02*
G37*
G36*
X274016Y51018D02*
X273345Y50930D01*
X273219Y50878D01*
X272035D01*
Y50068D01*
X271770Y49722D01*
X271511Y49096D01*
X271423Y48425D01*
X271511Y47754D01*
X271770Y47129D01*
X272035Y46783D01*
Y46130D01*
X272839D01*
X273345Y45921D01*
X274016Y45832D01*
X274687Y45921D01*
X275192Y46130D01*
X275996D01*
Y46783D01*
X276261Y47129D01*
X276520Y47754D01*
X276609Y48425D01*
X276520Y49096D01*
X276261Y49722D01*
X275996Y50068D01*
Y50878D01*
X274812D01*
X274687Y50930D01*
X274016Y51018D01*
D02*
G37*
G36*
X283268Y15551D02*
X279134D01*
Y12205D01*
X283268D01*
Y15551D01*
D02*
G37*
G36*
X78819Y20515D02*
X77891Y20393D01*
X77026Y20034D01*
X76283Y19465D01*
X75713Y18722D01*
X75355Y17857D01*
X75233Y16929D01*
X75355Y16001D01*
X75713Y15136D01*
X76283Y14394D01*
X77026Y13824D01*
X77891Y13465D01*
X78819Y13343D01*
X79747Y13465D01*
X80612Y13824D01*
X81354Y14394D01*
X81924Y15136D01*
X82283Y16001D01*
X82405Y16929D01*
X82283Y17857D01*
X81924Y18722D01*
X81354Y19465D01*
X80612Y20034D01*
X79747Y20393D01*
X78819Y20515D01*
D02*
G37*
G36*
X93110Y38243D02*
X92261Y38074D01*
X91541Y37593D01*
X91059Y36873D01*
X90890Y36024D01*
X91059Y35174D01*
X91541Y34454D01*
X91693Y34352D01*
Y30183D01*
X90152Y28642D01*
X89844Y28182D01*
X89736Y27640D01*
Y23387D01*
X89331Y23031D01*
X88505Y22923D01*
X87736Y22604D01*
X87076Y22097D01*
X86569Y21437D01*
X86251Y20668D01*
X86142Y19842D01*
X86251Y19017D01*
X86569Y18248D01*
X87076Y17588D01*
X87736Y17081D01*
X88505Y16762D01*
X89331Y16654D01*
X90156Y16762D01*
X90925Y17081D01*
X91585Y17588D01*
X92092Y18248D01*
X92411Y19017D01*
X92519Y19842D01*
X92411Y20668D01*
X92314Y20901D01*
X92463Y21123D01*
X92571Y21665D01*
Y27053D01*
X94112Y28594D01*
X94419Y29054D01*
X94527Y29596D01*
Y34352D01*
X94680Y34454D01*
X95161Y35174D01*
X95330Y36024D01*
X95161Y36873D01*
X94680Y37593D01*
X93960Y38074D01*
X93110Y38243D01*
D02*
G37*
G36*
X278346Y15551D02*
X274213D01*
Y12205D01*
X278346D01*
Y15551D01*
D02*
G37*
G36*
Y11417D02*
X274213D01*
Y8071D01*
X278346D01*
Y11417D01*
D02*
G37*
G36*
X283268D02*
X279134D01*
Y8071D01*
X283268D01*
Y11417D01*
D02*
G37*
G36*
X84724Y12968D02*
Y10236D01*
X87456D01*
X87399Y10665D01*
X87082Y11431D01*
X86577Y12089D01*
X85919Y12594D01*
X85153Y12911D01*
X84724Y12968D01*
D02*
G37*
G36*
X83937Y12968D02*
X83508Y12911D01*
X82742Y12594D01*
X82084Y12089D01*
X81580Y11431D01*
X81262Y10665D01*
X81206Y10236D01*
X83937D01*
Y12968D01*
D02*
G37*
G36*
X38594Y34264D02*
X33846D01*
Y30303D01*
X36104D01*
X36279Y30268D01*
X36455Y30303D01*
X38594D01*
Y34264D01*
D02*
G37*
G36*
X28327Y34338D02*
X27953Y34264D01*
X26169D01*
Y30303D01*
X30917D01*
Y34264D01*
X28700D01*
X28327Y34338D01*
D02*
G37*
G36*
X69303Y28752D02*
X64555D01*
Y24791D01*
X65512D01*
Y23755D01*
X65620Y23213D01*
X65927Y22753D01*
X66629Y22052D01*
X66399Y21498D01*
X66074D01*
X65829Y21599D01*
X65158Y21688D01*
X64486Y21599D01*
X64241Y21498D01*
X63090D01*
X62510Y21382D01*
X62018Y21053D01*
X61689Y20561D01*
X61573Y19980D01*
Y18209D01*
X61689Y17628D01*
X62018Y17136D01*
X62510Y16807D01*
X63090Y16691D01*
X64241D01*
X64486Y16590D01*
X65158Y16501D01*
X65829Y16590D01*
X66074Y16691D01*
X66595D01*
X66843Y16091D01*
X65557Y14805D01*
X63090D01*
X62510Y14689D01*
X62018Y14360D01*
X61689Y13868D01*
X61573Y13287D01*
Y11516D01*
X61689Y10935D01*
X62018Y10443D01*
X62510Y10114D01*
X63090Y9998D01*
X67224D01*
X67805Y10114D01*
X68297Y10443D01*
X68626Y10935D01*
X68742Y11516D01*
Y13287D01*
X68626Y13867D01*
X70687Y15927D01*
X70994Y16387D01*
X71102Y16929D01*
Y21000D01*
X70994Y21542D01*
X70687Y22002D01*
X68497Y24191D01*
X68711Y24791D01*
X69303D01*
Y28752D01*
D02*
G37*
G36*
X279134Y31890D02*
X277559D01*
Y29921D01*
X279134D01*
Y31890D01*
D02*
G37*
G36*
X58563Y62094D02*
X57867Y61956D01*
X57277Y61561D01*
X56883Y60971D01*
X56745Y60276D01*
X56883Y59580D01*
X57277Y58990D01*
X57547Y58809D01*
Y34264D01*
X56878D01*
Y30303D01*
X61626D01*
Y34264D01*
X59579D01*
Y58809D01*
X59849Y58990D01*
X60243Y59580D01*
X60381Y60276D01*
X60243Y60971D01*
X59849Y61561D01*
X59259Y61956D01*
X58563Y62094D01*
D02*
G37*
G36*
X69303Y34264D02*
X64555D01*
Y30303D01*
X69303D01*
Y34264D01*
D02*
G37*
G36*
X46272D02*
X41524D01*
Y30303D01*
X46272D01*
Y34264D01*
D02*
G37*
G36*
X53949D02*
X49201D01*
Y30303D01*
X53949D01*
Y34264D01*
D02*
G37*
G36*
X245709Y22967D02*
Y20236D01*
X248440D01*
X248383Y20665D01*
X248066Y21431D01*
X247561Y22089D01*
X246903Y22594D01*
X246137Y22911D01*
X245709Y22967D01*
D02*
G37*
G36*
X61626Y28752D02*
X56878D01*
Y24791D01*
X57835D01*
Y19288D01*
X57137Y18590D01*
X56537Y18838D01*
Y19980D01*
X56422Y20561D01*
X56093Y21053D01*
X55600Y21382D01*
X55020Y21498D01*
X52992D01*
Y24791D01*
X53949D01*
Y28752D01*
X49201D01*
Y24791D01*
X50158D01*
Y21284D01*
X49813Y21053D01*
X49484Y20561D01*
X49369Y19980D01*
Y18209D01*
X49484Y17628D01*
X49813Y17136D01*
X50305Y16807D01*
X50886Y16691D01*
X54390D01*
X54639Y16091D01*
X53352Y14805D01*
X50886D01*
X50305Y14689D01*
X49813Y14360D01*
X49484Y13868D01*
X49369Y13287D01*
Y11516D01*
X49484Y10935D01*
X49813Y10443D01*
X50305Y10114D01*
X50886Y9998D01*
X55020D01*
X55600Y10114D01*
X56093Y10443D01*
X56422Y10935D01*
X56537Y11516D01*
Y13287D01*
X56422Y13867D01*
X60254Y17699D01*
X60561Y18158D01*
X60669Y18701D01*
Y24791D01*
X61626D01*
Y28752D01*
D02*
G37*
G36*
X244921Y22967D02*
X244493Y22911D01*
X243726Y22594D01*
X243069Y22089D01*
X242564Y21431D01*
X242246Y20665D01*
X242190Y20236D01*
X244921D01*
Y22967D01*
D02*
G37*
G36*
Y19449D02*
X242190D01*
X242246Y19020D01*
X242564Y18254D01*
X243069Y17596D01*
X243726Y17091D01*
X244493Y16774D01*
X244921Y16718D01*
Y19449D01*
D02*
G37*
G36*
X248440D02*
X245709D01*
Y16718D01*
X246137Y16774D01*
X246903Y17091D01*
X247561Y17596D01*
X248066Y18254D01*
X248383Y19020D01*
X248440Y19449D01*
D02*
G37*
G36*
X67466Y181311D02*
X63111D01*
Y176956D01*
X65184D01*
Y173831D01*
X64030D01*
Y169083D01*
X69172D01*
Y173831D01*
X68018D01*
Y177821D01*
X67910Y178364D01*
X67603Y178823D01*
X67466Y178960D01*
Y181311D01*
D02*
G37*
G36*
X73700D02*
X69345D01*
Y176956D01*
X71696D01*
X71746Y176906D01*
Y173831D01*
X70592D01*
Y169083D01*
X75734D01*
Y173831D01*
X74580D01*
Y177493D01*
X74472Y178035D01*
X74165Y178495D01*
X73700Y178960D01*
Y181311D01*
D02*
G37*
G36*
X79724Y167751D02*
X79053Y167662D01*
X78738Y167532D01*
X77153D01*
Y165326D01*
X77131Y165157D01*
X77153Y164989D01*
Y162784D01*
X78738D01*
X79053Y162653D01*
X79724Y162565D01*
X80396Y162653D01*
X80711Y162784D01*
X82295D01*
Y164989D01*
X82317Y165157D01*
X82295Y165326D01*
Y167532D01*
X80711D01*
X80396Y167662D01*
X79724Y167751D01*
D02*
G37*
G36*
X61233Y181311D02*
X56878D01*
Y176956D01*
X58622D01*
Y173831D01*
X57468D01*
Y169083D01*
X62610D01*
Y173831D01*
X61456D01*
Y178149D01*
X61348Y178692D01*
X61233Y178865D01*
Y181311D01*
D02*
G37*
G36*
X79933D02*
X75578D01*
Y176956D01*
X77929D01*
X78307Y176578D01*
Y173831D01*
X77153D01*
Y169083D01*
X82295D01*
Y173831D01*
X81141D01*
Y177165D01*
X81033Y177707D01*
X80726Y178167D01*
X79933Y178960D01*
Y181311D01*
D02*
G37*
G36*
X73130Y167751D02*
X72459Y167662D01*
X72143Y167532D01*
X70592D01*
Y165575D01*
X70537Y165157D01*
X70592Y164740D01*
Y162784D01*
X72143D01*
X72459Y162653D01*
X73130Y162564D01*
X73801Y162653D01*
X74116Y162784D01*
X75734D01*
Y167532D01*
X74116D01*
X73801Y167662D01*
X73130Y167751D01*
D02*
G37*
G36*
X12598Y124058D02*
X11670Y123936D01*
X10806Y123578D01*
X10063Y123008D01*
X9493Y122265D01*
X9135Y121400D01*
X9013Y120472D01*
X9135Y119544D01*
X9493Y118679D01*
X10063Y117937D01*
X10806Y117367D01*
X11670Y117009D01*
X12598Y116887D01*
X13526Y117009D01*
X14391Y117367D01*
X15134Y117937D01*
X15704Y118679D01*
X16062Y119544D01*
X16184Y120472D01*
X16062Y121400D01*
X15704Y122265D01*
X15134Y123008D01*
X14391Y123578D01*
X13526Y123936D01*
X12598Y124058D01*
D02*
G37*
G36*
X10079Y97180D02*
Y94449D01*
X12810D01*
X12754Y94877D01*
X12436Y95644D01*
X11931Y96301D01*
X11273Y96806D01*
X10507Y97124D01*
X10079Y97180D01*
D02*
G37*
G36*
X269390Y108091D02*
X264607D01*
X264681Y107716D01*
X265116Y107065D01*
X265767Y106630D01*
X266535Y106477D01*
X269390D01*
Y108091D01*
D02*
G37*
G36*
X60039Y167751D02*
X59368Y167662D01*
X59053Y167532D01*
X57468D01*
Y165326D01*
X57446Y165157D01*
X57468Y164989D01*
Y162784D01*
X59053D01*
X59368Y162653D01*
X60039Y162564D01*
X60711Y162653D01*
X61026Y162784D01*
X62610D01*
Y164989D01*
X62632Y165157D01*
X62610Y165326D01*
Y167532D01*
X61026D01*
X60711Y167662D01*
X60039Y167751D01*
D02*
G37*
G36*
X66601D02*
X65930Y167662D01*
X65614Y167532D01*
X64030D01*
Y165326D01*
X64008Y165157D01*
X64030Y164989D01*
Y162784D01*
X65614D01*
X65930Y162653D01*
X66601Y162564D01*
X67272Y162653D01*
X67588Y162784D01*
X69172D01*
Y164989D01*
X69194Y165157D01*
X69172Y165326D01*
Y167532D01*
X67588D01*
X67272Y167662D01*
X66601Y167751D01*
D02*
G37*
G36*
X39370Y158892D02*
X38699Y158804D01*
X38074Y158545D01*
X37728Y158280D01*
X36996D01*
Y157286D01*
X36865Y156970D01*
X36777Y156299D01*
X36865Y155628D01*
X36996Y155313D01*
Y154319D01*
X37728D01*
X38074Y154054D01*
X38699Y153795D01*
X39370Y153706D01*
X40041Y153795D01*
X40667Y154054D01*
X41012Y154319D01*
X41744D01*
Y155313D01*
X41875Y155628D01*
X41963Y156299D01*
X41875Y156970D01*
X41744Y157286D01*
Y158280D01*
X41012D01*
X40667Y158545D01*
X40041Y158804D01*
X39370Y158892D01*
D02*
G37*
G36*
X9291Y97180D02*
X8863Y97124D01*
X8097Y96806D01*
X7439Y96301D01*
X6934Y95644D01*
X6617Y94877D01*
X6560Y94449D01*
X9291D01*
Y97180D01*
D02*
G37*
G36*
X304035Y62992D02*
X299409D01*
Y61811D01*
X304035D01*
Y62992D01*
D02*
G37*
G36*
X309449D02*
X304823D01*
Y61811D01*
X309449D01*
Y62992D01*
D02*
G37*
G36*
X248819Y63302D02*
X247244D01*
Y61333D01*
X248819D01*
Y63302D01*
D02*
G37*
G36*
X314961Y66200D02*
X314034Y66016D01*
X313249Y65491D01*
X312724Y64706D01*
X312540Y63779D01*
X312724Y62853D01*
X313249Y62068D01*
X314034Y61543D01*
X314961Y61359D01*
X315887Y61543D01*
X316672Y62068D01*
X317197Y62853D01*
X317381Y63779D01*
X317197Y64706D01*
X316672Y65491D01*
X315887Y66016D01*
X314961Y66200D01*
D02*
G37*
G36*
X325984Y72244D02*
X320866D01*
Y68110D01*
X325984D01*
Y72244D01*
D02*
G37*
G36*
X331890D02*
X326772D01*
Y68110D01*
X331890D01*
Y72244D01*
D02*
G37*
G36*
X304528Y72244D02*
X299410D01*
Y68110D01*
X304528D01*
Y72244D01*
D02*
G37*
G36*
X310433D02*
X305315D01*
Y68110D01*
X310433D01*
Y72244D01*
D02*
G37*
G36*
X246457Y63302D02*
X244882D01*
Y61333D01*
X246457D01*
Y63302D01*
D02*
G37*
G36*
X153091Y57185D02*
X151516D01*
Y55216D01*
X153091D01*
Y57185D01*
D02*
G37*
G36*
X85079Y56275D02*
X84650Y56218D01*
X83884Y55901D01*
X83226Y55396D01*
X82721Y54738D01*
X82404Y53972D01*
X82348Y53543D01*
X85079D01*
Y56275D01*
D02*
G37*
G36*
X85866Y56274D02*
Y53543D01*
X88597D01*
X88541Y53972D01*
X88224Y54738D01*
X87719Y55396D01*
X87061Y55901D01*
X86295Y56218D01*
X85866Y56274D01*
D02*
G37*
G36*
X153091Y59941D02*
X151516D01*
Y57972D01*
X153091D01*
Y59941D01*
D02*
G37*
G36*
X155453D02*
X153878D01*
Y57972D01*
X155453D01*
Y59941D01*
D02*
G37*
G36*
Y57185D02*
X153878D01*
Y55216D01*
X155453D01*
Y57185D01*
D02*
G37*
G36*
X19685Y62244D02*
X18860Y62135D01*
X18091Y61817D01*
X17430Y61310D01*
X16924Y60650D01*
X16605Y59880D01*
X16496Y59055D01*
X16605Y58230D01*
X16924Y57461D01*
X17430Y56800D01*
X18091Y56294D01*
X18860Y55975D01*
X19685Y55866D01*
X20510Y55975D01*
X21279Y56294D01*
X21940Y56800D01*
X22446Y57461D01*
X22765Y58230D01*
X22874Y59055D01*
X22765Y59880D01*
X22446Y60650D01*
X21940Y61310D01*
X21279Y61817D01*
X20510Y62135D01*
X19685Y62244D01*
D02*
G37*
G36*
X275602Y89382D02*
X270854D01*
Y87492D01*
X263750D01*
X263569Y87762D01*
X262979Y88156D01*
X262283Y88295D01*
X261588Y88156D01*
X260998Y87762D01*
X260603Y87172D01*
X260465Y86476D01*
X260603Y85781D01*
X260998Y85191D01*
X261588Y84796D01*
X262283Y84658D01*
X262979Y84796D01*
X263569Y85191D01*
X263750Y85461D01*
X270854D01*
Y85028D01*
X275602D01*
Y89382D01*
D02*
G37*
G36*
X9291Y93661D02*
X6560D01*
X6617Y93233D01*
X6934Y92467D01*
X7439Y91809D01*
X8097Y91304D01*
X8863Y90987D01*
X9291Y90930D01*
Y93661D01*
D02*
G37*
G36*
X12810D02*
X10079D01*
Y90930D01*
X10507Y90987D01*
X11273Y91304D01*
X11931Y91809D01*
X12436Y92467D01*
X12754Y93233D01*
X12810Y93661D01*
D02*
G37*
G36*
X331890Y77165D02*
X326772D01*
Y73032D01*
X331890D01*
Y77165D01*
D02*
G37*
G36*
X310433D02*
X305315D01*
Y73032D01*
X310433D01*
Y77165D01*
D02*
G37*
G36*
X325984D02*
X320866D01*
Y73032D01*
X325984D01*
Y77165D01*
D02*
G37*
G36*
X304528D02*
X299410D01*
Y73032D01*
X304528D01*
Y77165D01*
D02*
G37*
G36*
X224803Y20515D02*
X223875Y20393D01*
X223010Y20034D01*
X222268Y19465D01*
X221698Y18722D01*
X221339Y17857D01*
X221217Y16929D01*
X221339Y16001D01*
X221698Y15136D01*
X222268Y14394D01*
X223010Y13824D01*
X223875Y13465D01*
X224803Y13343D01*
X225731Y13465D01*
X226596Y13824D01*
X227339Y14394D01*
X227908Y15136D01*
X228267Y16001D01*
X228389Y16929D01*
X228267Y17857D01*
X227908Y18722D01*
X227339Y19465D01*
X226596Y20034D01*
X225731Y20393D01*
X224803Y20515D01*
D02*
G37*
G36*
X124252D02*
X123324Y20393D01*
X122459Y20034D01*
X121716Y19465D01*
X121147Y18722D01*
X120788Y17857D01*
X120666Y16929D01*
X120788Y16001D01*
X121147Y15136D01*
X121716Y14394D01*
X122459Y13824D01*
X123324Y13465D01*
X124252Y13343D01*
X125180Y13465D01*
X126045Y13824D01*
X126787Y14394D01*
X127357Y15136D01*
X127716Y16001D01*
X127838Y16929D01*
X127716Y17857D01*
X127357Y18722D01*
X126787Y19465D01*
X126045Y20034D01*
X125180Y20393D01*
X124252Y20515D01*
D02*
G37*
G36*
X179370D02*
X178442Y20393D01*
X177577Y20034D01*
X176834Y19465D01*
X176265Y18722D01*
X175906Y17857D01*
X175784Y16929D01*
X175906Y16001D01*
X176265Y15136D01*
X176834Y14394D01*
X177577Y13824D01*
X178442Y13465D01*
X179370Y13343D01*
X180298Y13465D01*
X181163Y13824D01*
X181905Y14394D01*
X182475Y15136D01*
X182834Y16001D01*
X182956Y16929D01*
X182834Y17857D01*
X182475Y18722D01*
X181905Y19465D01*
X181163Y20034D01*
X180298Y20393D01*
X179370Y20515D01*
D02*
G37*
G36*
X109331Y23031D02*
X108505Y22923D01*
X107736Y22604D01*
X107076Y22097D01*
X106569Y21437D01*
X106251Y20668D01*
X106142Y19842D01*
X106251Y19017D01*
X106569Y18248D01*
X107076Y17588D01*
X107736Y17081D01*
X108505Y16762D01*
X109331Y16654D01*
X110156Y16762D01*
X110925Y17081D01*
X111585Y17588D01*
X112092Y18248D01*
X112411Y19017D01*
X112519Y19842D01*
X112411Y20668D01*
X112092Y21437D01*
X111585Y22097D01*
X110925Y22604D01*
X110156Y22923D01*
X109331Y23031D01*
D02*
G37*
G36*
X134764D02*
X133939Y22923D01*
X133169Y22604D01*
X132509Y22097D01*
X132002Y21437D01*
X131684Y20668D01*
X131575Y19842D01*
X131684Y19017D01*
X132002Y18248D01*
X132509Y17588D01*
X133169Y17081D01*
X133939Y16762D01*
X134764Y16654D01*
X135589Y16762D01*
X136358Y17081D01*
X137019Y17588D01*
X137525Y18248D01*
X137844Y19017D01*
X137952Y19842D01*
X137844Y20668D01*
X137525Y21437D01*
X137019Y22097D01*
X136358Y22604D01*
X135589Y22923D01*
X134764Y23031D01*
D02*
G37*
G36*
X184488Y12968D02*
X184060Y12911D01*
X183293Y12594D01*
X182635Y12089D01*
X182131Y11431D01*
X181813Y10665D01*
X181757Y10236D01*
X184488D01*
Y12968D01*
D02*
G37*
G36*
X129370D02*
X128942Y12911D01*
X128175Y12594D01*
X127517Y12089D01*
X127013Y11431D01*
X126695Y10665D01*
X126639Y10236D01*
X129370D01*
Y12968D01*
D02*
G37*
G36*
X185276Y12968D02*
Y10236D01*
X188007D01*
X187950Y10665D01*
X187633Y11431D01*
X187128Y12089D01*
X186470Y12594D01*
X185704Y12911D01*
X185276Y12968D01*
D02*
G37*
G36*
X130157D02*
Y10236D01*
X132889D01*
X132832Y10665D01*
X132515Y11431D01*
X132010Y12089D01*
X131352Y12594D01*
X130586Y12911D01*
X130157Y12968D01*
D02*
G37*
G36*
X144764Y23031D02*
X143939Y22923D01*
X143169Y22604D01*
X142509Y22097D01*
X142002Y21437D01*
X141684Y20668D01*
X141575Y19842D01*
X141684Y19017D01*
X142002Y18248D01*
X142509Y17588D01*
X143169Y17081D01*
X143939Y16762D01*
X144764Y16654D01*
X145589Y16762D01*
X146358Y17081D01*
X147019Y17588D01*
X147525Y18248D01*
X147844Y19017D01*
X147952Y19842D01*
X147844Y20668D01*
X147525Y21437D01*
X147019Y22097D01*
X146358Y22604D01*
X145589Y22923D01*
X144764Y23031D01*
D02*
G37*
G36*
X189882D02*
X189057Y22923D01*
X188287Y22604D01*
X187627Y22097D01*
X187120Y21437D01*
X186802Y20668D01*
X186693Y19842D01*
X186802Y19017D01*
X187120Y18248D01*
X187627Y17588D01*
X188287Y17081D01*
X189057Y16762D01*
X189882Y16654D01*
X190707Y16762D01*
X191476Y17081D01*
X192137Y17588D01*
X192643Y18248D01*
X192962Y19017D01*
X193070Y19842D01*
X192962Y20668D01*
X192643Y21437D01*
X192137Y22097D01*
X191476Y22604D01*
X190707Y22923D01*
X189882Y23031D01*
D02*
G37*
G36*
X199882D02*
X199056Y22923D01*
X198287Y22604D01*
X197627Y22097D01*
X197120Y21437D01*
X196802Y20668D01*
X196693Y19842D01*
X196802Y19017D01*
X197120Y18248D01*
X197627Y17588D01*
X198287Y17081D01*
X199056Y16762D01*
X199882Y16654D01*
X200707Y16762D01*
X201476Y17081D01*
X202137Y17588D01*
X202643Y18248D01*
X202962Y19017D01*
X203070Y19842D01*
X202962Y20668D01*
X202643Y21437D01*
X202137Y22097D01*
X201476Y22604D01*
X200707Y22923D01*
X199882Y23031D01*
D02*
G37*
G36*
X154764D02*
X153938Y22923D01*
X153169Y22604D01*
X152509Y22097D01*
X152002Y21437D01*
X151684Y20668D01*
X151575Y19842D01*
X151684Y19017D01*
X152002Y18248D01*
X152509Y17588D01*
X153169Y17081D01*
X153938Y16762D01*
X154764Y16654D01*
X155589Y16762D01*
X156358Y17081D01*
X157018Y17588D01*
X157525Y18248D01*
X157844Y19017D01*
X157952Y19842D01*
X157844Y20668D01*
X157525Y21437D01*
X157018Y22097D01*
X156358Y22604D01*
X155589Y22923D01*
X154764Y23031D01*
D02*
G37*
G36*
X164764D02*
X163938Y22923D01*
X163169Y22604D01*
X162509Y22097D01*
X162002Y21437D01*
X161684Y20668D01*
X161575Y19842D01*
X161684Y19017D01*
X162002Y18248D01*
X162509Y17588D01*
X163169Y17081D01*
X163938Y16762D01*
X164764Y16654D01*
X165589Y16762D01*
X166358Y17081D01*
X167018Y17588D01*
X167525Y18248D01*
X167844Y19017D01*
X167952Y19842D01*
X167844Y20668D01*
X167525Y21437D01*
X167018Y22097D01*
X166358Y22604D01*
X165589Y22923D01*
X164764Y23031D01*
D02*
G37*
G36*
X269390Y138091D02*
X264607D01*
X264681Y137716D01*
X265116Y137065D01*
X265767Y136630D01*
X266535Y136477D01*
X269390D01*
Y138091D01*
D02*
G37*
G36*
Y140491D02*
X266535D01*
X265767Y140339D01*
X265116Y139903D01*
X264681Y139252D01*
X264607Y138878D01*
X269390D01*
Y140491D01*
D02*
G37*
G36*
X289134Y185630D02*
X286403D01*
X286459Y185201D01*
X286776Y184435D01*
X287281Y183777D01*
X287939Y183273D01*
X288705Y182955D01*
X289134Y182899D01*
Y185630D01*
D02*
G37*
G36*
X292653D02*
X289921D01*
Y182899D01*
X290350Y182955D01*
X291116Y183273D01*
X291774Y183777D01*
X292279Y184435D01*
X292596Y185201D01*
X292653Y185630D01*
D02*
G37*
G36*
X289134Y189149D02*
X288705Y189092D01*
X287939Y188775D01*
X287281Y188270D01*
X286776Y187612D01*
X286459Y186846D01*
X286403Y186417D01*
X289134D01*
Y189149D01*
D02*
G37*
G36*
X289921D02*
Y186417D01*
X292653D01*
X292596Y186846D01*
X292279Y187612D01*
X291774Y188270D01*
X291116Y188775D01*
X290350Y189092D01*
X289921Y189149D01*
D02*
G37*
G36*
X284528Y179212D02*
X283702Y179104D01*
X282933Y178785D01*
X282273Y178278D01*
X281766Y177618D01*
X281448Y176849D01*
X281339Y176024D01*
X281448Y175198D01*
X281766Y174429D01*
X282273Y173769D01*
X282933Y173262D01*
X283702Y172944D01*
X284528Y172835D01*
X285353Y172944D01*
X286122Y173262D01*
X286782Y173769D01*
X287289Y174429D01*
X287608Y175198D01*
X287716Y176024D01*
X287608Y176849D01*
X287289Y177618D01*
X286782Y178278D01*
X286122Y178785D01*
X285353Y179104D01*
X284528Y179212D01*
D02*
G37*
G36*
X295039Y182523D02*
X294111Y182401D01*
X293247Y182042D01*
X292504Y181473D01*
X291934Y180730D01*
X291576Y179865D01*
X291454Y178937D01*
X291576Y178009D01*
X291934Y177144D01*
X292504Y176401D01*
X293247Y175832D01*
X294111Y175473D01*
X295039Y175351D01*
X295967Y175473D01*
X296832Y175832D01*
X297575Y176401D01*
X298145Y177144D01*
X298503Y178009D01*
X298625Y178937D01*
X298503Y179865D01*
X298145Y180730D01*
X297575Y181473D01*
X296832Y182042D01*
X295967Y182401D01*
X295039Y182523D01*
D02*
G37*
G36*
X246457Y70937D02*
X244882D01*
Y68968D01*
X246457D01*
Y70937D01*
D02*
G37*
G36*
X248819D02*
X247244D01*
Y68968D01*
X248819D01*
Y70937D01*
D02*
G37*
G36*
Y73693D02*
X247244D01*
Y71724D01*
X248819D01*
Y73693D01*
D02*
G37*
G36*
X189842Y42224D02*
X188268D01*
Y40256D01*
X189842D01*
Y42224D01*
D02*
G37*
G36*
X195048Y49800D02*
X192351D01*
Y48353D01*
X195048D01*
Y49800D01*
D02*
G37*
G36*
X198150Y50020D02*
X196181D01*
Y48445D01*
X198150D01*
Y50020D01*
D02*
G37*
G36*
X186448Y54166D02*
X183751D01*
Y52719D01*
X186448D01*
Y54166D01*
D02*
G37*
G36*
X191564Y49800D02*
X188867D01*
Y48353D01*
X191564D01*
Y49800D01*
D02*
G37*
G36*
X189842Y44980D02*
X188268D01*
Y43012D01*
X189842D01*
Y44980D01*
D02*
G37*
G36*
X192205D02*
X190630D01*
Y43012D01*
X192205D01*
Y44980D01*
D02*
G37*
G36*
Y42224D02*
X190630D01*
Y40256D01*
X192205D01*
Y42224D01*
D02*
G37*
G36*
X191564Y47566D02*
X188867D01*
Y46119D01*
X191564D01*
Y47566D01*
D02*
G37*
G36*
X195048D02*
X192351D01*
Y46119D01*
X195048D01*
Y47566D01*
D02*
G37*
G36*
X198150Y47657D02*
X196181D01*
Y46083D01*
X198150D01*
Y47657D01*
D02*
G37*
G36*
X186448Y56400D02*
X183751D01*
Y54953D01*
X186448D01*
Y56400D01*
D02*
G37*
G36*
X99976Y87205D02*
X98136D01*
X96295D01*
Y84508D01*
X97085D01*
X97268Y83908D01*
X96849Y83628D01*
X96455Y83038D01*
X96384Y82681D01*
X96380Y82661D01*
X96380Y82660D01*
X96316Y82342D01*
X96283Y82101D01*
X96283Y82101D01*
Y75896D01*
X99988D01*
Y82101D01*
X99988Y82101D01*
X99953Y82342D01*
X99890Y82660D01*
X99890Y82660D01*
X99886Y82680D01*
X99815Y83038D01*
X99421Y83628D01*
X99002Y83908D01*
X99184Y84508D01*
X99976D01*
Y87205D01*
D02*
G37*
G36*
X96850Y75197D02*
X95276D01*
Y73228D01*
X96850D01*
Y75197D01*
D02*
G37*
G36*
X99213D02*
X97638D01*
Y73228D01*
X99213D01*
Y75197D01*
D02*
G37*
G36*
X97742Y90689D02*
X96295D01*
Y87992D01*
X97742D01*
Y90689D01*
D02*
G37*
G36*
X99976D02*
X98529D01*
Y87992D01*
X99976D01*
Y90689D01*
D02*
G37*
G36*
X96850Y72441D02*
X95276D01*
Y70472D01*
X96850D01*
Y72441D01*
D02*
G37*
G36*
X99213D02*
X97638D01*
Y70472D01*
X99213D01*
Y72441D01*
D02*
G37*
G36*
X166417Y179212D02*
X165592Y179104D01*
X164823Y178785D01*
X164163Y178278D01*
X163656Y177618D01*
X163337Y176849D01*
X163229Y176024D01*
X163337Y175198D01*
X163656Y174429D01*
X164163Y173769D01*
X164823Y173262D01*
X165592Y172944D01*
X166417Y172835D01*
X167243Y172944D01*
X168012Y173262D01*
X168672Y173769D01*
X169179Y174429D01*
X169497Y175198D01*
X169606Y176024D01*
X169497Y176849D01*
X169179Y177618D01*
X168672Y178278D01*
X168012Y178785D01*
X167243Y179104D01*
X166417Y179212D01*
D02*
G37*
G36*
X176417D02*
X175592Y179104D01*
X174823Y178785D01*
X174163Y178278D01*
X173656Y177618D01*
X173337Y176849D01*
X173229Y176024D01*
X173337Y175198D01*
X173656Y174429D01*
X174163Y173769D01*
X174823Y173262D01*
X175592Y172944D01*
X176417Y172835D01*
X177243Y172944D01*
X178012Y173262D01*
X178672Y173769D01*
X179179Y174429D01*
X179497Y175198D01*
X179606Y176024D01*
X179497Y176849D01*
X179179Y177618D01*
X178672Y178278D01*
X178012Y178785D01*
X177243Y179104D01*
X176417Y179212D01*
D02*
G37*
G36*
X146417D02*
X145592Y179104D01*
X144823Y178785D01*
X144163Y178278D01*
X143656Y177618D01*
X143337Y176849D01*
X143229Y176024D01*
X143337Y175198D01*
X143656Y174429D01*
X144163Y173769D01*
X144823Y173262D01*
X145592Y172944D01*
X146417Y172835D01*
X147243Y172944D01*
X148012Y173262D01*
X148672Y173769D01*
X149179Y174429D01*
X149497Y175198D01*
X149606Y176024D01*
X149497Y176849D01*
X149179Y177618D01*
X148672Y178278D01*
X148012Y178785D01*
X147243Y179104D01*
X146417Y179212D01*
D02*
G37*
G36*
X126811Y185787D02*
X124080D01*
X124136Y185359D01*
X124453Y184593D01*
X124958Y183935D01*
X125616Y183430D01*
X126383Y183113D01*
X126811Y183056D01*
Y185787D01*
D02*
G37*
G36*
X130330D02*
X127598D01*
Y183056D01*
X128027Y183113D01*
X128793Y183430D01*
X129451Y183935D01*
X129956Y184593D01*
X130273Y185359D01*
X130330Y185787D01*
D02*
G37*
G36*
X184542Y185630D02*
X181811D01*
Y182899D01*
X182239Y182955D01*
X183006Y183273D01*
X183664Y183777D01*
X184169Y184435D01*
X184486Y185201D01*
X184542Y185630D01*
D02*
G37*
G36*
X186929Y182523D02*
X186001Y182401D01*
X185136Y182042D01*
X184394Y181473D01*
X183824Y180730D01*
X183466Y179865D01*
X183343Y178937D01*
X183466Y178009D01*
X183824Y177144D01*
X184394Y176401D01*
X185136Y175832D01*
X186001Y175473D01*
X186929Y175351D01*
X187857Y175473D01*
X188722Y175832D01*
X189465Y176401D01*
X190034Y177144D01*
X190393Y178009D01*
X190515Y178937D01*
X190393Y179865D01*
X190034Y180730D01*
X189465Y181473D01*
X188722Y182042D01*
X187857Y182401D01*
X186929Y182523D01*
D02*
G37*
G36*
X122205Y179370D02*
X121379Y179261D01*
X120610Y178943D01*
X119950Y178436D01*
X119443Y177775D01*
X119125Y177006D01*
X119016Y176181D01*
X119125Y175356D01*
X119443Y174587D01*
X119950Y173926D01*
X120610Y173420D01*
X121379Y173101D01*
X122205Y172992D01*
X123030Y173101D01*
X123799Y173420D01*
X124460Y173926D01*
X124966Y174587D01*
X125285Y175356D01*
X125393Y176181D01*
X125285Y177006D01*
X124966Y177775D01*
X124460Y178436D01*
X123799Y178943D01*
X123030Y179261D01*
X122205Y179370D01*
D02*
G37*
G36*
X181024Y185630D02*
X178292D01*
X178349Y185201D01*
X178666Y184435D01*
X179171Y183777D01*
X179829Y183273D01*
X180595Y182955D01*
X181024Y182899D01*
Y185630D01*
D02*
G37*
G36*
X132717Y182680D02*
X131789Y182558D01*
X130924Y182200D01*
X130181Y181630D01*
X129611Y180887D01*
X129253Y180023D01*
X129131Y179095D01*
X129253Y178166D01*
X129611Y177302D01*
X130181Y176559D01*
X130924Y175989D01*
X131789Y175631D01*
X132717Y175509D01*
X133645Y175631D01*
X134509Y175989D01*
X135252Y176559D01*
X135822Y177302D01*
X136180Y178166D01*
X136302Y179095D01*
X136180Y180023D01*
X135822Y180887D01*
X135252Y181630D01*
X134509Y182200D01*
X133645Y182558D01*
X132717Y182680D01*
D02*
G37*
G36*
X235236Y185787D02*
X232505D01*
X232561Y185359D01*
X232879Y184593D01*
X233384Y183935D01*
X234042Y183430D01*
X234808Y183113D01*
X235236Y183056D01*
Y185787D01*
D02*
G37*
G36*
X238755D02*
X236024D01*
Y183056D01*
X236452Y183113D01*
X237218Y183430D01*
X237876Y183935D01*
X238381Y184593D01*
X238699Y185359D01*
X238755Y185787D01*
D02*
G37*
G36*
X230630Y179370D02*
X229805Y179261D01*
X229036Y178943D01*
X228375Y178436D01*
X227868Y177775D01*
X227550Y177006D01*
X227441Y176181D01*
X227550Y175356D01*
X227868Y174587D01*
X228375Y173926D01*
X229036Y173420D01*
X229805Y173101D01*
X230630Y172992D01*
X231455Y173101D01*
X232224Y173420D01*
X232885Y173926D01*
X233391Y174587D01*
X233710Y175356D01*
X233819Y176181D01*
X233710Y177006D01*
X233391Y177775D01*
X232885Y178436D01*
X232224Y178943D01*
X231455Y179261D01*
X230630Y179370D01*
D02*
G37*
G36*
X241142Y182680D02*
X240214Y182558D01*
X239349Y182200D01*
X238606Y181630D01*
X238036Y180887D01*
X237678Y180023D01*
X237556Y179095D01*
X237678Y178166D01*
X238036Y177302D01*
X238606Y176559D01*
X239349Y175989D01*
X240214Y175631D01*
X241142Y175509D01*
X242070Y175631D01*
X242935Y175989D01*
X243677Y176559D01*
X244247Y177302D01*
X244605Y178166D01*
X244727Y179095D01*
X244605Y180023D01*
X244247Y180887D01*
X243677Y181630D01*
X242935Y182200D01*
X242070Y182558D01*
X241142Y182680D01*
D02*
G37*
%LPD*%
D10*
X153484Y57579D02*
D03*
X158996D02*
D03*
X153484Y51673D02*
D03*
X158996D02*
D03*
X279528Y72835D02*
D03*
X274016D02*
D03*
X279528Y64724D02*
D03*
X274016D02*
D03*
X279528Y56614D02*
D03*
X274016D02*
D03*
Y48504D02*
D03*
X279528D02*
D03*
X274016Y40394D02*
D03*
X279528D02*
D03*
Y32283D02*
D03*
X274016D02*
D03*
X246850Y48425D02*
D03*
X241339D02*
D03*
X246850Y71331D02*
D03*
X241339D02*
D03*
X246850Y63696D02*
D03*
X241339D02*
D03*
X246850Y56060D02*
D03*
X241339D02*
D03*
X91732Y72835D02*
D03*
X97244D02*
D03*
X190236Y42618D02*
D03*
X184724D02*
D03*
D11*
X166083Y49705D02*
D03*
Y59547D02*
D03*
D12*
X304429Y48819D02*
D03*
Y51968D02*
D03*
Y55118D02*
D03*
Y58268D02*
D03*
Y61417D02*
D03*
D13*
X304921Y37598D02*
D03*
Y72638D02*
D03*
X326378D02*
D03*
Y37598D02*
D03*
D14*
X269783Y143484D02*
D03*
Y138484D02*
D03*
Y133484D02*
D03*
Y128484D02*
D03*
Y123484D02*
D03*
Y118484D02*
D03*
Y113484D02*
D03*
Y108484D02*
D03*
X289272Y143484D02*
D03*
Y138484D02*
D03*
Y133484D02*
D03*
Y128484D02*
D03*
Y123484D02*
D03*
Y118484D02*
D03*
Y113484D02*
D03*
Y108484D02*
D03*
D15*
X300000Y11811D02*
D03*
X278740D02*
D03*
D16*
X262008Y6299D02*
D03*
X267914D02*
D03*
D17*
X39370Y156299D02*
D03*
Y150787D02*
D03*
Y144488D02*
D03*
Y138976D02*
D03*
Y120866D02*
D03*
Y115354D02*
D03*
Y132677D02*
D03*
Y127165D02*
D03*
X28543Y26772D02*
D03*
Y32283D02*
D03*
X36220Y32283D02*
D03*
Y26772D02*
D03*
X43898Y32283D02*
D03*
Y26772D02*
D03*
X51575D02*
D03*
Y32283D02*
D03*
X59252D02*
D03*
Y26772D02*
D03*
X66929Y32283D02*
D03*
Y26772D02*
D03*
X198543Y48051D02*
D03*
Y53563D02*
D03*
D18*
X29331Y12402D02*
D03*
Y19094D02*
D03*
X41535Y12402D02*
D03*
Y19094D02*
D03*
X52953Y12402D02*
D03*
Y19094D02*
D03*
X65158Y12402D02*
D03*
Y19094D02*
D03*
D19*
X60039Y165157D02*
D03*
Y171457D02*
D03*
X66601Y165157D02*
D03*
Y171457D02*
D03*
X73163Y165157D02*
D03*
Y171457D02*
D03*
X79724Y165157D02*
D03*
Y171457D02*
D03*
D20*
X191957Y54560D02*
D03*
X183358D02*
D03*
Y47960D02*
D03*
X191957D02*
D03*
D21*
X59055Y185040D02*
D03*
Y179134D02*
D03*
X65289Y185040D02*
D03*
Y179134D02*
D03*
X71522Y185040D02*
D03*
Y179134D02*
D03*
X77756Y185040D02*
D03*
Y179134D02*
D03*
D22*
X145669Y71949D02*
D03*
X147638D02*
D03*
X149606D02*
D03*
X151575D02*
D03*
X153543D02*
D03*
X155512D02*
D03*
X157480D02*
D03*
X159449D02*
D03*
X161417D02*
D03*
X163386D02*
D03*
X165354D02*
D03*
X167323D02*
D03*
X169291D02*
D03*
X171260D02*
D03*
X173228D02*
D03*
X175197D02*
D03*
X177165D02*
D03*
X179134D02*
D03*
X181102D02*
D03*
X183071D02*
D03*
X185039D02*
D03*
X187008D02*
D03*
X188976D02*
D03*
X190945D02*
D03*
X192913D02*
D03*
Y132776D02*
D03*
X190945D02*
D03*
X188976D02*
D03*
X187008D02*
D03*
X185039D02*
D03*
X183071D02*
D03*
X181102D02*
D03*
X179134D02*
D03*
X177165D02*
D03*
X175197D02*
D03*
X173228D02*
D03*
X171260D02*
D03*
X169291D02*
D03*
X167323D02*
D03*
X165354D02*
D03*
X163386D02*
D03*
X161417D02*
D03*
X159449D02*
D03*
X157480D02*
D03*
X155512D02*
D03*
X153543D02*
D03*
X151575D02*
D03*
X149606D02*
D03*
X147638D02*
D03*
X145669D02*
D03*
D23*
X199705Y78740D02*
D03*
Y80709D02*
D03*
Y82677D02*
D03*
Y84646D02*
D03*
Y86614D02*
D03*
Y88583D02*
D03*
Y90551D02*
D03*
Y92520D02*
D03*
Y94488D02*
D03*
Y96457D02*
D03*
Y98425D02*
D03*
Y100394D02*
D03*
Y102362D02*
D03*
Y104331D02*
D03*
Y106299D02*
D03*
Y108268D02*
D03*
Y110236D02*
D03*
Y112205D02*
D03*
Y114173D02*
D03*
Y116142D02*
D03*
Y118110D02*
D03*
Y120079D02*
D03*
Y122047D02*
D03*
Y124016D02*
D03*
Y125984D02*
D03*
X138878D02*
D03*
Y124016D02*
D03*
Y122047D02*
D03*
Y120079D02*
D03*
Y118110D02*
D03*
Y116142D02*
D03*
Y114173D02*
D03*
Y112205D02*
D03*
Y110236D02*
D03*
Y108268D02*
D03*
Y106299D02*
D03*
Y104331D02*
D03*
Y102362D02*
D03*
Y100394D02*
D03*
Y98425D02*
D03*
Y96457D02*
D03*
Y94488D02*
D03*
Y92520D02*
D03*
Y90551D02*
D03*
Y88583D02*
D03*
Y86614D02*
D03*
Y84646D02*
D03*
Y82677D02*
D03*
Y80709D02*
D03*
Y78740D02*
D03*
D24*
X281102Y83465D02*
D03*
X273228Y79724D02*
D03*
Y87205D02*
D03*
D25*
X82677Y114173D02*
D03*
D26*
X91535Y125590D02*
D03*
X89567D02*
D03*
X87598D02*
D03*
X85630D02*
D03*
X83661D02*
D03*
X81693D02*
D03*
X79724D02*
D03*
X77756D02*
D03*
X75787D02*
D03*
X73819D02*
D03*
Y102756D02*
D03*
X75787D02*
D03*
X77756D02*
D03*
X79724D02*
D03*
X81693D02*
D03*
X83661D02*
D03*
X85630D02*
D03*
X87598D02*
D03*
X89567D02*
D03*
X91535D02*
D03*
D27*
X71260Y123031D02*
D03*
Y121063D02*
D03*
Y119094D02*
D03*
Y117126D02*
D03*
Y115157D02*
D03*
Y113189D02*
D03*
Y111220D02*
D03*
Y109252D02*
D03*
Y107283D02*
D03*
Y105315D02*
D03*
X94094D02*
D03*
Y107283D02*
D03*
Y109252D02*
D03*
Y111220D02*
D03*
Y113189D02*
D03*
Y115157D02*
D03*
Y117126D02*
D03*
Y119094D02*
D03*
Y121063D02*
D03*
Y123031D02*
D03*
D28*
X98135Y78998D02*
D03*
Y87598D02*
D03*
X91535D02*
D03*
Y78998D02*
D03*
D29*
X82672Y114179D02*
X82683D01*
X212654Y117197D02*
X213774Y118317D01*
X203499Y117197D02*
X212654D01*
X202585Y118110D02*
X203499Y117197D01*
X202923Y115807D02*
X214605D01*
X202588Y116142D02*
X202923Y115807D01*
X138878Y124016D02*
X139567D01*
X136077D02*
X138878D01*
X117205Y142888D02*
X136077Y124016D01*
X138878Y122047D02*
X139567D01*
X135819D02*
X138878D01*
X115630Y142236D02*
X135819Y122047D01*
X174902Y69410D02*
X175197D01*
X241577Y63934D02*
X242031Y63481D01*
X235827Y69685D02*
X241577Y63934D01*
X240945Y71260D02*
X245473Y75787D01*
X199016Y86614D02*
X207202D01*
X77879Y72874D02*
X80222D01*
X98135Y78174D02*
Y82342D01*
X138681Y100394D02*
X138779Y100295D01*
X219519Y176476D02*
X220630Y175366D01*
X135043Y116142D02*
X139567D01*
X105610Y119528D02*
Y122343D01*
X138878Y120079D02*
X139567D01*
X135560D02*
X138878D01*
X114055Y141584D02*
X135560Y120079D01*
X138878Y118110D02*
X139567D01*
X135301D02*
X138878D01*
X112480Y140931D02*
X135301Y118110D01*
X110906Y140279D02*
X135043Y116142D01*
X79724Y89390D02*
Y102756D01*
Y89390D02*
X81457Y87657D01*
X73819Y88208D02*
Y102756D01*
Y88208D02*
X82244Y79783D01*
X77756Y88726D02*
Y102756D01*
Y88726D02*
X81186Y85295D01*
X197279Y114232D02*
X199646D01*
X193401Y118110D02*
X197279Y114232D01*
X161417Y137053D02*
X172480Y148116D01*
X161417Y132776D02*
Y137053D01*
X155512Y135602D02*
X167756Y147846D01*
X155512Y132776D02*
Y135602D01*
X145669Y137110D02*
X147638Y135142D01*
Y132776D02*
Y135142D01*
X147638Y137369D02*
X149606Y135400D01*
Y132776D02*
Y135400D01*
X142150Y125079D02*
X148307D01*
X141244Y125984D02*
X142150Y125079D01*
X143788Y110236D02*
X149515Y115963D01*
X138878Y110236D02*
X143788D01*
X149515Y115963D02*
Y116233D01*
X149528Y116220D01*
Y122638D01*
X135453Y66437D02*
X135709Y66181D01*
X131640Y66437D02*
X135453D01*
X131870Y71161D02*
X135338D01*
X130256Y69547D02*
X131870Y71161D01*
X79413Y66886D02*
X99760D01*
X78576Y65496D02*
X100597D01*
X77739Y64106D02*
X112563D01*
X76901Y62717D02*
X114252D01*
X67244Y79055D02*
X79413Y66886D01*
X99760D02*
X115551Y82677D01*
X66592Y77480D02*
X78576Y65496D01*
X100597D02*
X115810Y80709D01*
X65939Y75906D02*
X77739Y64106D01*
X112563D02*
X113535Y65079D01*
X65287Y74331D02*
X76901Y62717D01*
X26535Y75906D02*
X65939D01*
X19685Y69055D02*
X26535Y75906D01*
X113535Y65079D02*
X115230D01*
X142677Y112205D02*
X143169Y112697D01*
X138878Y112205D02*
X142677D01*
X165335Y68405D02*
X165354Y68425D01*
Y71949D01*
X204291Y88583D02*
X204724Y89016D01*
X199705Y88583D02*
X204291D01*
X231890Y36749D02*
X239629Y44488D01*
X231890Y23268D02*
Y36749D01*
Y23268D02*
X235315Y19842D01*
X239629Y44488D02*
X242913D01*
X230315Y37402D02*
X241339Y48425D01*
X230315Y9843D02*
Y37402D01*
X279528Y56614D02*
X295846D01*
X300197Y55118D02*
X304429D01*
X290591Y64724D02*
X300197Y55118D01*
X279528Y64724D02*
X290591D01*
X274016Y18307D02*
Y32283D01*
X262008Y6299D02*
X274016Y18307D01*
X102264Y46358D02*
X170312D01*
X95472Y53150D02*
X102264Y46358D01*
X99331Y19842D02*
X124272Y44783D01*
X103071Y21356D02*
X124924Y43209D01*
X172342D02*
X178102Y48968D01*
X124924Y43209D02*
X172342D01*
X170312Y46358D02*
X174890Y50936D01*
X174952D01*
X171690Y44783D02*
X176527Y49620D01*
X124272Y44783D02*
X171690D01*
X174952Y50936D02*
Y58383D01*
X181102Y64533D01*
Y71949D01*
X172244Y59055D02*
X179134Y65945D01*
X172244Y52146D02*
Y59055D01*
X169803Y49705D02*
X172244Y52146D01*
X179134Y65945D02*
Y71949D01*
X147638Y66929D02*
X149606Y68898D01*
X147323Y62205D02*
X153543Y68425D01*
X118104Y62205D02*
X147323D01*
X145183Y75590D02*
X148529Y78937D01*
X143937Y75590D02*
X145183D01*
X139724Y71378D02*
X143937Y75590D01*
X144531Y77165D02*
X147877Y80512D01*
X143285Y77165D02*
X144531D01*
X139072Y72953D02*
X143285Y77165D01*
X149606Y68898D02*
Y71949D01*
X181102Y132087D02*
Y132776D01*
X138760Y69016D02*
X145138D01*
X133740Y112008D02*
X135906Y114173D01*
X129744Y132776D02*
X145669D01*
X199016Y84646D02*
X199705D01*
X153543Y127320D02*
Y132776D01*
X194705Y89252D02*
X196004Y90551D01*
X194373Y94488D02*
X199705D01*
X185906Y86020D02*
X194373Y94488D01*
X194115Y96457D02*
X199705D01*
X184331Y86673D02*
X194115Y96457D01*
X193856Y98425D02*
X199705D01*
X182756Y87325D02*
X193856Y98425D01*
X193287Y115551D02*
X196634Y112205D01*
X191929Y118110D02*
X193401D01*
X182087Y111608D02*
X186029Y115551D01*
X182087Y100787D02*
Y111608D01*
Y100787D02*
X184882Y97992D01*
X186029Y115551D02*
X193287D01*
X153526Y170905D02*
X190000D01*
X147638Y165017D02*
X153526Y170905D01*
X147638Y137369D02*
Y165017D01*
X145669Y137110D02*
Y165276D01*
X156417Y176024D01*
X269783Y108366D02*
Y108484D01*
X269587Y138287D02*
X269783Y138484D01*
X253541Y153898D02*
X274528Y174885D01*
X279528Y175734D02*
Y186024D01*
X254528Y176024D02*
X257953Y172598D01*
X259528Y164339D02*
Y186024D01*
X269528Y172112D02*
Y186024D01*
X103071Y18293D02*
Y21356D01*
X248267Y14528D02*
X259251Y3543D01*
X235138Y13563D02*
X236102Y14528D01*
X248267D01*
X119213Y29055D02*
X122047Y31890D01*
X118169Y32205D02*
X119429Y33465D01*
X135203Y68799D02*
X137781Y71378D01*
X132618Y68799D02*
X135203D01*
X130256Y67821D02*
X131640Y66437D01*
X130256Y67821D02*
Y69547D01*
X135338Y71161D02*
X137129Y72953D01*
X115230Y65079D02*
X118104Y62205D01*
X137129Y72953D02*
X139072D01*
X137781Y71378D02*
X139724D01*
X147877Y80512D02*
X151572D01*
X152677Y81617D01*
Y117697D01*
X151890Y118484D02*
X152677Y117697D01*
X155512Y123721D02*
X155827Y123406D01*
X155512Y74508D02*
X155827Y74823D01*
X153150Y122742D02*
X154252Y121640D01*
X152224Y78937D02*
X154252Y80965D01*
X149528Y122638D02*
X151575Y124685D01*
X154252Y80965D02*
Y121640D01*
X155827Y74823D02*
Y123406D01*
X157480Y71949D02*
Y122348D01*
X159055Y74709D02*
Y121696D01*
X160630Y119882D02*
X162894Y122146D01*
X160630Y75361D02*
Y119882D01*
X162205Y119230D02*
X164469Y121493D01*
X162205Y91772D02*
Y119230D01*
X162894Y122146D02*
Y125689D01*
X164469Y121493D02*
Y123681D01*
X159055Y121696D02*
X160244Y122885D01*
Y123333D01*
X167244Y122323D02*
X170768Y125847D01*
X164469Y123681D02*
X165354Y124567D01*
X170768Y125847D02*
X189817D01*
X191201Y127230D01*
Y129187D01*
X190945Y129443D02*
X191201Y129187D01*
X190945Y129443D02*
Y132776D01*
X148529Y78937D02*
X152224D01*
X115551Y82677D02*
X138878D01*
X115810Y80709D02*
X138878D01*
X153150Y122742D02*
Y124699D01*
X157480Y129030D01*
Y132776D01*
X151575Y125351D02*
X153543Y127320D01*
X151575Y124685D02*
Y125351D01*
X124297Y111299D02*
X125006Y112008D01*
X122933Y111299D02*
X124297D01*
X125006Y112008D02*
X133740D01*
X135906Y114173D02*
X138878D01*
X166083Y59547D02*
X167578D01*
X173701Y65669D01*
Y67258D01*
X166083Y49705D02*
X169803D01*
X160964Y59547D02*
X166083D01*
X160965Y49705D02*
X166083D01*
X180151Y153128D02*
X193519Y166496D01*
X199488D01*
X200793Y163347D02*
X209887Y172441D01*
X194824Y163347D02*
X200793D01*
X176854Y145377D02*
X194824Y163347D01*
X201445Y161772D02*
X210540Y170866D01*
X195476Y161772D02*
X201445D01*
X178429Y144725D02*
X195476Y161772D01*
X202097Y160197D02*
X211192Y169291D01*
X196128Y160197D02*
X202097D01*
X180004Y144072D02*
X196128Y160197D01*
X196781Y158622D02*
X251584D01*
X181579Y143420D02*
X196781Y158622D01*
X197433Y157047D02*
X252236D01*
X183153Y142768D02*
X197433Y157047D01*
X198085Y155473D02*
X252888D01*
X184728Y142115D02*
X198085Y155473D01*
X198738Y153898D02*
X253541D01*
X186303Y141463D02*
X198738Y153898D01*
X199390Y152323D02*
X254193D01*
X187878Y140811D02*
X199390Y152323D01*
X194171Y164921D02*
X200141D01*
X180804Y151553D02*
X194171Y164921D01*
X175444Y151553D02*
X180804D01*
X174055Y150164D02*
X175444Y151553D01*
X174792Y153128D02*
X180151D01*
X179662Y154866D02*
X189409Y164613D01*
X163386Y132776D02*
X163386Y132776D01*
Y136794D01*
X174055Y147464D01*
X170893Y151457D02*
X174302Y154866D01*
X167756Y147846D02*
Y150073D01*
X169140Y151457D02*
X170893D01*
X174302Y154866D02*
X179662D01*
X167756Y150073D02*
X169140Y151457D01*
X172480Y150817D02*
X174792Y153128D01*
X172480Y148116D02*
Y150817D01*
X174055Y147464D02*
Y150164D01*
X159449Y137312D02*
X170118Y147981D01*
X159449Y132776D02*
Y137312D01*
X170118Y147981D02*
Y149094D01*
X207202Y86614D02*
X222556Y71260D01*
X199705Y84646D02*
X206943D01*
X221904Y69685D01*
X291732Y3543D02*
X300000Y11811D01*
X259251Y3543D02*
X291732D01*
X213228Y34902D02*
X214902Y36575D01*
X203614Y39713D02*
X205365D01*
X193563Y31890D02*
X203819Y42146D01*
X202244Y42798D02*
Y56673D01*
X192911Y33465D02*
X202244Y42798D01*
X203819Y42146D02*
Y57402D01*
X194215Y30315D02*
X203614Y39713D01*
X157670Y30315D02*
X194215D01*
X156693Y29338D02*
X157670Y30315D01*
X122047Y31890D02*
X193563D01*
X119429Y33465D02*
X192911D01*
X176527Y57730D02*
X182776Y63979D01*
X178102Y57078D02*
X185039Y64016D01*
X179676Y56299D02*
X187008Y63631D01*
Y71949D01*
X185039Y64016D02*
Y71949D01*
X182776Y63979D02*
Y71653D01*
X176527Y49620D02*
Y57730D01*
X178102Y48968D02*
Y57078D01*
X183358Y43985D02*
X184724Y42618D01*
X183358Y43985D02*
Y47960D01*
X197547Y54560D02*
X198543Y53563D01*
X191957Y54560D02*
X197547D01*
X188976Y57541D02*
X191957Y54560D01*
X188976Y57541D02*
Y71949D01*
X179676Y51641D02*
X183358Y47960D01*
X179676Y51641D02*
Y56299D01*
X190945Y67972D02*
X202244Y56673D01*
X190945Y67972D02*
Y71949D01*
X192913Y68307D02*
X203819Y57402D01*
X192913Y68307D02*
Y71949D01*
X279528Y40394D02*
Y48504D01*
Y40394D02*
X282972Y36949D01*
Y27795D02*
Y36949D01*
Y27795D02*
X298957Y11811D01*
X300000D01*
X272500Y86476D02*
X273228Y87205D01*
X262283Y86476D02*
X272500D01*
X214605Y115807D02*
X219192Y120394D01*
X260846D01*
X176422Y147172D02*
Y149191D01*
X167323Y138073D02*
X176422Y147172D01*
X176854Y145372D02*
Y145377D01*
X173625Y142143D02*
X176854Y145372D01*
X178429Y144720D02*
Y144725D01*
X174278Y140569D02*
X178429Y144720D01*
X180004Y144068D02*
Y144072D01*
X174930Y138994D02*
X180004Y144068D01*
X181579Y143415D02*
Y143420D01*
X175582Y137419D02*
X181579Y143415D01*
X183153Y142763D02*
Y142768D01*
X177165Y136775D02*
X183153Y142763D01*
X184728Y142111D02*
Y142115D01*
X179134Y136516D02*
X184728Y142111D01*
X179134Y132776D02*
Y136516D01*
X186303Y141458D02*
Y141463D01*
X181102Y136258D02*
X186303Y141458D01*
X181102Y132776D02*
Y136258D01*
X187878Y140806D02*
Y140811D01*
X183071Y135999D02*
X187878Y140806D01*
X183071Y132776D02*
Y135999D01*
X188976Y132776D02*
Y137894D01*
X173621Y142143D02*
X173625D01*
X169291Y137814D02*
X173621Y142143D01*
X174273Y140569D02*
X174278D01*
X171260Y137556D02*
X174273Y140569D01*
X167323Y132776D02*
Y138073D01*
X192598Y137657D02*
X196772Y133484D01*
X192598Y137657D02*
Y141260D01*
X198760Y129232D02*
X208780D01*
X195217Y132776D02*
X198760Y129232D01*
X192913Y132776D02*
X195217D01*
X173228Y137297D02*
X174925Y138994D01*
X174930D01*
X175197Y137038D02*
X175578Y137419D01*
X175582D01*
X177165Y132776D02*
Y136775D01*
X98071Y78110D02*
X98135Y78174D01*
X58563Y32972D02*
X59252Y32283D01*
X58563Y32972D02*
Y60276D01*
X130905Y101378D02*
X132486D01*
X129921Y104331D02*
X138878D01*
X127953Y106299D02*
X129921Y104331D01*
X113721Y101654D02*
X117824D01*
X115486Y103228D02*
X118476D01*
X114699Y104016D02*
X115486Y103228D01*
X110551Y104016D02*
X114699D01*
X109016Y105551D02*
X110551Y104016D01*
X138878Y86614D02*
X142397D01*
X142852Y87069D01*
X193339Y102362D02*
X199705D01*
X179606Y84367D02*
Y88630D01*
X193597Y100394D02*
X199705D01*
X181181Y83715D02*
Y87977D01*
X182756Y83031D02*
Y87325D01*
X184331Y82140D02*
Y86673D01*
X185906Y80374D02*
Y86020D01*
X194632Y92520D02*
X199705D01*
X187480Y80762D02*
Y85368D01*
X194632Y92520D01*
X181181Y87977D02*
X193597Y100394D01*
X179606Y88630D02*
X193339Y102362D01*
X196004Y90551D02*
X199705D01*
X51575Y32283D02*
X51654D01*
X199705Y116142D02*
X202588D01*
X199705Y118110D02*
X202585D01*
X210394Y120079D02*
X210728Y119744D01*
X199705Y120079D02*
X210394D01*
X158996Y51673D02*
X160965Y49705D01*
X158996Y57579D02*
X160964Y59547D01*
X175197Y69410D02*
Y71949D01*
X174902Y68459D02*
Y69410D01*
X173701Y67258D02*
X174902Y68459D01*
X176063Y66280D02*
X177165Y67382D01*
X94331Y9843D02*
X94620D01*
X103071Y18293D01*
X182776Y71653D02*
X183071Y71949D01*
X182782Y77520D02*
X182854Y77592D01*
X187508Y77342D02*
X187579Y77413D01*
X178057Y77283D02*
Y80590D01*
X175694Y79705D02*
Y80454D01*
X180492Y79685D02*
Y80768D01*
X182854Y80664D02*
X184331Y82140D01*
X182854Y77592D02*
Y80664D01*
X185216Y79685D02*
X185906Y80374D01*
X187480Y80762D02*
X187579Y80664D01*
Y77413D02*
Y80664D01*
X178057Y80590D02*
X181181Y83715D01*
X180492Y80768D02*
X182756Y83031D01*
X175694Y80454D02*
X179606Y84367D01*
X196634Y112205D02*
X199705D01*
X194131Y104331D02*
X199705D01*
X192084Y106378D02*
X194131Y104331D01*
X188169Y106378D02*
X192084D01*
X162205Y91772D02*
X163583Y90394D01*
X157776Y125491D02*
X158079Y125794D01*
X157776Y124797D02*
Y125491D01*
Y124797D02*
X157874Y124699D01*
Y122742D02*
Y124699D01*
X157480Y122348D02*
X157874Y122742D01*
X165354Y124567D02*
Y132776D01*
X36279Y32087D02*
Y32224D01*
X36220Y32283D02*
X36279Y32224D01*
X125984Y109646D02*
X133853D01*
X135230Y108268D01*
X138878D01*
X91535Y88583D02*
Y93464D01*
X87598Y97401D02*
X91535Y93464D01*
X82441Y90925D02*
X86594D01*
X81397Y91969D02*
X82441Y90925D01*
X81397Y91969D02*
Y101148D01*
X81457Y87657D02*
X83484D01*
X81186Y85295D02*
X86791D01*
X86910Y85413D01*
X81971Y82284D02*
X83602D01*
X75787Y88468D02*
X81971Y82284D01*
X82244Y79783D02*
X87402D01*
X83759Y100170D02*
Y102658D01*
X81397Y101148D02*
X81693Y101444D01*
Y102756D01*
X120669Y105787D02*
X122047Y104409D01*
X120650Y105787D02*
X120669D01*
X117421Y109016D02*
X120650Y105787D01*
X117421Y109016D02*
Y109035D01*
X116909Y109547D02*
X117421Y109035D01*
X121321Y107362D02*
X123622Y105062D01*
X121302Y107362D02*
X121321D01*
X118996Y109669D02*
X121302Y107362D01*
X118996Y109669D02*
Y109688D01*
X113526Y115157D02*
X118996Y109688D01*
X121974Y108937D02*
X125197Y105714D01*
X121955Y108937D02*
X121974D01*
X120571Y110321D02*
X121955Y108937D01*
X120571Y110321D02*
Y110340D01*
X113785Y117126D02*
X120571Y110340D01*
X79646Y73444D02*
X79653D01*
X80222Y72874D01*
X68549Y82205D02*
X77879Y72874D01*
X26535Y82205D02*
X68549D01*
X19685Y89055D02*
X26535Y82205D01*
X177165Y67382D02*
Y71949D01*
X81240Y70551D02*
X82165Y71476D01*
X77975Y70551D02*
X81240D01*
X67896Y80630D02*
X77975Y70551D01*
X24783Y80630D02*
X67896D01*
X21358Y84055D02*
X24783Y80630D01*
X9685Y84055D02*
X21358D01*
X145669Y69547D02*
Y71949D01*
X145138Y69016D02*
X145669Y69547D01*
X27283Y74331D02*
X65287D01*
X23405Y77480D02*
X66592D01*
X19685Y79055D02*
X67244D01*
X23425Y70472D02*
X27283Y74331D01*
X23425Y67506D02*
Y70472D01*
X19974Y64055D02*
X23425Y67506D01*
X9685Y64055D02*
X19974D01*
X153543Y68425D02*
Y71949D01*
X9685Y74055D02*
X19980D01*
X23405Y77480D01*
X279528Y72835D02*
X281102Y74410D01*
Y83465D01*
X260312Y124016D02*
X264781Y128484D01*
X199705Y124016D02*
X260312D01*
X260689Y122165D02*
X262008Y123484D01*
X199823Y122165D02*
X260689D01*
X260846Y120394D02*
X262756Y118484D01*
X242913Y44488D02*
X243898Y45472D01*
Y50908D01*
X241339Y53468D02*
X243898Y50908D01*
X241339Y53468D02*
Y56060D01*
X220793Y67795D02*
X223667Y64921D01*
X220453Y67795D02*
X220793D01*
X238779Y53799D02*
X241339Y51240D01*
Y48425D02*
Y51240D01*
X238779Y53799D02*
Y57261D01*
X231119Y64921D02*
X238779Y57261D01*
X223667Y64921D02*
X231119D01*
X221904Y69685D02*
X235827D01*
X222556Y71260D02*
X240945D01*
X230157Y68110D02*
X241339Y56929D01*
X225472Y68110D02*
X230157D01*
X224646Y67283D02*
X225472Y68110D01*
X241339Y56060D02*
Y56929D01*
X199646Y114232D02*
X199705Y114173D01*
Y122047D02*
X199823Y122165D01*
X214902Y36575D02*
Y69823D01*
X212461Y39094D02*
X212539Y39173D01*
Y72618D01*
X205551Y125984D02*
X206437Y126870D01*
X199705Y125984D02*
X205551D01*
X175197Y132776D02*
Y137038D01*
X173228Y132776D02*
Y137297D01*
X163386Y75590D02*
Y78583D01*
X167323Y71949D02*
Y75170D01*
X166902Y75590D02*
X167323Y75170D01*
X163386Y71949D02*
Y75571D01*
Y75590D02*
X166902D01*
X169291Y71949D02*
Y78149D01*
X190965Y108858D02*
X191831D01*
X194390Y106299D01*
X199705D01*
X75787Y88468D02*
Y102756D01*
X87598Y97401D02*
Y102756D01*
X118780Y156457D02*
X120354Y158031D01*
X118780Y143740D02*
Y156457D01*
Y143740D02*
X129744Y132776D01*
X117205Y142888D02*
Y186181D01*
X115630Y142236D02*
Y172756D01*
X114055Y141584D02*
Y169041D01*
X112480Y140931D02*
Y168389D01*
X110906Y140279D02*
Y167539D01*
X199705Y78740D02*
X202767D01*
X187008Y129291D02*
Y132776D01*
X199705Y82677D02*
X203285D01*
X199705Y110236D02*
X203185D01*
X153543Y132776D02*
Y136398D01*
X199705Y80709D02*
X203026D01*
X152106Y137835D02*
X153543Y136398D01*
X188091Y128209D02*
X188839D01*
X203185Y110236D02*
X203575Y110626D01*
X187008Y129291D02*
X188091Y128209D01*
X189409Y164613D02*
Y167205D01*
X171260Y132776D02*
Y137556D01*
X169291Y132776D02*
Y137814D01*
X206142Y11102D02*
Y21392D01*
X204882Y9843D02*
X206142Y11102D01*
Y21392D02*
X208307Y23557D01*
Y72087D01*
X203150Y77245D02*
X208307Y72087D01*
X203150Y77245D02*
Y78358D01*
X202767Y78740D02*
X203150Y78358D01*
X203026Y80709D02*
X204724Y79010D01*
Y77897D02*
Y79010D01*
Y77897D02*
X209882Y72739D01*
Y19842D02*
Y72739D01*
X203285Y82677D02*
X207087Y78875D01*
X218442Y176476D02*
X219519D01*
X212831Y170866D02*
X218442Y176476D01*
X225630Y175892D02*
Y186181D01*
X222179Y172441D02*
X225630Y175892D01*
X216633Y172441D02*
X222179D01*
X213484Y169291D02*
X216633Y172441D01*
X211192Y169291D02*
X213484D01*
X210540Y170866D02*
X212831D01*
X209887Y172441D02*
X212179D01*
X205630Y170411D02*
Y186181D01*
X200141Y164921D02*
X205630Y170411D01*
X215630Y175892D02*
Y186181D01*
X212179Y172441D02*
X215630Y175892D01*
X200630Y167638D02*
Y176181D01*
X199488Y166496D02*
X200630Y167638D01*
X251584Y158622D02*
X257953Y164991D01*
X252236Y157047D02*
X259528Y164339D01*
X252888Y155473D02*
X269528Y172112D01*
X254193Y152323D02*
X274153Y172283D01*
X276077D02*
X279528Y175734D01*
X274153Y172283D02*
X276077D01*
X257953Y164991D02*
Y172598D01*
X274528Y174885D02*
Y176024D01*
X199705Y122047D02*
X199764Y121988D01*
X160630Y75361D02*
X161417Y74574D01*
X159055Y74709D02*
X159449Y74315D01*
X173228Y132776D02*
X173291Y132838D01*
X112756Y99252D02*
X117998D01*
X110335Y101673D02*
X112756Y99252D01*
X106595Y101673D02*
X110335D01*
X117998Y99252D02*
X128667Y88583D01*
X118476Y103228D02*
X129185Y92520D01*
X101713Y119528D02*
Y124013D01*
X97773Y127953D02*
X101713Y124013D01*
X109843Y119783D02*
Y120380D01*
X99120Y131102D02*
X109843Y120380D01*
X94095Y117126D02*
X113785D01*
X94095Y115157D02*
X113526D01*
X98425Y129527D02*
X105610Y122343D01*
X107264Y105551D02*
X109016D01*
X128926Y90551D02*
X138878D01*
X117824Y101654D02*
X128926Y90551D01*
X161417Y71949D02*
Y74574D01*
X159449Y71949D02*
Y74315D01*
X155512Y71949D02*
Y74508D01*
X217831Y191496D02*
X219406Y189921D01*
X275630D02*
X279528Y186024D01*
X219406Y189921D02*
X275630D01*
X170672Y191496D02*
X217831D01*
X168861Y193307D02*
X170672Y191496D01*
X112049Y193307D02*
X168861D01*
X110573Y194783D02*
X112049Y193307D01*
X68799Y194783D02*
X110573D01*
X59055Y185040D02*
X68799Y194783D01*
X71522Y185040D02*
X77979Y191496D01*
X73458Y193209D02*
X109921D01*
X65289Y185040D02*
X73458Y193209D01*
X109921D02*
X111633Y191496D01*
X170020Y189921D02*
X217179D01*
X168445Y191496D02*
X170020Y189921D01*
X217179D02*
X220919Y186181D01*
X225630D01*
X111633Y191496D02*
X168445D01*
X77756Y185040D02*
X82638Y189921D01*
X77979Y191496D02*
X109406D01*
X110981Y189921D01*
X108754D02*
X112494Y186181D01*
X82638Y189921D02*
X108754D01*
X110981D02*
X167520D01*
X171417Y186024D01*
X112494Y186181D02*
X117205D01*
X44196Y146752D02*
X69885Y121063D01*
X42618Y150787D02*
X70374Y123031D01*
X41634Y146752D02*
X44196D01*
X39370Y150787D02*
X42618D01*
X112205Y176181D02*
X115630Y172756D01*
X107205Y186181D02*
X107520Y185866D01*
X97205Y186181D02*
X97494D01*
X105945Y177730D01*
X107520Y175577D02*
Y185866D01*
Y175577D02*
X114055Y169041D01*
X105945Y174925D02*
Y177730D01*
Y174925D02*
X112480Y168389D01*
X106004Y172441D02*
X110906Y167539D01*
X92205Y176181D02*
X96915D01*
X100655Y172441D01*
X106004D01*
X295846Y56614D02*
X300492Y51968D01*
X304429D01*
X250641Y64724D02*
X274016D01*
X248718Y66648D02*
X250641Y64724D01*
X244291Y66648D02*
X248718D01*
X242031Y62514D02*
Y63481D01*
X241577Y63934D02*
X241577D01*
X276575Y59173D02*
Y75096D01*
X275883Y75787D02*
X276575Y75096D01*
X274016Y56614D02*
X276575Y59173D01*
X245473Y75787D02*
X275883D01*
X241577Y63934D02*
X244291Y66648D01*
X241339Y63696D02*
X241577Y63934D01*
X274016Y64724D02*
Y72835D01*
X138779Y100295D02*
X138878Y100394D01*
X94095Y111221D02*
X95866D01*
X96850Y112205D01*
X71260Y101575D02*
Y105315D01*
Y111221D02*
X81693D01*
X82677Y112205D01*
X91535Y102756D02*
X91683Y102608D01*
X91535Y123031D02*
X94095D01*
X89567Y102756D02*
Y107283D01*
X83661Y125590D02*
Y128174D01*
X86589Y131102D01*
X85630Y127916D02*
X87241Y129527D01*
X85630Y125590D02*
Y127916D01*
X87598Y127657D02*
X87894Y127953D01*
X87598Y125590D02*
Y127657D01*
X71260Y119095D02*
X81693D01*
X82677Y120079D01*
X83661Y102756D02*
X83759Y102658D01*
X91683Y100415D02*
Y102608D01*
X138681Y100393D02*
X138681Y100394D01*
X122047Y101884D02*
Y104409D01*
X136214Y102362D02*
X138878D01*
X135821Y102756D02*
X136214Y102362D01*
X133864Y102756D02*
X135821D01*
X132486Y101378D02*
X133864Y102756D01*
X125197Y103189D02*
Y105714D01*
X123622Y102536D02*
Y105062D01*
X96850Y112205D02*
X96851Y112205D01*
X87241Y129527D02*
X98425D01*
X94095Y107283D02*
X94292Y107086D01*
X96851Y112205D02*
X96851Y112205D01*
X94095Y109252D02*
X94390Y109547D01*
X94292Y107086D02*
X96850D01*
X96851Y112205D02*
X112500D01*
X94390Y109547D02*
X116909D01*
X87894Y127953D02*
X97773D01*
X82683Y114179D02*
X91535Y123031D01*
X82672Y114179D02*
X82677Y114173D01*
X77858Y114179D02*
X82672D01*
X82677Y114173D02*
X88386Y108465D01*
X89567Y107283D01*
X134842Y100393D02*
X138681D01*
X128667Y88583D02*
X138878D01*
X129185Y92520D02*
X138878D01*
X199705Y104331D02*
X199705Y104331D01*
X70374Y123031D02*
X71260D01*
X69885Y121063D02*
X71260D01*
X39370Y120866D02*
X42520Y117716D01*
X64376D01*
X64376Y117717D01*
X65354Y115354D02*
X67203D01*
X64376Y117717D02*
X67067D01*
X69627Y115157D01*
X71260D01*
X67203Y115354D02*
X69368Y113189D01*
X71260D01*
X69885Y117126D02*
X71260D01*
X63723Y119291D02*
X63724Y119291D01*
X67720D01*
X69885Y117126D01*
X35551Y130984D02*
X39370Y127165D01*
X9685Y130984D02*
X35551D01*
X39370Y144488D02*
X41634Y146752D01*
X19685Y135984D02*
Y144193D01*
X43603Y119291D02*
X63723D01*
X42323Y120571D02*
X43603Y119291D01*
X42323Y120571D02*
Y124213D01*
X39370Y127165D02*
X42323Y124213D01*
X36417Y125298D02*
Y127891D01*
Y125298D02*
X38093Y123622D01*
Y122143D02*
X39370Y120866D01*
X38093Y122143D02*
Y123622D01*
X19685Y125984D02*
X23110Y129409D01*
X34899D01*
X36417Y127891D01*
X9685Y140984D02*
X14213D01*
X19685Y144193D02*
X24016Y148524D01*
X35335D01*
X39370Y144488D01*
X14213Y140984D02*
X23327Y150098D01*
X35987D01*
X36676Y150787D01*
X39370D01*
X132874Y107283D02*
X133858Y106299D01*
X138878D01*
X86589Y131102D02*
X99120D01*
X135821Y98031D02*
X136215Y98425D01*
X138878D01*
X125197Y103189D02*
X130354Y98031D01*
X135821D01*
X136473Y96457D02*
X138878D01*
X122047Y101884D02*
X129443Y94488D01*
X138878D01*
X123622Y102536D02*
X129702Y96456D01*
X136473D01*
X136473Y96457D01*
X138878Y125984D02*
X141244D01*
X148307Y125079D02*
X148465Y124921D01*
X262756Y118484D02*
X269783D01*
X262008Y123484D02*
X269783D01*
X196772Y133484D02*
X269783D01*
X264781Y128484D02*
X269783D01*
D30*
X246850Y36181D02*
Y48425D01*
X48957Y4921D02*
X243189D01*
X246850Y8583D01*
Y11378D01*
X48346Y5531D02*
X48957Y4921D01*
X246752Y36279D02*
X246850Y36181D01*
Y48425D02*
Y56060D01*
X39272Y134350D02*
Y138878D01*
X39370Y138976D01*
D31*
X89331Y19842D02*
X91154Y21665D01*
Y27640D01*
X93110Y29596D01*
Y36024D01*
X91535Y69784D02*
Y72638D01*
X91732Y72835D01*
X289272Y108484D02*
X289449D01*
X289272Y138484D02*
X289764Y137992D01*
X289646Y118110D02*
X306102D01*
X289272Y118484D02*
X289646Y118110D01*
X289272Y133484D02*
X298839D01*
X322835Y157480D01*
X289272Y143484D02*
X289744D01*
X310335Y113484D02*
X312835Y110984D01*
X310335Y123484D02*
X312835Y120984D01*
X289272Y123484D02*
X310335D01*
X322835Y115984D02*
Y116830D01*
X314547Y125118D02*
X322835Y116830D01*
X312855Y125118D02*
X314547D01*
X309489Y128484D02*
X312855Y125118D01*
X289272Y128484D02*
X309489D01*
X165571Y151299D02*
Y152992D01*
X152106Y137835D02*
X165571Y151299D01*
X91535Y73032D02*
Y78998D01*
Y73032D02*
X91732Y72835D01*
X79724Y171457D02*
Y177165D01*
X77756Y179134D02*
X79724Y177165D01*
X73163Y171457D02*
Y177493D01*
X71522Y179134D02*
X73163Y177493D01*
X66601Y171457D02*
Y177821D01*
X65289Y179134D02*
X66601Y177821D01*
X60039Y171457D02*
Y178149D01*
X59055Y179134D02*
X60039Y178149D01*
X46063Y16929D02*
Y21000D01*
X41535Y12402D02*
X46063Y16929D01*
X29331Y12402D02*
X36220Y19291D01*
X43898Y23165D02*
X46063Y21000D01*
X43898Y23165D02*
Y26772D01*
X65158Y12402D02*
X69685Y16929D01*
Y21000D01*
X66929Y23755D02*
X69685Y21000D01*
X66929Y23755D02*
Y26772D01*
X52953Y12402D02*
X59252Y18701D01*
Y26772D01*
X51575Y20472D02*
X52953Y19094D01*
X51575Y20472D02*
Y26772D01*
X36220Y19291D02*
Y26772D01*
X28543Y19882D02*
X29331Y19094D01*
X28543Y19882D02*
Y26772D01*
X289272Y113484D02*
X310335D01*
D32*
X304350Y45138D02*
X304429Y45217D01*
Y48819D01*
D33*
X69095Y109252D02*
X71260D01*
X65158Y107283D02*
X71260D01*
X66535Y111811D02*
X69095Y109252D01*
D34*
X95472Y53150D02*
D03*
X85472D02*
D03*
X322835Y105984D02*
D03*
X312835Y110984D02*
D03*
X322835Y115984D02*
D03*
X312835Y120984D02*
D03*
X322835Y125984D02*
D03*
X312835Y130984D02*
D03*
X322835Y157480D02*
D03*
X312835D02*
D03*
X289528Y186024D02*
D03*
X284528Y176024D02*
D03*
X279528Y186024D02*
D03*
X274528Y176024D02*
D03*
X269528Y186024D02*
D03*
X264528Y176024D02*
D03*
X259528Y186024D02*
D03*
X254528Y176024D02*
D03*
X235630Y186181D02*
D03*
X230630Y176181D02*
D03*
X225630Y186181D02*
D03*
X220630Y176181D02*
D03*
X215630Y186181D02*
D03*
X210630Y176181D02*
D03*
X205630Y186181D02*
D03*
X200630Y176181D02*
D03*
X127205Y186181D02*
D03*
X122205Y176181D02*
D03*
X117205Y186181D02*
D03*
X112205Y176181D02*
D03*
X107205Y186181D02*
D03*
X102205Y176181D02*
D03*
X97205Y186181D02*
D03*
X92205Y176181D02*
D03*
X181417Y186024D02*
D03*
X176417Y176024D02*
D03*
X171417Y186024D02*
D03*
X166417Y176024D02*
D03*
X161417Y186024D02*
D03*
X156417Y176024D02*
D03*
X151417Y186024D02*
D03*
X146417Y176024D02*
D03*
X84331Y9843D02*
D03*
X89331Y19842D02*
D03*
X94331Y9843D02*
D03*
X99331Y19842D02*
D03*
X104331Y9843D02*
D03*
X109331Y19842D02*
D03*
X129764Y9843D02*
D03*
X134764Y19842D02*
D03*
X139764Y9843D02*
D03*
X144764Y19842D02*
D03*
X149764Y9843D02*
D03*
X154764Y19842D02*
D03*
X159764Y9843D02*
D03*
X164764Y19842D02*
D03*
X184882Y9843D02*
D03*
X189882Y19842D02*
D03*
X194882Y9843D02*
D03*
X199882Y19842D02*
D03*
X204882Y9843D02*
D03*
X209882Y19842D02*
D03*
X245315D02*
D03*
X240315Y9843D02*
D03*
X235315Y19842D02*
D03*
X230315Y9843D02*
D03*
X9685Y140984D02*
D03*
X19685Y135984D02*
D03*
X9685Y130984D02*
D03*
X19685Y125984D02*
D03*
Y59055D02*
D03*
X9685Y64055D02*
D03*
X19685Y69055D02*
D03*
X9685Y74055D02*
D03*
X19685Y79055D02*
D03*
X9685Y84055D02*
D03*
X19685Y89055D02*
D03*
X9685Y94055D02*
D03*
D35*
X314961Y46457D02*
D03*
Y63779D02*
D03*
D36*
X11811Y185039D02*
D03*
X322835D02*
D03*
Y11811D02*
D03*
X11811D02*
D03*
D37*
X144587Y127854D02*
D03*
X297244Y62008D02*
D03*
X98425Y26575D02*
D03*
X93804Y26576D02*
D03*
X88583Y26575D02*
D03*
X221457Y39370D02*
D03*
Y44291D02*
D03*
Y49213D02*
D03*
Y54134D02*
D03*
Y59055D02*
D03*
X236221Y25591D02*
D03*
X238189Y31496D02*
D03*
X237205Y37402D02*
D03*
X268701Y68898D02*
D03*
X263451D02*
D03*
X258202D02*
D03*
X252953D02*
D03*
X296260Y52165D02*
D03*
X295276Y48228D02*
D03*
X291339Y51181D02*
D03*
X226378Y98425D02*
D03*
Y93504D02*
D03*
Y88583D02*
D03*
X221457D02*
D03*
Y93504D02*
D03*
Y98425D02*
D03*
Y103347D02*
D03*
X312008Y61024D02*
D03*
X299213Y65945D02*
D03*
X304134D02*
D03*
X309055D02*
D03*
X286417Y6890D02*
D03*
Y11811D02*
D03*
Y16732D02*
D03*
X258858Y14764D02*
D03*
X264764D02*
D03*
X265748Y18701D02*
D03*
X260827D02*
D03*
X263779Y27559D02*
D03*
X259842D02*
D03*
X255906D02*
D03*
X251969D02*
D03*
X252953Y61024D02*
D03*
X260827Y44291D02*
D03*
Y49213D02*
D03*
X255906D02*
D03*
Y44291D02*
D03*
X258858Y59055D02*
D03*
X246850Y63696D02*
D03*
X196850Y25591D02*
D03*
X191929D02*
D03*
X187008D02*
D03*
X182087D02*
D03*
X142717Y26575D02*
D03*
X137795D02*
D03*
X132874D02*
D03*
X127953D02*
D03*
X83661D02*
D03*
X78740D02*
D03*
X118110Y54134D02*
D03*
Y49213D02*
D03*
X113189D02*
D03*
Y54134D02*
D03*
X73819Y59055D02*
D03*
Y54134D02*
D03*
X68898D02*
D03*
Y59055D02*
D03*
X44291Y68898D02*
D03*
Y63976D02*
D03*
X39370D02*
D03*
Y68898D02*
D03*
X147638Y66929D02*
D03*
X168307Y65945D02*
D03*
X162402D02*
D03*
X158465D02*
D03*
X154528D02*
D03*
X176181Y90551D02*
D03*
X171653D02*
D03*
X167323D02*
D03*
X204724Y95472D02*
D03*
Y99410D02*
D03*
Y103347D02*
D03*
X191929Y118110D02*
D03*
X185039Y110236D02*
D03*
X187008Y113189D02*
D03*
Y118110D02*
D03*
Y123031D02*
D03*
X177165D02*
D03*
Y118110D02*
D03*
Y113189D02*
D03*
Y108268D02*
D03*
Y103347D02*
D03*
X167323D02*
D03*
Y108268D02*
D03*
Y113189D02*
D03*
Y118110D02*
D03*
X148622Y87598D02*
D03*
X143701Y81693D02*
D03*
X140748Y129921D02*
D03*
X145669Y116142D02*
D03*
X144685Y102362D02*
D03*
X149606D02*
D03*
Y107283D02*
D03*
X144685D02*
D03*
X126969Y85630D02*
D03*
X130905D02*
D03*
X122047Y120079D02*
D03*
X116142D02*
D03*
Y125984D02*
D03*
X110236D02*
D03*
Y131890D02*
D03*
X98327Y119685D02*
D03*
X103445Y107087D02*
D03*
X100394Y101772D02*
D03*
X119213Y29055D02*
D03*
X118169Y32205D02*
D03*
X135709Y66181D02*
D03*
X132618Y68799D02*
D03*
X151890Y118484D02*
D03*
X167244Y122323D02*
D03*
X148561Y128339D02*
D03*
X148465Y124921D02*
D03*
X184606Y128819D02*
D03*
X195256Y108799D02*
D03*
X204724Y89016D02*
D03*
X134902Y85039D02*
D03*
X143169Y112697D02*
D03*
X165335Y68405D02*
D03*
X235138Y13563D02*
D03*
X213228Y34902D02*
D03*
X205365Y39713D02*
D03*
X156693Y29338D02*
D03*
X262283Y86476D02*
D03*
X176422Y149191D02*
D03*
X188976Y137894D02*
D03*
X170118Y149094D02*
D03*
X98135Y82342D02*
D03*
X58563Y60276D02*
D03*
X130905Y101378D02*
D03*
X113721Y101654D02*
D03*
X142852Y87069D02*
D03*
X194705Y89252D02*
D03*
X51654Y32283D02*
D03*
X66929D02*
D03*
X176063Y66280D02*
D03*
X182782Y77520D02*
D03*
X187508Y77342D02*
D03*
X178057Y77283D02*
D03*
X175694Y79705D02*
D03*
X180492Y79685D02*
D03*
X185216Y79685D02*
D03*
X43996Y32283D02*
D03*
X163583Y90394D02*
D03*
X162894Y125689D02*
D03*
X160244Y123333D02*
D03*
X158079Y125794D02*
D03*
X155512Y123721D02*
D03*
X28327Y32520D02*
D03*
X36279Y32087D02*
D03*
X125984Y109646D02*
D03*
X86594Y90925D02*
D03*
X83484Y87657D02*
D03*
X86910Y85413D02*
D03*
X83602Y82284D02*
D03*
X87402Y79783D02*
D03*
X83759Y100170D02*
D03*
X122933Y111299D02*
D03*
X79646Y73444D02*
D03*
X82165Y71476D02*
D03*
X138760Y69016D02*
D03*
X114252Y62717D02*
D03*
X213774Y118317D02*
D03*
X210728Y119744D02*
D03*
X208780Y129232D02*
D03*
X224646Y67283D02*
D03*
X220453Y67795D02*
D03*
X214902Y69823D02*
D03*
X212461Y39094D02*
D03*
X212539Y72618D02*
D03*
X206437Y126870D02*
D03*
X163386Y78583D02*
D03*
X169291Y78149D02*
D03*
X190965Y108858D02*
D03*
X188169Y106378D02*
D03*
X184882Y97992D02*
D03*
X91535Y88583D02*
D03*
X120354Y158031D02*
D03*
X152106Y137835D02*
D03*
X188839Y128209D02*
D03*
X203575Y110626D02*
D03*
X192598Y141260D02*
D03*
X207087Y78875D02*
D03*
X189409Y167205D02*
D03*
X190000Y170905D02*
D03*
X109803Y119528D02*
D03*
X105758D02*
D03*
X101713D02*
D03*
X107264Y105551D02*
D03*
X106595Y101673D02*
D03*
X71260Y101575D02*
D03*
X65158Y107283D02*
D03*
X92126Y125591D02*
D03*
X87598Y114173D02*
D03*
X82677Y121063D02*
D03*
X77559Y108169D02*
D03*
Y114173D02*
D03*
Y121063D02*
D03*
X91683Y100415D02*
D03*
X96850Y107086D02*
D03*
X112500Y112205D02*
D03*
X83563Y108366D02*
D03*
X88386Y108465D02*
D03*
X134842Y100393D02*
D03*
X127953Y106299D02*
D03*
X66535Y111811D02*
D03*
X65354Y115354D02*
D03*
X132874Y107283D02*
D03*
X143701Y121063D02*
D03*
D38*
X93110Y36024D02*
D03*
X91535Y69784D02*
D03*
X289449Y108484D02*
D03*
X289764Y137992D02*
D03*
X306102Y118110D02*
D03*
X289744Y143484D02*
D03*
X289862Y113583D02*
D03*
X49213Y114173D02*
D03*
X55118D02*
D03*
X61024D02*
D03*
Y88583D02*
D03*
X55118D02*
D03*
X49213D02*
D03*
X43307D02*
D03*
X66929Y145669D02*
D03*
Y139764D02*
D03*
X61024D02*
D03*
Y145669D02*
D03*
X98425Y147638D02*
D03*
Y157480D02*
D03*
X88583D02*
D03*
Y147638D02*
D03*
X151575D02*
D03*
Y153543D02*
D03*
Y159449D02*
D03*
X129921Y151575D02*
D03*
X139764D02*
D03*
Y161417D02*
D03*
X129921D02*
D03*
X246063Y116142D02*
D03*
Y106299D02*
D03*
X236221D02*
D03*
Y116142D02*
D03*
X246063Y137795D02*
D03*
X236221D02*
D03*
Y147638D02*
D03*
X246063D02*
D03*
X175197Y159449D02*
D03*
X169291D02*
D03*
X185039Y167323D02*
D03*
X248031Y165354D02*
D03*
X242126D02*
D03*
X236221D02*
D03*
X192913Y37402D02*
D03*
X187008D02*
D03*
X141732Y39370D02*
D03*
X159449D02*
D03*
X153543D02*
D03*
X147638D02*
D03*
X195846Y42520D02*
D03*
X191957Y47960D02*
D03*
X153484Y51673D02*
D03*
Y57579D02*
D03*
D39*
X269783Y108366D02*
D03*
X269587Y138287D02*
D03*
X246850Y11378D02*
D03*
X48346Y5531D02*
D03*
X165571Y152992D02*
D03*
X304350Y45138D02*
D03*
X246752Y36279D02*
D03*
X39370Y115354D02*
D03*
X41535Y19094D02*
D03*
X65158D02*
D03*
X39272Y134350D02*
D03*
X39370Y156299D02*
D03*
X60039Y165157D02*
D03*
X66601D02*
D03*
X73130D02*
D03*
X79724Y165157D02*
D03*
X268898Y143799D02*
D03*
X269783Y113484D02*
D03*
X273228Y79724D02*
D03*
X274016Y48425D02*
D03*
X267717Y6890D02*
D03*
M02*
